<?xml version="1.0" encoding="utf-8"?>
<!-- Generator: Adobe Illustrator 19.1.1, SVG Export Plug-In . SVG Version: 6.00 Build 0)  -->
<svg version="1.1" baseProfile="tiny" id="Layer_1" xmlns="http://www.w3.org/2000/svg" xmlns:xlink="http://www.w3.org/1999/xlink"
	 x="0px" y="0px" viewBox="-452 188 55 185" xml:space="preserve">
	  <style type="text/css">

	.level{
		transform:translateY(43px);
		animation : level1 4s ease forwards;
		-webkit-animation : level1 4s ease forwards;
		-moz-animation : level1 4s ease forwards;
		animation-delay:2s;
	}
	.temp{
		height:0px;
		animation: temp1 4s ease forwards;
		-webkit-animation: temp1 4s ease forwards;
		-moz-animation: temp1 4s ease forwards;
		animation-delay:2s;
	}

	@keyframes level1{
        0%{transform:translateY(43px);}

        100%{transform:translateY(32px);}
    }

    @keyframes temp1{
        0%{
        	transform:translateY(43px);
        	height:0px}

        100%{
        	transform:translateY(32px);
        	height:10px;
        }
    }

</style>
<path fill="#A6A6A6" d="M-417,269.6c0,23.8,0,47.7,0,71.5c0,1.1,0.3,1.7,1.2,2.3c7.4,5,8.4,16.1,2.2,22.5c-3.4,3.4-7.4,5.1-12.2,4.6
	c-6.8-0.6-12.2-5.5-13.4-12.2c-1.1-6.3,1.2-11.4,6.3-15.2c0.7-0.5,0.9-1,0.9-1.8c0-7,0-14.1,0-21.1c0-40.7,0-81.3,0-122
	c0-4.4,3-7.2,6.6-7.7c4-0.5,7.6,2.2,8.4,6.2c0.1,0.5,0.1,1,0.1,1.5C-417,222.1-417,245.8-417,269.6z"/>
<path fill="#1E4066" d="M-419.5,348.4c-0.5-0.4-0.7-0.8-0.7-1.4h-8.7c0,0.4-0.1,1-0.5,1.3c-2.9,2.1-4.3,5-3.6,8.7
	c0.7,3.8,3.8,6.6,7.7,7c2.7,0.2,5.1-0.7,7-2.7C-414.7,357.7-415.2,351.3-419.5,348.4z"/>
<circle class="level" fill="#1E4066" cx="-424.5" cy="305" r="4.4"/>
<rect class="temp thermoLevel" x="-428.9" y="305.3" fill="#1E4066" width="8.7" height="42"/>
</svg>
