<svg id="Layer_1" data-name="Layer 1" xmlns="http://www.w3.org/2000/svg" viewBox="0 0 841.89 595.28"><defs><style>.cls-1{fill:#d93a45;}.cls-2{fill:#606060;}</style></defs><title>sun-traits</title><path class="cls-1" d="M491.24,458.14c-5.93-6.61-12.79-10.6-21-11a39.39,39.39,0,0,0-17,3.36c-7.34,3-14.42,8-21.42,13.54a111,111,0,0,1-10.07,7.12c-6.32,3.91-12.65,7-19.08,8a21.54,21.54,0,0,1-16.36-3.8c-4.78-3.4-8.53-8.6-11.88-14.47-3.58-6.27-6.33-13.53-9.31-20.52a74.67,74.67,0,0,0-11.62-19.61,29.82,29.82,0,0,0-13.9-9.54,11.72,11.72,0,0,1-1.59-.21,23.61,23.61,0,0,0-9.93-.14A48.24,48.24,0,0,0,312.34,417,114.08,114.08,0,0,0,299.16,426a1,1,0,0,0-.52,1.22c.94,6.49,1.86,13,2.67,19.55.17,1.35.51,1.07,1.14.54a82.11,82.11,0,0,1,7.48-5.43c6.83-4.43,13.66-7.56,20.46-7a14.8,14.8,0,0,1,6.67,2.38,27.49,27.49,0,0,1,7.14,6.7c3.62,4.65,6.42,10.41,8.92,16.5,4.4,10.73,9.13,21,15.52,29.11,10.06,12.8,22.53,17.26,37.72,12.39,9.37-3,18.48-8.65,27.46-15.54,5.18-4,10.35-7.93,15.71-10.74,13.14-6.88,24.4-5.08,33.13,6.53Z"/><path class="cls-1" d="M466.27,580.47c-7.8-4.24-15.6-5.71-23.46-3.34A39.39,39.39,0,0,0,427.95,586c-5.9,5.31-10.9,12.39-15.66,19.93A111,111,0,0,1,405.18,616c-4.65,5.8-9.57,10.85-15.3,13.93a21.54,21.54,0,0,1-16.69,1.9c-5.65-1.61-10.92-5.24-16-9.66-5.47-4.71-10.5-10.63-15.64-16.22A74.67,74.67,0,0,0,324,591.34,29.82,29.82,0,0,0,307.72,587a11.72,11.72,0,0,1-1.57.33,23.61,23.61,0,0,0-9.4,3.19,48.24,48.24,0,0,0-12.84,11,114.08,114.08,0,0,0-9.39,12.95,1,1,0,0,0-.08,1.33c3.06,5.8,6.1,11.61,9.06,17.53.61,1.21.84.83,1.26.13a82.11,82.11,0,0,1,5.23-7.62c5-6.46,10.35-11.7,16.92-13.47a14.8,14.8,0,0,1,7.08,0,27.49,27.49,0,0,1,9,3.92c5,3.17,9.53,7.66,13.92,12.56,7.74,8.64,15.63,16.72,24.36,22.24,13.76,8.69,27,8.73,39.69-.95,7.82-6,14.52-14.34,20.68-23.84,3.55-5.48,7.1-10.94,11.21-15.38,10.08-10.88,21.07-13.16,33.18-5.13Z"/><path class="cls-2" d="M645.2,273.93c-.95-8.83-4.18-16.08-10.61-21.19a39.39,39.39,0,0,0-15.72-7.18c-7.73-1.83-16.39-1.91-25.3-1.53a111,111,0,0,1-12.34-.11c-7.41-.52-14.37-1.69-20.16-4.66A21.54,21.54,0,0,1,550,226.62c-1.89-5.56-1.9-12-1.19-18.69.76-7.18,2.76-14.68,4.44-22.09a74.67,74.67,0,0,0,2-22.7,29.82,29.82,0,0,0-5.7-15.86,11.72,11.72,0,0,1-1.17-1.1,23.61,23.61,0,0,0-8-5.91A48.24,48.24,0,0,0,524.1,136a114.08,114.08,0,0,0-16-.35,1,1,0,0,0-1.14.69c-3,5.81-6.07,11.62-9.26,17.43-.65,1.19-.21,1.16.61,1.11a82.11,82.11,0,0,1,9.24,0c8.14.39,15.51,1.85,20.71,6.25a14.8,14.8,0,0,1,4,5.82,27.49,27.49,0,0,1,1.88,9.6c.22,5.89-.87,12.2-2.41,18.6-2.7,11.28-4.85,22.36-4.42,32.69.69,16.26,8.19,27.17,23.37,32.1,9.36,3,20.05,3.78,31.37,3.43,6.53-.2,13-.39,19,.47,14.68,2.1,22.81,9.83,23.1,24.36Z"/><path class="cls-1" d="M554.33,353.11c-3.79-8-9.36-14.44-17.1-17.16A39.39,39.39,0,0,0,520,334.32c-7.9.81-16.11,3.58-24.4,6.86a111,111,0,0,1-11.69,4c-7.17,1.94-14.12,3.12-20.57,2.22a21.54,21.54,0,0,1-14.6-8.31c-3.61-4.63-5.72-10.68-7.26-17.26-1.64-7-2.21-14.77-3.06-22.32a74.67,74.67,0,0,0-5.53-22.11,29.82,29.82,0,0,0-10.59-13.11,11.72,11.72,0,0,1-1.46-.66,23.61,23.61,0,0,0-9.48-3,48.24,48.24,0,0,0-16.86,1.31,114.08,114.08,0,0,0-15.22,4.92c-.38.15-.73.21-.85,1-1,6.48-1.92,13-3,19.5-.23,1.34.19,1.17.94.85a82.11,82.11,0,0,1,8.72-3.07c7.81-2.3,15.26-3.35,21.61-.9a14.8,14.8,0,0,1,5.71,4.18,27.49,27.49,0,0,1,4.93,8.46c2.14,5.49,3.18,11.81,3.83,18.36,1.15,11.54,2.76,22.72,6.56,32.33,6,15.14,16.66,23,32.61,22.65,9.84-.2,20.18-3,30.76-7.05,6.1-2.33,12.18-4.64,18.12-5.8,14.56-2.84,24.77,1.8,29.82,15.43Z"/><path class="cls-1" d="M752.75,228.24c1.76-8.7.86-16.59-3.72-23.4a39.39,39.39,0,0,0-12.82-11.59c-6.82-4.07-15.05-6.76-23.66-9.09a111,111,0,0,1-11.73-3.82c-6.91-2.73-13.19-5.94-17.82-10.52a21.54,21.54,0,0,1-6.73-15.39c-.13-5.87,1.79-12,4.5-18.17,2.89-6.62,7.06-13.16,10.9-19.72a74.67,74.67,0,0,0,8.78-21,29.82,29.82,0,0,0-.65-16.84,11.72,11.72,0,0,1-.78-1.4,23.61,23.61,0,0,0-5.82-8,48.24,48.24,0,0,0-14.3-9A114.08,114.08,0,0,0,663.77,55a1,1,0,0,0-1.29.31c-4.64,4.63-9.3,9.25-14.08,13.82-1,.94-.55,1,.25,1.24a82.11,82.11,0,0,1,8.82,2.75c7.64,2.83,14.23,6.44,17.86,12.2a14.8,14.8,0,0,1,2.08,6.77,27.49,27.49,0,0,1-1.11,9.72c-1.57,5.68-4.51,11.36-7.9,17-6,9.94-11.37,19.86-14.07,29.83-4.25,15.71-.38,28.37,12.6,37.65,8,5.72,18,9.65,28.87,12.74,6.28,1.78,12.54,3.56,18,6.19,13.36,6.43,18.78,16.25,14.68,30.2Z"/><path class="cls-1" d="M841.36,242c194.84-.14,352.9,157.69,353,352.52s-157.69,352.9-352.52,353l1,.06c-194.84,0-352.78-157.95-352.78-352.78S648.09,242.07,842.92,242.07"/><path class="cls-1" d="M863.2,217c4-7.94,5.17-15.79,2.53-23.56a39.39,39.39,0,0,0-9.35-14.54c-5.51-5.71-12.76-10.46-20.45-15a111,111,0,0,1-10.32-6.76c-6-4.44-11.17-9.19-14.44-14.81a21.54,21.54,0,0,1-2.47-16.61c1.41-5.7,4.87-11.09,9.1-16.36,4.52-5.63,10.26-10.86,15.68-16.19a74.67,74.67,0,0,0,14-18,29.82,29.82,0,0,0,3.77-16.43,11.72,11.72,0,0,1-.39-1.56,23.61,23.61,0,0,0-3.52-9.28,48.24,48.24,0,0,0-11.44-12.46,114.08,114.08,0,0,0-13.26-8.93,1,1,0,0,0-1.33,0c-5.69,3.25-11.39,6.5-17.21,9.66-1.19.65-.8.87-.09,1.26a82.11,82.11,0,0,1,7.8,5c6.63,4.73,12.05,9.94,14,16.45a14.8,14.8,0,0,1,.23,7.07,27.49,27.49,0,0,1-3.61,9.1c-3,5.07-7.33,9.79-12.08,14.35-8.37,8-16.17,16.19-21.38,25.11-8.21,14.05-7.79,27.29,2.31,39.64,6.23,7.61,14.83,14,24.54,19.85,5.6,3.36,11.17,6.72,15.75,10.68,11.22,9.7,13.88,20.6,6.27,33Z"/></svg>