<svg id="Layer_1" data-name="Layer 1" xmlns="http://www.w3.org/2000/svg" viewBox="0 0 841.89 595.28"><defs><style>.cls-1{fill:#d93a45;}.cls-2{fill:none;stroke:#000;stroke-miterlimit:10;}.cls-3{fill:blue;}</style></defs><title>sun-traits</title><circle class="cls-1" cx="420.94" cy="297.64" r="119.12"/><circle class="cls-2" cx="421.57" cy="297.64" r="127.1"/><path class="cls-1" d="M302.59,251.64a10,10,0,0,0-7.09-3.71,13.3,13.3,0,0,0-5.73,1.13,32,32,0,0,0-7.23,4.57,37.48,37.48,0,0,1-3.4,2.41,17.66,17.66,0,0,1-6.44,2.7,7.27,7.27,0,0,1-5.52-1.28,14.9,14.9,0,0,1-4-4.89,67.15,67.15,0,0,1-3.14-6.93A25.21,25.21,0,0,0,256.1,239a10.07,10.07,0,0,0-4.69-3.22,4,4,0,0,1-.54-.07,8,8,0,0,0-3.35,0,16.29,16.29,0,0,0-5.33,2,38.52,38.52,0,0,0-4.45,3.06.35.35,0,0,0-.18.41c.32,2.19.63,4.38.9,6.6.06.45.17.36.39.18a27.72,27.72,0,0,1,2.52-1.83c2.31-1.5,4.61-2.55,6.91-2.37a5,5,0,0,1,2.25.8,9.28,9.28,0,0,1,2.41,2.26,23.78,23.78,0,0,1,3,5.57,41.26,41.26,0,0,0,5.24,9.83c3.4,4.32,7.61,5.83,12.74,4.18a31.49,31.49,0,0,0,9.27-5.25,38.14,38.14,0,0,1,5.31-3.63c4.44-2.32,8.24-1.72,11.19,2.21Z"/><path class="cls-1" d="M294.16,292.95a10,10,0,0,0-7.92-1.13,13.3,13.3,0,0,0-5,3,32,32,0,0,0-5.29,6.73,37.48,37.48,0,0,1-2.4,3.41,17.66,17.66,0,0,1-5.17,4.7,7.27,7.27,0,0,1-5.64.64,14.9,14.9,0,0,1-5.42-3.26,67.15,67.15,0,0,1-5.28-5.48,25.21,25.21,0,0,0-5.91-4.93,10.07,10.07,0,0,0-5.5-1.46,4,4,0,0,1-.53.11,8,8,0,0,0-3.17,1.08,16.29,16.29,0,0,0-4.34,3.72,38.52,38.52,0,0,0-3.17,4.37.35.35,0,0,0,0,.45c1,2,2.06,3.92,3.06,5.92.2.41.28.28.43,0a27.72,27.72,0,0,1,1.77-2.57c1.67-2.18,3.49-4,5.71-4.55a5,5,0,0,1,2.39,0,9.28,9.28,0,0,1,3,1.32,23.78,23.78,0,0,1,4.7,4.24,41.26,41.26,0,0,0,8.23,7.51c4.65,2.94,9.12,2.95,13.4-.32a31.49,31.49,0,0,0,7-8,38.14,38.14,0,0,1,3.79-5.19c3.4-3.67,7.11-4.44,11.2-1.73Z"/><path class="cls-1" d="M354.18,189.28a10,10,0,0,0-3.58-7.16,13.3,13.3,0,0,0-5.31-2.43,32,32,0,0,0-8.54-.52,37.48,37.48,0,0,1-4.17,0,17.66,17.66,0,0,1-6.81-1.57A7.27,7.27,0,0,1,322,173.3a14.9,14.9,0,0,1-.4-6.31,67.15,67.15,0,0,1,1.5-7.46,25.21,25.21,0,0,0,.69-7.66,10.07,10.07,0,0,0-1.93-5.36,4,4,0,0,1-.39-.37,8,8,0,0,0-2.69-2,16.29,16.29,0,0,0-5.52-1.45,38.52,38.52,0,0,0-5.4-.12.35.35,0,0,0-.38.23c-1,2-2.05,3.93-3.13,5.88-.22.4-.07.39.21.38a27.72,27.72,0,0,1,3.12,0c2.75.13,5.24.62,7,2.11a5,5,0,0,1,1.36,2,9.28,9.28,0,0,1,.63,3.24,23.78,23.78,0,0,1-.81,6.28,41.26,41.26,0,0,0-1.49,11c.23,5.49,2.77,9.17,7.89,10.84a31.49,31.49,0,0,0,10.59,1.16,38.14,38.14,0,0,1,6.42.16c5,.71,7.7,3.32,7.8,8.23Z"/><path class="cls-1" d="M323.5,216a10.5,10.5,0,0,0-5.78-5.8,13.3,13.3,0,0,0-5.81-.55,32,32,0,0,0-8.24,2.31,37.48,37.48,0,0,1-3.95,1.33,17.66,17.66,0,0,1-6.95.75,7.27,7.27,0,0,1-4.93-2.81,14.9,14.9,0,0,1-2.45-5.83,67.15,67.15,0,0,1-1-7.54,25.21,25.21,0,0,0-1.87-7.46,10.07,10.07,0,0,0-3.58-4.43,4,4,0,0,1-.49-.22,8,8,0,0,0-3.2-1,16.29,16.29,0,0,0-5.69.44,38.52,38.52,0,0,0-5.14,1.66c-.13.05-.25.07-.29.35-.32,2.19-.65,4.38-1,6.58-.08.45.06.39.32.29a27.72,27.72,0,0,1,2.94-1c2.64-.78,5.15-1.13,7.3-.3a5,5,0,0,1,1.93,1.41,9.28,9.28,0,0,1,1.66,2.86,23.78,23.78,0,0,1,1.29,6.2,41.26,41.26,0,0,0,2.21,10.91c2,5.11,5.62,7.76,11,7.65a31.49,31.49,0,0,0,10.39-2.38,38.14,38.14,0,0,1,6.12-2c4.92-1,8.36.61,10.07,5.21Z"/><path class="cls-1" d="M298.07,329.55a10,10,0,0,0-7.9,1.27,13.3,13.3,0,0,0-3.91,4.34,32,32,0,0,0-3.06,8,37.48,37.48,0,0,1-1.29,4,17.66,17.66,0,0,1-3.54,6,7.27,7.27,0,0,1-5.19,2.28,14.9,14.9,0,0,1-6.14-1.51,67.15,67.15,0,0,1-6.66-3.67,25.21,25.21,0,0,0-7.1-3,10.07,10.07,0,0,0-5.69.23,4,4,0,0,1-.47.26,8,8,0,0,0-2.71,2,16.29,16.29,0,0,0-3,4.83,38.52,38.52,0,0,0-1.73,5.11.35.35,0,0,0,.11.44c1.56,1.56,3.13,3.14,4.67,4.75.32.33.35.18.42-.08a27.72,27.72,0,0,1,.92-3c1-2.58,2.17-4.81,4.11-6a5,5,0,0,1,2.28-.7,9.28,9.28,0,0,1,3.28.37,23.78,23.78,0,0,1,5.75,2.66,41.26,41.26,0,0,0,10.08,4.74c5.31,1.43,9.58.12,12.71-4.27a31.49,31.49,0,0,0,4.29-9.75,38.14,38.14,0,0,1,2.08-6.08c2.17-4.52,5.48-6.35,10.19-5Z"/><path class="cls-1" d="M315.08,367.92a10,10,0,0,0-7,3.89,13.3,13.3,0,0,0-2.19,5.41,32,32,0,0,0-.15,8.56,37.48,37.48,0,0,1,.14,4.16,17.66,17.66,0,0,1-1.28,6.87,7.27,7.27,0,0,1-4.1,3.92,14.9,14.9,0,0,1-6.29.67,67.15,67.15,0,0,1-7.52-1.17,25.21,25.21,0,0,0-7.69-.35,10.07,10.07,0,0,0-5.27,2.16,4,4,0,0,1-.35.41,8,8,0,0,0-1.88,2.78,16.29,16.29,0,0,0-1.21,5.58,38.52,38.52,0,0,0,.12,5.4.35.35,0,0,0,.25.37c2,.94,4,1.88,6,2.87.41.2.4.05.37-.22a27.72,27.72,0,0,1-.15-3.12c0-2.75.4-5.26,1.8-7.08a5,5,0,0,1,1.91-1.44,9.28,9.28,0,0,1,3.21-.77,23.78,23.78,0,0,1,6.31.54,41.26,41.26,0,0,0,11.09,1c5.48-.47,9-3.16,10.49-8.35a31.49,31.49,0,0,0,.7-10.63,38.14,38.14,0,0,1-.12-6.42c.49-5,3-7.84,7.88-8.15Z"/><ellipse class="cls-3" cx="485.53" cy="185.82" rx="16.11" ry="16.88"/><path class="cls-1" d="M390.5,173.85a10,10,0,0,0-1.26-7.9,13.3,13.3,0,0,0-4.33-3.91,32,32,0,0,0-8-3.07,37.48,37.48,0,0,1-4-1.29,17.66,17.66,0,0,1-6-3.55,7.27,7.27,0,0,1-2.27-5.2,14.9,14.9,0,0,1,1.52-6.14,67.15,67.15,0,0,1,3.68-6.66,25.21,25.21,0,0,0,3-7.1,10.07,10.07,0,0,0-.22-5.69,4,4,0,0,1-.26-.47,8,8,0,0,0-2-2.72,16.29,16.29,0,0,0-4.83-3,38.52,38.52,0,0,0-5.11-1.74.35.35,0,0,0-.44.11c-1.57,1.56-3.14,3.12-4.75,4.67-.33.32-.19.35.08.42a27.72,27.72,0,0,1,3,.93c2.58,1,4.8,2.17,6,4.12a5,5,0,0,1,.7,2.28,9.28,9.28,0,0,1-.37,3.28,23.78,23.78,0,0,1-2.67,5.74A41.26,41.26,0,0,0,357.26,147c-1.44,5.31-.13,9.58,4.25,12.71a31.49,31.49,0,0,0,9.75,4.3,38.14,38.14,0,0,1,6.08,2.09c4.51,2.17,6.34,5.49,5,10.2Z"/><path class="cls-1" d="M431,170.39a10,10,0,0,0,1.28-7.9,13.3,13.3,0,0,0-2.89-5.07,32,32,0,0,0-6.62-5.42,37.48,37.48,0,0,1-3.36-2.47,17.66,17.66,0,0,1-4.6-5.26,7.27,7.27,0,0,1-.53-5.65,14.9,14.9,0,0,1,3.37-5.35,67.15,67.15,0,0,1,5.58-5.17,25.21,25.21,0,0,0,5-5.81,10.07,10.07,0,0,0,1.57-5.47,4,4,0,0,1-.1-.53,8,8,0,0,0-1-3.19,16.29,16.29,0,0,0-3.63-4.41,38.52,38.52,0,0,0-4.31-3.25.35.35,0,0,0-.45,0c-2,1-4,2-6,2.94-.41.2-.29.28-.05.42a27.72,27.72,0,0,1,2.54,1.82c2.15,1.72,3.88,3.57,4.44,5.8a5,5,0,0,1,0,2.39,9.28,9.28,0,0,1-1.38,3,23.78,23.78,0,0,1-4.33,4.62,41.26,41.26,0,0,0-7.67,8.08c-3,4.59-3.12,9.06.06,13.41a31.49,31.49,0,0,0,7.91,7.14,38.14,38.14,0,0,1,5.12,3.89c3.61,3.48,4.3,7.2,1.51,11.24Z"/><path class="cls-1" d="M470.56,179.74a10,10,0,0,0,3.71-7.09,13.3,13.3,0,0,0-1.13-5.73,32,32,0,0,0-4.57-7.23,37.48,37.48,0,0,1-2.41-3.4,17.66,17.66,0,0,1-2.7-6.44,7.27,7.27,0,0,1,1.28-5.52,14.9,14.9,0,0,1,4.88-4,67.15,67.15,0,0,1,6.93-3.14,25.21,25.21,0,0,0,6.62-3.92,10.07,10.07,0,0,0,3.22-4.69,4,4,0,0,1,.07-.54,8,8,0,0,0,0-3.35,16.29,16.29,0,0,0-2.05-5.33,38.52,38.52,0,0,0-3.06-4.45.35.35,0,0,0-.41-.18c-2.19.32-4.38.63-6.6.9-.45.06-.36.17-.18.39a27.72,27.72,0,0,1,1.83,2.52c1.5,2.31,2.55,4.61,2.38,6.91a5,5,0,0,1-.8,2.25,9.28,9.28,0,0,1-2.26,2.41,23.78,23.78,0,0,1-5.57,3,41.26,41.26,0,0,0-9.83,5.24c-4.32,3.4-5.83,7.61-4.18,12.74a31.49,31.49,0,0,0,5.25,9.27,38.14,38.14,0,0,1,3.63,5.31c2.32,4.44,1.81,8.19-2.11,11.14Z"/><path class="cls-1" d="M343.32,398.39a10,10,0,0,0-5.46,5.85,13.3,13.3,0,0,0-.43,5.82,32,32,0,0,0,2.49,8.19,37.48,37.48,0,0,1,1.42,3.92,17.66,17.66,0,0,1,.89,6.93,7.27,7.27,0,0,1-2.7,5,14.9,14.9,0,0,1-5.78,2.57,67.15,67.15,0,0,1-7.52,1.19,25.21,25.21,0,0,0-7.42,2,10.07,10.07,0,0,0-4.35,3.67,4,4,0,0,1-.21.5,8,8,0,0,0-.93,3.22,16.29,16.29,0,0,0,.56,5.68,38.52,38.52,0,0,0,1.77,5.1.35.35,0,0,0,.35.28c2.2.28,4.39.56,6.6.88.45.07.39-.07.28-.32a27.72,27.72,0,0,1-1.1-2.92c-.83-2.62-1.24-5.13-.45-7.29a5,5,0,0,1,1.37-2,9.28,9.28,0,0,1,2.82-1.72,23.78,23.78,0,0,1,6.17-1.42,41.26,41.26,0,0,0,10.87-2.44c5.07-2.13,7.64-5.78,7.42-11.17a31.49,31.49,0,0,0-2.6-10.33,38.14,38.14,0,0,1-2.09-6.08c-1.06-4.89.43-8.38,5-10.18Z"/><path class="cls-1" d="M379.38,418.12a10,10,0,0,0-3.32,7.28,13.3,13.3,0,0,0,1.45,5.66,32,32,0,0,0,5,7,37.48,37.48,0,0,1,2.59,3.26,17.66,17.66,0,0,1,3.05,6.28,7.27,7.27,0,0,1-1,5.59,14.9,14.9,0,0,1-4.66,4.27,67.15,67.15,0,0,1-6.75,3.52,25.21,25.21,0,0,0-6.4,4.28,10.07,10.07,0,0,0-3,4.86,4,4,0,0,1,0,.54,8,8,0,0,0,.14,3.35,16.29,16.29,0,0,0,2.34,5.21,38.52,38.52,0,0,0,3.3,4.28.35.35,0,0,0,.42.15c2.17-.44,4.34-.87,6.54-1.26.45-.08.35-.19.16-.4a27.72,27.72,0,0,1-2-2.42c-1.62-2.22-2.8-4.47-2.75-6.77a5,5,0,0,1,.68-2.29,9.28,9.28,0,0,1,2.13-2.53,23.78,23.78,0,0,1,5.4-3.31,41.26,41.26,0,0,0,9.53-5.77c4.13-3.63,5.4-7.91,3.48-12.95a31.49,31.49,0,0,0-5.75-9,38.14,38.14,0,0,1-3.91-5.1c-2.56-4.3-2.25-8.08,1.5-11.24Z"/><path class="cls-1" d="M419.23,425.21a10,10,0,0,0-.86,8,13.3,13.3,0,0,0,3.15,4.91,32,32,0,0,0,6.9,5.06,37.48,37.48,0,0,1,3.48,2.28,17.66,17.66,0,0,1,4.87,5,7.27,7.27,0,0,1,.83,5.61,14.9,14.9,0,0,1-3.08,5.52,67.15,67.15,0,0,1-5.3,5.46,25.21,25.21,0,0,0-4.72,6.07,10.07,10.07,0,0,0-1.28,5.55,4,4,0,0,1,.13.53,8,8,0,0,0,1.19,3.14,16.29,16.29,0,0,0,3.86,4.21,38.52,38.52,0,0,0,4.48,3,.35.35,0,0,0,.45,0c1.92-1.1,3.85-2.19,5.81-3.26.4-.22.27-.29,0-.43a27.72,27.72,0,0,1-2.63-1.68c-2.24-1.6-4.07-3.36-4.74-5.56a5,5,0,0,1-.08-2.39,9.28,9.28,0,0,1,1.22-3.07,23.78,23.78,0,0,1,4.08-4.84,41.26,41.26,0,0,0,7.23-8.47c2.78-4.74,2.64-9.21-.77-13.38a31.49,31.49,0,0,0-8.28-6.71,38.14,38.14,0,0,1-5.32-3.61c-3.79-3.28-4.68-7-2.11-11.14Z"/></svg>