<svg id="Layer_1" data-name="Layer 1" xmlns="http://www.w3.org/2000/svg" viewBox="0 0 841.89 595.28"><defs><style>.cls-1{fill:#fefefe;}.cls-2{fill:#017efe;}</style></defs><title>sun-traits</title><path class="cls-1" d="M-1329.89,442.5q0-478-.09-956c0-3.75.84-4.59,4.59-4.59q955.5.14,1911,0c3.75,0,4.59.84,4.59,4.59q-.14,956,0,1912c0,3.75-.84,4.59-4.59,4.59q-955.5-.15-1911,0c-3.75,0-4.59-.84-4.59-4.59Q-1329.83,920.5-1329.89,442.5ZM570.68,711.7c-.32-1.36-1.54-2-2.52-2.8-4.13-3.31-8.35-6.51-12.48-9.83-24.16-19.45-49.66-36.84-77.59-50.5-24.23-11.85-49.56-19.84-76.58-21.56-31.7-2-61.68,5.21-90.36,18.15-30.19,13.62-57.45,32-83.26,52.63-11,8.74-21.34,18.22-32.56,26.59-13,9.74-26.11,19.51-40,28-27,16.51-54.74,31.14-86.17,38-11,2.41-22,4.74-33.14,5.44a196.72,196.72,0,0,1-70.59-8.61c-43.71-13.4-81.14-37.86-116.49-65.93-18.93-15-37.4-30.62-57.82-43.67-30.37-19.4-62.39-34.86-97.77-43a228.66,228.66,0,0,0-80-4.33,262.63,262.63,0,0,0-72.56,20.35c-32.8,14.27-62.25,33.76-89.81,56.22-14.13,11.51-28.12,23.27-43,33.7-22.11,15.48-45.24,29.39-70.37,39.7-17.67,7.25-35.84,12.51-54.77,14.67-38.16,4.34-73.95-4.12-108.18-20.69-34.79-16.84-65.4-39.85-95-64.33s-60.66-45.93-95.74-61.5c-28.88-12.81-59.05-20-90.68-20.17a197.53,197.53,0,0,0-46.33,5.54c-25.67,6.06-49.64,16.18-72.52,29.2-23.27,13.25-44.78,28.94-65.54,45.76-2.49,2-2.19,3.46-.61,5.79,13,19.18,26,38.35,38.74,57.71,2.71,4.12,4.48,4.24,8.19,1.17,23.7-19.68,48.61-37.48,77.2-49.6,27.72-11.75,55.92-17.55,86.18-11.15a202.5,202.5,0,0,1,42.93,14c24.78,11.37,46.81,27.14,67.9,44.06,13.64,10.94,26.92,22.38,41,32.69,34.32,25.06,70.48,46.81,111.17,60.33,21.86,7.26,44,12.5,67.09,13.38,17.86.68,35.59.66,53.3-2.41a276.7,276.7,0,0,0,28.92-6.26,336.1,336.1,0,0,0,71.78-30.33c30-16.79,57.83-36.65,84.26-58.53,25.89-21.43,53-40.78,84.28-53.86a194.1,194.1,0,0,1,65.46-14.89c5.81-.3,11.53.67,17.28,1a152.33,152.33,0,0,1,25.36,3.68c18.36,4.13,35.61,11.22,52.17,20.06a339.62,339.62,0,0,1,54.93,37c16.06,13.12,32.19,26.19,49.22,38.06,31.45,21.91,64.57,40.86,101,53.21,23.83,8.08,48.24,14,73.7,14.34,15.08.18,30.16.55,45.16-1.48a281.55,281.55,0,0,0,46.21-9.87,359.12,359.12,0,0,0,67-29.06c34.94-19.32,66.33-43.58,97.1-68.8,23.54-19.3,48-37.25,76.46-49.08,21.16-8.81,42.65-13.44,65.79-9.11,13.41,2.51,26.25,6.12,38.54,11.93C474,735.69,498.08,754,521.58,773c5.07,4.11,5,4.38,8.72-1.11q19.48-28.75,38.83-57.59C569.68,713.5,570.14,712.61,570.68,711.7ZM-1249.47,554.62a377.89,377.89,0,0,1,30.3-23.62c30.63-21.29,62.49-39.21,101-42.41a145.78,145.78,0,0,1,37,1.56c21.06,3.63,40.56,12.15,59.16,22.73,21.55,12.25,41.37,27,60.33,42.79,14.59,12.16,29.47,23.9,45,34.72,29.06,20.23,59.72,37.72,93.26,49.49,24.08,8.46,48.77,14.23,74.5,15,22.05.69,44-.34,65.44-5.29C-650,641.89-618.68,628.43-589,611c27.45-16.14,53-34.84,77.48-55.12,20.89-17.33,42.78-33.14,66.95-45.53a203.14,203.14,0,0,1,77.52-22c14.39-1.12,28.56,1,42.49,3.81,18,3.62,35.07,10.2,51.52,18.53a327.08,327.08,0,0,1,46.82,29.35c14.1,10.45,27.24,22.21,41.14,33a564.67,564.67,0,0,0,47.79,33A360.22,360.22,0,0,0-53.5,644.69c20.64,6.36,41.87,11.08,63.75,11.12,13.9,0,27.79.89,41.7-1a346.29,346.29,0,0,0,37-6.86,298.75,298.75,0,0,0,51.17-18.1,442.28,442.28,0,0,0,69.46-40c18.62-13,36.32-27.18,53.85-41.61,18.61-15.33,38-29.62,59.08-41.47,17.08-9.6,35.14-16.89,54.5-19.42,15.56-2,31.2-.25,46.5,4.23A184,184,0,0,1,465.2,510a302.25,302.25,0,0,1,32.73,22.17c8.68,6.77,17.67,13.14,26.14,20.16,2.64,2.19,3.38,1.39,4.78-.71q20.28-30.28,40.67-60.49c1.23-1.81,1.29-2.46-.48-3.81-5.4-4.12-10.56-8.54-15.9-12.74-26.91-21.15-55.09-40.31-86.68-53.93C434.62,407,401.62,400.85,367,406c-28.06,4.2-53.83,14.74-78.4,28.51-29.63,16.61-56.23,37.46-82.4,58.94-31,25.46-63.93,48-101.28,63.35C77,568.31,48.06,574.66,17.77,573.61-13.52,572.52-42.92,564-71,550.46c-33.57-16.13-63.5-37.73-92-61.4-26-21.55-53.53-40.74-84-55.6-66.39-32.42-134-36.72-203-8.86-36.83,14.86-69.64,36.24-100.11,61.39-29.1,24-59.22,46.45-93.08,63.5C-699,577.56-755.7,582.15-813.8,557c-35-15.16-66.17-36.49-95.41-60.64-34.8-28.75-70.82-55.44-112.9-72.85a226.77,226.77,0,0,0-73.34-17.35,193.9,193.9,0,0,0-37.8,1.71c-34.41,4.66-65.81,17.25-95.66,34.54-22.55,13.06-43.17,28.75-63.48,44.92-.86.69-2.29,1.47-.79,2.66,1.7,1.34,1.86,3.43,3,5Q-1269.81,524.75-1249.47,554.62Zm144.35-371.34c-2.81.24-5.61.69-8.42.69-17.4,0-34.25,3.38-50.93,8-25.79,7.16-49.61,18.77-72.35,32.61-19.36,11.79-37.33,25.58-54.92,39.85-1.32,1.07-2.7,1.83-1,4.31,13.71,19.71,27.36,39.47,40.51,59.55,2.7,4.12,4.07,2.93,6.6.75a348.62,348.62,0,0,1,30.76-23.53c28.83-19.83,59.46-35.53,94.9-39.62,12.56-1.45,24.87-.45,37.34,1.85a187.85,187.85,0,0,1,45.67,15.11c24.89,11.64,47.1,27.46,68.23,44.6,37.24,30.2,75.49,58.6,119.28,78.86,69,31.92,138.84,35.44,209.83,7.13,43.77-17.45,82.59-43.06,119-72.5,21-17,42-33.87,65.56-47.31,57.72-32.91,116.63-37.53,177.2-8.21C-249.67,299-225,317.6-200.95,337.3c34.24,28.11,70.73,52.75,111.37,70.88,67.57,30.15,136.22,34.21,206.1,8.74,46.87-17.08,88.2-43.69,126.89-74.66,24.06-19.26,47.49-39.33,74.22-55C338.55,275,360.48,265.67,385,264.16c25.78-1.59,49.26,6.31,71.66,18.25,24.34,13,45.65,30.21,66.82,47.61,2.15,1.77,3.37,2.22,5-.28q20.44-30.45,41-60.82c1.25-1.85,1.11-3-.77-4.39-4.13-3-8.1-6.28-12.1-9.49C529,232.79,499.76,212.89,467,198.67c-21.8-9.47-44.5-15.51-68.32-16.6-33.43-1.53-64.66,7.12-94.45,21.46-27.84,13.4-53,31-77.24,50.09-14.55,11.45-28.55,23.58-43.48,34.57C156.14,308.33,127.38,326,95.44,338c-33.54,12.63-68.15,16.7-103.49,10.8-34.15-5.7-65.14-19.91-94.54-37.86-25.93-15.83-49.25-35.14-72.92-54-27.68-22.08-57.39-40.85-90.34-54.13-39.36-15.86-79.93-22.67-122.4-16.95-28.8,3.88-55.93,12.63-82.07,25-33.35,15.83-62.65,37.65-90.91,61A480.08,480.08,0,0,1-602.93,303c-26.92,17.74-55,33-86.53,41.52a179.62,179.62,0,0,1-88.84,1.9c-29.13-6.7-55.42-19.93-80.62-35.66-26.92-16.8-51-37.39-75.75-57-26.57-21-55-38.94-86.3-52.13C-1047.89,190.3-1075.86,183.88-1105.12,183.28Z"/><path class="cls-2" d="M-1249.47,554.62q-20.41-29.89-40.73-59.58c-1.11-1.62-1.27-3.71-3-5-1.51-1.19-.07-2,.79-2.66,20.31-16.17,40.93-31.86,63.48-44.92,29.84-17.29,61.24-29.88,95.66-34.54a193.9,193.9,0,0,1,37.8-1.71,226.77,226.77,0,0,1,73.34,17.35c42.08,17.41,78.1,44.1,112.9,72.85C-880,520.52-848.83,541.86-813.8,557c58.1,25.14,114.82,20.55,170.58-7.53,33.86-17,64-39.48,93.08-63.5,30.47-25.15,63.28-46.53,100.11-61.39C-381,396.74-313.38,401-247,433.46c30.42,14.86,58,34,84,55.6,28.54,23.66,58.48,45.26,92,61.4,28.08,13.5,57.48,22.06,88.77,23.15,30.29,1.05,59.23-5.3,87.13-16.78,37.35-15.36,70.26-37.89,101.28-63.35,26.17-21.48,52.76-42.33,82.4-58.94,24.57-13.77,50.34-24.31,78.4-28.51,34.65-5.18,67.65.94,99.48,14.66,31.59,13.61,59.77,32.77,86.68,53.93,5.34,4.2,10.5,8.63,15.9,12.74,1.78,1.35,1.71,2,.48,3.81q-20.47,30.15-40.67,60.49c-1.41,2.1-2.14,2.9-4.78.71-8.47-7-17.46-13.39-26.14-20.16A302.25,302.25,0,0,0,465.2,510a184,184,0,0,0-41.65-18.5c-15.31-4.48-30.95-6.26-46.5-4.23-19.36,2.53-37.42,9.82-54.5,19.42-21.09,11.85-40.46,26.15-59.08,41.47-17.53,14.43-35.23,28.61-53.85,41.61a442.28,442.28,0,0,1-69.46,40A298.75,298.75,0,0,1,89,647.9a346.29,346.29,0,0,1-37,6.86c-13.9,1.93-27.79,1.07-41.7,1-21.88,0-43.11-4.77-63.75-11.12A360.22,360.22,0,0,1-137.33,606a564.67,564.67,0,0,1-47.79-33c-13.9-10.74-27-22.5-41.14-33a327.08,327.08,0,0,0-46.82-29.35c-16.45-8.33-33.53-14.91-51.52-18.53-13.93-2.8-28.1-4.93-42.49-3.81a203.14,203.14,0,0,0-77.52,22c-24.16,12.38-46.05,28.2-66.95,45.53-24.44,20.28-50,39-77.48,55.12-29.65,17.43-60.92,30.9-94.41,38.63-21.45,5-43.39,6-65.44,5.29-25.73-.8-50.42-6.58-74.5-15-33.54-11.78-64.2-29.26-93.26-49.49-15.54-10.82-30.42-22.56-45-34.72-19-15.8-38.78-30.53-60.33-42.79-18.59-10.57-38.1-19.1-59.16-22.73a145.78,145.78,0,0,0-37-1.56c-38.5,3.21-70.37,21.12-101,42.41A377.89,377.89,0,0,0-1249.47,554.62Z"/><path class="cls-2" d="M-1105.12,183.28c29.26.6,57.23,7,84.14,18.36,31.3,13.19,59.73,31.14,86.3,52.13,24.8,19.6,48.84,40.19,75.75,57,25.19,15.72,51.49,29,80.62,35.66a179.62,179.62,0,0,0,88.84-1.9c31.55-8.56,59.61-23.78,86.53-41.52a480.08,480.08,0,0,0,41.71-31.09c28.26-23.37,57.56-45.19,90.91-61,26.14-12.4,53.27-21.15,82.07-25,42.47-5.72,83,1.08,122.4,16.95,33,13.28,62.67,32.05,90.34,54.13,23.67,18.88,47,38.18,72.92,54,29.4,17.95,60.38,32.15,94.54,37.86,35.34,5.9,70,1.83,103.49-10.8,31.94-12,60.7-29.68,88.09-49.82,14.94-11,28.94-23.12,43.48-34.57,24.21-19.06,49.4-36.69,77.24-50.09,29.79-14.34,61-23,94.45-21.46,23.82,1.09,46.53,7.13,68.32,16.6C499.76,212.89,529,232.79,556.66,255c4,3.21,8,6.46,12.1,9.49,1.88,1.38,2,2.54.77,4.39q-20.53,30.38-41,60.82c-1.68,2.5-2.89,2.05-5,.28-21.17-17.4-42.48-34.64-66.82-47.61-22.4-11.94-45.88-19.83-71.66-18.25-24.54,1.51-46.48,10.89-67.39,23.13-26.73,15.64-50.16,35.72-74.22,55-38.69,31-80,57.58-126.89,74.66C46.64,442.39-22,438.33-89.58,408.18c-40.64-18.13-77.12-42.77-111.37-70.88-24-19.71-48.72-38.26-76.84-51.87-60.58-29.32-119.48-24.7-177.2,8.21C-478.56,307.08-499.55,324-520.55,341c-36.43,29.44-75.26,55-119,72.5-71,28.31-140.83,24.79-209.83-7.13-43.79-20.26-82-48.66-119.28-78.86-21.14-17.14-43.34-33-68.23-44.6a187.85,187.85,0,0,0-45.67-15.11c-12.47-2.3-24.78-3.3-37.34-1.85-35.44,4.09-66.06,19.8-94.9,39.62A348.62,348.62,0,0,0-1245.59,329c-2.52,2.19-3.9,3.37-6.6-.75-13.15-20.08-26.8-39.84-40.51-59.55-1.73-2.49-.35-3.24,1-4.31,17.59-14.27,35.55-28.06,54.92-39.85,22.74-13.84,46.55-25.45,72.35-32.61,16.67-4.63,33.52-8,50.93-8C-1110.73,184-1107.92,183.52-1105.12,183.28Z"/></svg>