<?xml version="1.0" encoding="utf-8"?>
<!-- Generator: Adobe Illustrator 19.1.1, SVG Export Plug-In . SVG Version: 6.00 Build 0)  -->
<svg version="1.1" id="Calque_1" xmlns="http://www.w3.org/2000/svg" xmlns:xlink="http://www.w3.org/1999/xlink" x="0px" y="0px"
	 viewBox="0 0 1920 1080" style="enable-background:new 0 0 1920 1080;" xml:space="preserve">
<style type="text/css">
	.st0{clip-path:url(#SVGID_2_);fill:#565656;}
	.st1{clip-path:url(#SVGID_2_);fill:#CECECC;}
	.st2{clip-path:url(#SVGID_2_);fill:none;}
</style>
<g>
	<defs>
		<rect id="SVGID_1_" width="1920" height="1080"/>
	</defs>
	<clipPath id="SVGID_2_">
		<use xlink:href="#SVGID_1_"  style="overflow:visible;"/>
	</clipPath>
	<circle class="st0" cx="1702.7" cy="169.9" r="149.1"/>
	<path class="st1" d="M-266.8,1079.4L31.1,492.9c2.3-4.5,9.8-4.5,12.1,0L341,1079.4c1.8,3.6-1.3,7.7-6,7.7h-595.6
		C-265.4,1087-268.6,1083-266.8,1079.4z"/>
	<path class="st1" d="M421.6,1077.3l456.9-745.6c3.5-5.7,15.1-5.7,18.6,0l456.9,745.6c2.8,4.6-2.1,9.7-9.3,9.7H430.9
		C423.7,1087,418.8,1081.9,421.6,1077.3z"/>
	<path class="st1" d="M-60.6,1075.4L466.9,183c4-6.8,17.4-6.8,21.4,0l527.5,892.4c3.3,5.5-2.4,11.7-10.7,11.7h-1055
		C-58.2,1087-63.9,1080.9-60.6,1075.4z"/>
	<path class="st1" d="M744.5,1073.6L1313.1,41.4c4.3-7.9,18.8-7.9,23.1,0l568.6,1032.1c3.5,6.4-2.6,13.5-11.5,13.5H756.1
		C747.1,1087,741,1080,744.5,1073.6z"/>
	<path class="st1" d="M1257.5,1075.7l470.3-865.1c3.6-6.6,15.5-6.6,19.1,0l470.3,865.1c2.9,5.4-2.1,11.3-9.6,11.3h-940.6
		C1259.6,1087,1254.6,1081.1,1257.5,1075.7z"/>
	<rect x="-203.3" y="-108.2" class="st2" width="2326.4" height="1195.3"/>
</g>
</svg>
