<svg id="Layer_1" data-name="Layer 1" xmlns="http://www.w3.org/2000/svg" viewBox="0 0 302.4 160.92"><defs><style>.cls-1{fill:#feb7ce;}</style></defs><title>cloud</title><path class="cls-1" d="M111.35,140.57H81.66a13.68,13.68,0,0,1-7.33-2,12.39,12.39,0,0,1-5.15-6.22,13.69,13.69,0,0,1-.85-6.07,11.57,11.57,0,0,1,1.56-4.82,13.84,13.84,0,0,1,5-5,6.65,6.65,0,0,0,1.41-.8,2,2,0,0,0,.59-1.35,18.68,18.68,0,0,1,2.42-8.24,16.47,16.47,0,0,1,6.1-6.12,17.49,17.49,0,0,1,6.74-2.18,20.28,20.28,0,0,1,6.64.53,13,13,0,0,1,1.65.56,1.43,1.43,0,0,0,1.75-.53,25.45,25.45,0,0,1,5.52-5.4,22.23,22.23,0,0,1,7.46-3.41,19.15,19.15,0,0,1,6.2-.49,21.79,21.79,0,0,1,7.49,2,21.25,21.25,0,0,1,6.74,4.8,20.46,20.46,0,0,1,4.05,6.47,26.56,26.56,0,0,1,1.22,4.16,12.73,12.73,0,0,1,.27,2.54,35.65,35.65,0,0,1-.09,4.73c-.09.77.16,1,.94,1.06a13.13,13.13,0,0,1,7.74,3.12A12.57,12.57,0,0,1,154,130.13a12.25,12.25,0,0,1-2.55,5.55,12.77,12.77,0,0,1-5.84,4.1,17.73,17.73,0,0,1-5.86.8q-14.2,0-28.4,0Z" transform="translate(-68.29 -12.34)"/><path class="cls-1" d="M315.85,78.25H277.9a17.48,17.48,0,0,1-9.37-2.54,15.83,15.83,0,0,1-6.58-8A17.5,17.5,0,0,1,260.87,60a14.79,14.79,0,0,1,2-6.17,17.7,17.7,0,0,1,6.36-6.34,8.5,8.5,0,0,0,1.81-1,2.57,2.57,0,0,0,.76-1.73,23.88,23.88,0,0,1,3.1-10.53,21.06,21.06,0,0,1,7.8-7.82,22.36,22.36,0,0,1,8.61-2.79,25.92,25.92,0,0,1,8.49.68,16.64,16.64,0,0,1,2.11.72,1.83,1.83,0,0,0,2.24-.67,32.53,32.53,0,0,1,7.06-6.9A28.42,28.42,0,0,1,320.75,13a24.48,24.48,0,0,1,7.92-.62A27.85,27.85,0,0,1,338.25,15a27.17,27.17,0,0,1,8.62,6.13A26.15,26.15,0,0,1,352,29.36a34,34,0,0,1,1.56,5.31,16.27,16.27,0,0,1,.34,3.25,45.57,45.57,0,0,1-.11,6c-.12,1,.21,1.28,1.21,1.35a16.78,16.78,0,0,1,9.89,4,16.07,16.07,0,0,1,5.42,15.59A15.65,15.65,0,0,1,367.09,72a16.32,16.32,0,0,1-7.46,5.23,22.66,22.66,0,0,1-7.48,1q-18.15,0-36.3,0Z" transform="translate(-68.29 -12.34)"/><path class="cls-1" d="M221.84,173.25q-21.09,0-42.17,0a19.43,19.43,0,0,1-10.41-2.82,17.6,17.6,0,0,1-7.31-8.84,19.45,19.45,0,0,1-1.21-8.63,16.44,16.44,0,0,1,2.22-6.85,19.67,19.67,0,0,1,7.07-7.05,9.44,9.44,0,0,0,2-1.14,2.85,2.85,0,0,0,.84-1.92,26.54,26.54,0,0,1,3.44-11.7A23.4,23.4,0,0,1,185,115.6a24.85,24.85,0,0,1,9.57-3.1,28.81,28.81,0,0,1,9.44.76,18.5,18.5,0,0,1,2.35.8,2,2,0,0,0,2.49-.75,36.15,36.15,0,0,1,7.85-7.67,31.58,31.58,0,0,1,10.61-4.84,27.21,27.21,0,0,1,8.8-.69,31,31,0,0,1,10.65,2.82,30.19,30.19,0,0,1,9.58,6.82,29.07,29.07,0,0,1,5.75,9.18,37.73,37.73,0,0,1,1.74,5.91,18.09,18.09,0,0,1,.38,3.61,50.65,50.65,0,0,1-.12,6.72c-.13,1.09.23,1.42,1.34,1.5a18.65,18.65,0,0,1,11,4.43,17.86,17.86,0,0,1,6,17.32,17.4,17.4,0,0,1-3.62,7.88,18.14,18.14,0,0,1-8.29,5.82,25.19,25.19,0,0,1-8.32,1.14q-20.17,0-40.34,0Z" transform="translate(-68.29 -12.34)"/><path class="cls-1" d="M334.18,134.56H311.41a10.49,10.49,0,0,1-5.62-1.52,9.5,9.5,0,0,1-3.95-4.77,10.5,10.5,0,0,1-.65-4.66,8.87,8.87,0,0,1,1.2-3.7,10.62,10.62,0,0,1,3.82-3.81,5.1,5.1,0,0,0,1.08-.62,1.54,1.54,0,0,0,.46-1,14.33,14.33,0,0,1,1.86-6.32,12.64,12.64,0,0,1,4.68-4.69,13.41,13.41,0,0,1,5.17-1.68,15.56,15.56,0,0,1,5.09.41,10,10,0,0,1,1.27.43,1.1,1.1,0,0,0,1.34-.4,19.52,19.52,0,0,1,4.24-4.14,17.05,17.05,0,0,1,5.73-2.61,14.69,14.69,0,0,1,4.75-.37,16.71,16.71,0,0,1,5.75,1.52,16.3,16.3,0,0,1,5.17,3.68,15.69,15.69,0,0,1,3.11,5,20.37,20.37,0,0,1,.94,3.19,9.77,9.77,0,0,1,.2,2A27.35,27.35,0,0,1,357,114c-.07.59.12.77.72.81a10.07,10.07,0,0,1,5.94,2.39,9.64,9.64,0,0,1,3.25,9.35,9.39,9.39,0,0,1-2,4.26,9.79,9.79,0,0,1-4.48,3.14,13.6,13.6,0,0,1-4.49.61q-10.89,0-21.78,0Z" transform="translate(-68.29 -12.34)"/><path class="cls-1" d="M182.31,71.75H163a8.91,8.91,0,0,1-4.78-1.29,8.07,8.07,0,0,1-3.35-4.05,8.92,8.92,0,0,1-.55-4,7.54,7.54,0,0,1,1-3.14,9,9,0,0,1,3.24-3.23,4.33,4.33,0,0,0,.92-.52,1.31,1.31,0,0,0,.39-.88,12.17,12.17,0,0,1,1.58-5.37,10.74,10.74,0,0,1,4-4,11.4,11.4,0,0,1,4.39-1.42,13.22,13.22,0,0,1,4.33.35,8.48,8.48,0,0,1,1.08.37.93.93,0,0,0,1.14-.34,16.58,16.58,0,0,1,3.6-3.52,14.49,14.49,0,0,1,4.86-2.22,12.48,12.48,0,0,1,4-.32,14.2,14.2,0,0,1,4.88,1.29,13.85,13.85,0,0,1,4.39,3.13,13.33,13.33,0,0,1,2.64,4.21,17.31,17.31,0,0,1,.8,2.71,8.3,8.3,0,0,1,.17,1.66,23.23,23.23,0,0,1-.06,3.08c-.06.5.11.65.61.69a8.56,8.56,0,0,1,5,2,8.19,8.19,0,0,1,2.76,7.95,8,8,0,0,1-1.66,3.62,8.32,8.32,0,0,1-3.8,2.67,11.55,11.55,0,0,1-3.82.52q-9.25,0-18.51,0Z" transform="translate(-68.29 -12.34)"/></svg>