<?xml version="1.0" encoding="utf-8"?>
<!-- Generator: Adobe Illustrator 19.1.1, SVG Export Plug-In . SVG Version: 6.00 Build 0)  -->
<svg version="1.1" baseProfile="tiny" id="Calque_2"
	 xmlns="http://www.w3.org/2000/svg" xmlns:xlink="http://www.w3.org/1999/xlink" x="0px" y="0px" viewBox="0 0 1366 768"
	 xml:space="preserve">
	 <style type="text/css">
	
	.dropFaster, .dropFast, .dropMedium, .dropSlow, .dropSlower{
		position:absolute;
		transform:translateY(-800px);
	}

	.dropFaster{animation :dropArrival 8s linear infinite;animation-delay:5s;}
	.dropFast{animation :dropArrival 15s linear infinite;animation-delay:3s;}
	.dropMedium{animation :dropArrival 20s linear infinite;animation-delay:3s;}
	.dropSlow{animation :dropArrival 30s linear infinite;animation-delay:6s;}
	.dropSlower{animation :dropArrival 40s linear infinite;animation-delay:4s;}

	@keyframes dropArrival {
   		0%{transfrom: translateY(0);}
    	100%{transform: translateY(900px);}
	}	
</style>
<g id="Nouveau_symbole">
	<path class="dropFast" fill="#1E4066" d="M362.4,100.2c1.2,1.6,2.5,3.2,3.7,5c0.8,1.3,1.7,2.8,1.9,4.3c0.4,2.7-1,4.7-3.3,5.7
		c-2.2,0.9-4.8,0.3-6.4-1.4c-1.7-1.8-2-4.4-0.6-6.7c0.8-1.3,1.8-2.5,2.7-3.7C361,102.2,361.7,101.1,362.4,100.2z"/>
</g>
<g>
	<g>
		<path class="dropSlow" fill="#1E4066" d="M486.6,206.9c1.2,1.6,2.5,3.2,3.7,5c0.8,1.3,1.7,2.8,1.9,4.3c0.4,2.7-1,4.7-3.3,5.7
			c-2.2,0.9-4.8,0.3-6.4-1.4c-1.7-1.8-2-4.4-0.6-6.7c0.8-1.3,1.8-2.5,2.7-3.7C485.2,208.9,486,207.9,486.6,206.9z"/>
	</g>
	<g>
		<path class="dropMedium" fill="#1E4066" d="M843.5,228.2c1.2,1.6,2.5,3.2,3.7,5c0.8,1.3,1.7,2.8,1.9,4.3c0.4,2.7-1,4.7-3.3,5.7
			c-2.2,0.9-4.8,0.3-6.4-1.4c-1.7-1.8-2-4.4-0.6-6.7c0.8-1.3,1.8-2.5,2.7-3.7C842.1,230.2,842.8,229.1,843.5,228.2z"/>
	</g>
	<g>
		<path class="dropSlow" fill="#1E4066" d="M483.7,461.4c1.2,1.6,2.5,3.2,3.7,5c0.8,1.3,1.7,2.8,1.9,4.3c0.4,2.7-1,4.7-3.3,5.7
			c-2.2,0.9-4.8,0.3-6.4-1.4c-1.7-1.8-2-4.4-0.6-6.7c0.8-1.3,1.8-2.5,2.7-3.7C482.3,463.4,483.1,462.4,483.7,461.4z"/>
	</g>
	<g>
		<path class="dropSlower" fill="#1E4066" d="M205.9,381.8c1.2,1.6,2.5,3.2,3.7,5c0.8,1.3,1.7,2.8,1.9,4.3c0.4,2.7-1,4.7-3.3,5.7
			c-2.2,0.9-4.8,0.3-6.4-1.4c-1.7-1.8-2-4.4-0.6-6.7c0.8-1.3,1.8-2.5,2.7-3.7C204.6,383.8,205.3,382.7,205.9,381.8z"/>
	</g>
	<g>
		<path class="dropFaster" fill="#1E4066" d="M212.2,249.5c1.2,1.6,2.5,3.2,3.7,5c0.8,1.3,1.7,2.8,1.9,4.3c0.4,2.7-1,4.7-3.3,5.7
			c-2.2,0.9-4.8,0.3-6.4-1.4c-1.7-1.8-2-4.4-0.6-6.7c0.8-1.3,1.8-2.5,2.7-3.7C210.8,251.5,211.6,250.4,212.2,249.5z"/>
	</g>
	<g>
		<path class="dropFast" fill="#1E4066" d="M1206.8,285.8c1.2,1.6,2.5,3.2,3.7,5c0.8,1.3,1.7,2.8,1.9,4.3c0.4,2.7-1,4.7-3.3,5.7
			c-2.2,0.9-4.8,0.3-6.4-1.4c-1.7-1.8-2-4.4-0.6-6.7c0.8-1.3,1.8-2.5,2.7-3.7C1205.4,287.9,1206.1,286.8,1206.8,285.8z"/>
	</g>
	<g>
		<path class="dropMedium" fill="#1E4066" d="M1105.7,182.2c1.2,1.6,2.5,3.2,3.7,5c0.8,1.3,1.7,2.8,1.9,4.3c0.4,2.7-1,4.7-3.3,5.7
			c-2.2,0.9-4.8,0.3-6.4-1.4c-1.7-1.8-2-4.4-0.6-6.7c0.8-1.3,1.8-2.5,2.7-3.7C1104.4,184.2,1105.1,183.1,1105.7,182.2z"/>
	</g>
	<g>
		<path class="dropSlow" fill="#1E4066" d="M971.1,135.2c1.2,1.6,2.5,3.2,3.7,5c0.8,1.3,1.7,2.8,1.9,4.3c0.4,2.7-1,4.7-3.3,5.7
			c-2.2,0.9-4.8,0.3-6.4-1.4c-1.7-1.8-2-4.4-0.6-6.7c0.8-1.3,1.8-2.5,2.7-3.7C969.7,137.2,970.4,136.2,971.1,135.2z"/>
	</g>
	<g>
		<path class="dropSlower" fill="#1E4066" d="M773.7,84.5c1.2,1.6,2.5,3.2,3.7,5c0.8,1.3,1.7,2.8,1.9,4.3c0.4,2.7-1,4.7-3.3,5.7
			c-2.2,0.9-4.8,0.3-6.4-1.4c-1.7-1.8-2-4.4-0.6-6.7c0.8-1.3,1.8-2.5,2.7-3.7C772.3,86.5,773,85.4,773.7,84.5z"/>
	</g>
	<g>
		<path class="dropMedium" fill="#1E4066" d="M620.2,84.9c1.2,1.6,2.5,3.2,3.7,5c0.8,1.3,1.7,2.8,1.9,4.3c0.4,2.7-1,4.7-3.3,5.7
			c-2.2,0.9-4.8,0.3-6.4-1.4c-1.7-1.8-2-4.4-0.6-6.7c0.8-1.3,1.8-2.5,2.7-3.7C618.9,86.9,619.6,85.8,620.2,84.9z"/>
	</g>
	<g>
		<path class="dropFast" fill="#1E4066" d="M587.8,241.5c1.2,1.6,2.5,3.2,3.7,5c0.8,1.3,1.7,2.8,1.9,4.3c0.4,2.7-1,4.7-3.3,5.7
			c-2.2,0.9-4.8,0.3-6.4-1.4c-1.7-1.8-2-4.4-0.6-6.7c0.8-1.3,1.8-2.5,2.7-3.7C586.5,243.5,587.2,242.4,587.8,241.5z"/>
	</g>
	<g>
		<path class="dropMedium" fill="#1E4066" d="M636.7,307.9c1.2,1.6,2.5,3.2,3.7,5c0.8,1.3,1.7,2.8,1.9,4.3c0.4,2.7-1,4.7-3.3,5.7
			c-2.2,0.9-4.8,0.3-6.4-1.4c-1.7-1.8-2-4.4-0.6-6.7c0.8-1.3,1.8-2.5,2.7-3.7C635.3,309.9,636.1,308.8,636.7,307.9z"/>
	</g>
	<g>
		<path class="dropSlow" fill="#1E4066" d="M400.7,353.6c1.2,1.6,2.5,3.2,3.7,5c0.8,1.3,1.7,2.8,1.9,4.3c0.4,2.7-1,4.7-3.3,5.7
			c-2.2,0.9-4.8,0.3-6.4-1.4c-1.7-1.8-2-4.4-0.6-6.7c0.8-1.3,1.8-2.5,2.7-3.7C399.4,355.6,400.1,354.5,400.7,353.6z"/>
	</g>
	<g>
		<path class="dropSlower" fill="#1E4066" d="M341.2,320.4c1.2,1.6,2.5,3.2,3.7,5c0.8,1.3,1.7,2.8,1.9,4.3c0.4,2.7-1,4.7-3.3,5.7
			c-2.2,0.9-4.8,0.3-6.4-1.4c-1.7-1.8-2-4.4-0.6-6.7c0.8-1.3,1.8-2.5,2.7-3.7C339.8,322.4,340.6,321.3,341.2,320.4z"/>
	</g>
	<g>
		<path class="dropFaster" fill="#1E4066" d="M317.8,204.5c1.2,1.6,2.5,3.2,3.7,5c0.8,1.3,1.7,2.8,1.9,4.3c0.4,2.7-1,4.7-3.3,5.7
			c-2.2,0.9-4.8,0.3-6.4-1.4c-1.7-1.8-2-4.4-0.6-6.7c0.8-1.3,1.8-2.5,2.7-3.7C316.4,206.5,317.1,205.4,317.8,204.5z"/>
	</g>
	<g>
		<path class="dropMedium" fill="#1E4066" d="M250.6,143c1.2,1.6,2.5,3.2,3.7,5c0.8,1.3,1.7,2.8,1.9,4.3c0.4,2.7-1,4.7-3.3,5.7
			c-2.2,0.9-4.8,0.3-6.4-1.4c-1.7-1.8-2-4.4-0.6-6.7c0.8-1.3,1.8-2.5,2.7-3.7C249.3,145,250,144,250.6,143z"/>
	</g>
	<g>
		<path class="dropMedium" fill="#1E4066" d="M83.9,79.9c1.2,1.6,2.5,3.2,3.7,5c0.8,1.3,1.7,2.8,1.9,4.3c0.4,2.7-1,4.7-3.3,5.7
			c-2.2,0.9-4.8,0.3-6.4-1.4c-1.7-1.8-2-4.4-0.6-6.7c0.8-1.3,1.8-2.5,2.7-3.7C82.5,81.9,83.2,80.8,83.9,79.9z"/>
	</g>
	<g>
		<path class="dropSlow" fill="#1E4066" d="M168.1,39.4c1.2,1.6,2.5,3.2,3.7,5c0.8,1.3,1.7,2.8,1.9,4.3c0.4,2.7-1,4.7-3.3,5.7
			c-2.2,0.9-4.8,0.3-6.4-1.4c-1.7-1.8-2-4.4-0.6-6.7c0.8-1.3,1.8-2.5,2.7-3.7C166.7,41.4,167.4,40.3,168.1,39.4z"/>
	</g>
	<g>
		<path class="dropSlower" fill="#1E4066" d="M104.9,141.9c1.2,1.6,2.5,3.2,3.7,5c0.8,1.3,1.7,2.8,1.9,4.3c0.4,2.7-1,4.7-3.3,5.7
			c-2.2,0.9-4.8,0.3-6.4-1.4c-1.7-1.8-2-4.4-0.6-6.7c0.8-1.3,1.8-2.5,2.7-3.7C103.5,143.9,104.3,142.9,104.9,141.9z"/>
	</g>
	<g>
		<path class="dropFaster" fill="#1E4066" d="M32.7,190.5c1.2,1.6,2.5,3.2,3.7,5c0.8,1.3,1.7,2.8,1.9,4.3c0.4,2.7-1,4.7-3.3,5.7
			c-2.2,0.9-4.8,0.3-6.4-1.4c-1.7-1.8-2-4.4-0.6-6.7c0.8-1.3,1.8-2.5,2.7-3.7C31.3,192.5,32.1,191.4,32.7,190.5z"/>
	</g>
	<g>
		<path  class="dropFast" fill="#1E4066" d="M4.2,291.9c1.2,1.6,2.5,3.2,3.7,5c0.8,1.3,1.7,2.8,1.9,4.3c0.4,2.7-1,4.7-3.3,5.7
			c-2.2,0.9-4.8,0.3-6.4-1.4c-1.7-1.8-2-4.4-0.6-6.7c0.8-1.3,1.8-2.5,2.7-3.7C2.8,293.9,3.5,292.8,4.2,291.9z"/>
	</g>
	<g>
		<path class="dropMedium" fill="#1E4066" d="M14.4,354.4c1.2,1.6,2.5,3.2,3.7,5c0.8,1.3,1.7,2.8,1.9,4.3c0.4,2.7-1,4.7-3.3,5.7
			c-2.2,0.9-4.8,0.3-6.4-1.4c-1.7-1.8-2-4.4-0.6-6.7c0.8-1.3,1.8-2.5,2.7-3.7C13,356.4,13.7,355.3,14.4,354.4z"/>
	</g>
	<g>
		<path class="dropSlow" fill="#1E4066" d="M49.1,547.7c1.2,1.6,2.5,3.2,3.7,5c0.8,1.3,1.7,2.8,1.9,4.3c0.4,2.7-1,4.7-3.3,5.7
			c-2.2,0.9-4.8,0.3-6.4-1.4c-1.7-1.8-2-4.4-0.6-6.7c0.8-1.3,1.8-2.5,2.7-3.7C47.7,549.7,48.5,548.6,49.1,547.7z"/>
	</g>
	<g>
		<path class="dropSlower" fill="#1E4066" d="M145.5,655.3c1.2,1.6,2.5,3.2,3.7,5c0.8,1.3,1.7,2.8,1.9,4.3c0.4,2.7-1,4.7-3.3,5.7
			c-2.2,0.9-4.8,0.3-6.4-1.4c-1.7-1.8-2-4.4-0.6-6.7c0.8-1.3,1.8-2.5,2.7-3.7C144.1,657.3,144.8,656.2,145.5,655.3z"/>
	</g>
	<g>
		<path  class="dropFaster" fill="#1E4066" d="M340.3,668.4c1.2,1.6,2.5,3.2,3.7,5c0.8,1.3,1.7,2.8,1.9,4.3c0.4,2.7-1,4.7-3.3,5.7
			c-2.2,0.9-4.8,0.3-6.4-1.4c-1.7-1.8-2-4.4-0.6-6.7c0.8-1.3,1.8-2.5,2.7-3.7C338.9,670.4,339.6,669.3,340.3,668.4z"/>
	</g>
	<g>
		<path  class="dropFast" fill="#1E4066" d="M350.1,522.3c1.2,1.6,2.5,3.2,3.7,5c0.8,1.3,1.7,2.8,1.9,4.3c0.4,2.7-1,4.7-3.3,5.7
			c-2.2,0.9-4.8,0.3-6.4-1.4c-1.7-1.8-2-4.4-0.6-6.7c0.8-1.3,1.8-2.5,2.7-3.7C348.8,524.3,349.5,523.3,350.1,522.3z"/>
	</g>
	<g>
		<path  class="dropMedium" fill="#1E4066" d="M152.9,501.3c1.2,1.6,2.5,3.2,3.7,5c0.8,1.3,1.7,2.8,1.9,4.3c0.4,2.7-1,4.7-3.3,5.7
			c-2.2,0.9-4.8,0.3-6.4-1.4c-1.7-1.8-2-4.4-0.6-6.7c0.8-1.3,1.8-2.5,2.7-3.7C151.5,503.3,152.3,502.3,152.9,501.3z"/>
	</g>
	<g>
		<path  class="dropSlow" fill="#1E4066" d="M100.3,372.2c1.2,1.6,2.5,3.2,3.7,5c0.8,1.3,1.7,2.8,1.9,4.3c0.4,2.7-1,4.7-3.3,5.7
			c-2.2,0.9-4.8,0.3-6.4-1.4c-1.7-1.8-2-4.4-0.6-6.7c0.8-1.3,1.8-2.5,2.7-3.7C98.9,374.2,99.6,373.1,100.3,372.2z"/>
	</g>
	<g>
		<path  class="dropSlower" fill="#1E4066" d="M118.7,269.8c1.2,1.6,2.5,3.2,3.7,5c0.8,1.3,1.7,2.8,1.9,4.3c0.4,2.7-1,4.7-3.3,5.7
			c-2.2,0.9-4.8,0.3-6.4-1.4c-1.7-1.8-2-4.4-0.6-6.7c0.8-1.3,1.8-2.5,2.7-3.7C117.3,271.8,118,270.7,118.7,269.8z"/>
	</g>
	<g>
		<path  class="dropFaster" fill="#1E4066" d="M59.4,681.2c1.2,1.6,2.5,3.2,3.7,5c0.8,1.3,1.7,2.8,1.9,4.3c0.4,2.7-1,4.7-3.3,5.7
			c-2.2,0.9-4.8,0.3-6.4-1.4c-1.7-1.8-2-4.4-0.6-6.7c0.8-1.3,1.8-2.5,2.7-3.7C58,683.3,58.8,682.2,59.4,681.2z"/>
	</g>
	<g>
		<path  class="dropSlow" fill="#1E4066" d="M238.1,745.5c1.2,1.6,2.5,3.2,3.7,5c0.8,1.3,1.7,2.8,1.9,4.3c0.4,2.7-1,4.7-3.3,5.7
			c-2.2,0.9-4.8,0.3-6.4-1.4c-1.7-1.8-2-4.4-0.6-6.7c0.8-1.3,1.8-2.5,2.7-3.7C236.7,747.5,237.4,746.4,238.1,745.5z"/>
	</g>
	<g>
		<path  class="dropMedium" fill="#1E4066" d="M250.7,745.7c1.2,1.6,2.5,3.2,3.7,5c0.8,1.3,1.7,2.8,1.9,4.3c0.4,2.7-1,4.7-3.3,5.7
			c-2.2,0.9-4.8,0.3-6.4-1.4c-1.7-1.8-2-4.4-0.6-6.7c0.8-1.3,1.8-2.5,2.7-3.7C249.3,747.7,250,746.6,250.7,745.7z"/>
	</g>
	<g>
		<path class="dropSlow" fill="#1E4066" d="M1226.8,733.2c1.2,1.6,2.5,3.2,3.7,5c0.8,1.3,1.7,2.8,1.9,4.3c0.4,2.7-1,4.7-3.3,5.7
			c-2.2,0.9-4.8,0.3-6.4-1.4c-1.7-1.8-2-4.4-0.6-6.7c0.8-1.3,1.8-2.5,2.7-3.7C1225.4,735.2,1226.1,734.1,1226.8,733.2z"/>
	</g>
	<g>
		<path class="dropSlower" fill="#1E4066" d="M1322.5,697.8c1.2,1.6,2.5,3.2,3.7,5c0.8,1.3,1.7,2.8,1.9,4.3c0.4,2.7-1,4.7-3.3,5.7
			c-2.2,0.9-4.8,0.3-6.4-1.4c-1.7-1.8-2-4.4-0.6-6.7c0.8-1.3,1.8-2.5,2.7-3.7C1321.1,699.9,1321.8,698.8,1322.5,697.8z"/>
	</g>
	<g>
		<path class="dropFaster" fill="#1E4066" d="M1318.9,599.5c1.2,1.6,2.5,3.2,3.7,5c0.8,1.3,1.7,2.8,1.9,4.3c0.4,2.7-1,4.7-3.3,5.7
			c-2.2,0.9-4.8,0.3-6.4-1.4c-1.7-1.8-2-4.4-0.6-6.7c0.8-1.3,1.8-2.5,2.7-3.7C1317.5,601.6,1318.2,600.5,1318.9,599.5z"/>
	</g>
	<g>
		<path class="dropFast" fill="#1E4066" d="M1310.8,484.3c1.2,1.6,2.5,3.2,3.7,5c0.8,1.3,1.7,2.8,1.9,4.3c0.4,2.7-1,4.7-3.3,5.7
			c-2.2,0.9-4.8,0.3-6.4-1.4c-1.7-1.8-2-4.4-0.6-6.7c0.8-1.3,1.8-2.5,2.7-3.7C1309.4,486.3,1310.2,485.2,1310.8,484.3z"/>
	</g>
	<g>
		<path class="dropMedium" fill="#1E4066" d="M1184.8,482.5c1.2,1.6,2.5,3.2,3.7,5c0.8,1.3,1.7,2.8,1.9,4.3c0.4,2.7-1,4.7-3.3,5.7
			c-2.2,0.9-4.8,0.3-6.4-1.4c-1.7-1.8-2-4.4-0.6-6.7c0.8-1.3,1.8-2.5,2.7-3.7C1183.4,484.5,1184.1,483.5,1184.8,482.5z"/>
	</g>
	<g>
		<path class="dropSlow" fill="#1E4066" d="M1238.7,630.4c1.2,1.6,2.5,3.2,3.7,5c0.8,1.3,1.7,2.8,1.9,4.3c0.4,2.7-1,4.7-3.3,5.7
			c-2.2,0.9-4.8,0.3-6.4-1.4c-1.7-1.8-2-4.4-0.6-6.7c0.8-1.3,1.8-2.5,2.7-3.7C1237.3,632.4,1238,631.3,1238.7,630.4z"/>
	</g>
	
	<g>
		<path class="dropSlower" fill="#1E4066" d="M1052.1,645.3c1.2,1.6,2.5,3.2,3.7,5c0.8,1.3,1.7,2.8,1.9,4.3c0.4,2.7-1,4.7-3.3,5.7
			c-2.2,0.9-4.8,0.3-6.4-1.4c-1.7-1.8-2-4.4-0.6-6.7c0.8-1.3,1.8-2.5,2.7-3.7C1050.8,647.3,1051.5,646.2,1052.1,645.3z"/>
	</g>
	<g>
		<path class="dropMedium" fill="#1E4066" d="M1078.2,432.4c1.2,1.6,2.5,3.2,3.7,5c0.8,1.3,1.7,2.8,1.9,4.3c0.4,2.7-1,4.7-3.3,5.7
			c-2.2,0.9-4.8,0.3-6.4-1.4c-1.7-1.8-2-4.4-0.6-6.7c0.8-1.3,1.8-2.5,2.7-3.7C1076.9,434.4,1077.6,433.3,1078.2,432.4z"/>
	</g>
	<g>
		<path class="dropFast" fill="#1E4066" d="M1214-2.1c1.2,1.6,2.5,3.2,3.7,5c0.8,1.3,1.7,2.8,1.9,4.3c0.4,2.7-1,4.7-3.3,5.7c-2.2,0.9-4.8,0.3-6.4-1.4
			c-1.7-1.8-2-4.4-0.6-6.7c0.8-1.3,1.8-2.5,2.7-3.7C1212.6-0.1,1213.4-1.2,1214-2.1z"/>
	</g>
	<g>
		<path class="dropMedium" fill="#1E4066" d="M1305.6,74.8c1.2,1.6,2.5,3.2,3.7,5c0.8,1.3,1.7,2.8,1.9,4.3c0.4,2.7-1,4.7-3.3,5.7
			c-2.2,0.9-4.8,0.3-6.4-1.4c-1.7-1.8-2-4.4-0.6-6.7c0.8-1.3,1.8-2.5,2.7-3.7C1304.2,76.8,1304.9,75.8,1305.6,74.8z"/>
	</g>
	<g>
		<path class="dropSlow" fill="#1E4066" d="M1346.9,152.7c1.2,1.6,2.5,3.2,3.7,5c0.8,1.3,1.7,2.8,1.9,4.3c0.4,2.7-1,4.7-3.3,5.7
			c-2.2,0.9-4.8,0.3-6.4-1.4c-1.7-1.8-2-4.4-0.6-6.7c0.8-1.3,1.8-2.5,2.7-3.7C1345.5,154.7,1346.2,153.6,1346.9,152.7z"/>
	</g>
	<g>
		<path class="dropSlower" fill="#1E4066" d="M1316.9,260c1.2,1.6,2.5,3.2,3.7,5c0.8,1.3,1.7,2.8,1.9,4.3c0.4,2.7-1,4.7-3.3,5.7
			c-2.2,0.9-4.8,0.3-6.4-1.4c-1.7-1.8-2-4.4-0.6-6.7c0.8-1.3,1.8-2.5,2.7-3.7C1315.6,262.1,1316.3,261,1316.9,260z"/>
	</g>
	<g>
		<path class="dropFaster" fill="#1E4066" d="M1270.4,359.5c1.2,1.6,2.5,3.2,3.7,5c0.8,1.3,1.7,2.8,1.9,4.3c0.4,2.7-1,4.7-3.3,5.7
			c-2.2,0.9-4.8,0.3-6.4-1.4c-1.7-1.8-2-4.4-0.6-6.7c0.8-1.3,1.8-2.5,2.7-3.7C1269,361.5,1269.7,360.4,1270.4,359.5z"/>
	</g>
	<g>
		<path class="dropFast" fill="#1E4066" d="M1226.7,166c1.2,1.6,2.5,3.2,3.7,5c0.8,1.3,1.7,2.8,1.9,4.3c0.4,2.7-1,4.7-3.3,5.7
			c-2.2,0.9-4.8,0.3-6.4-1.4c-1.7-1.8-2-4.4-0.6-6.7c0.8-1.3,1.8-2.5,2.7-3.7C1225.3,168.1,1226.1,167,1226.7,166z"/>
	</g>
	<g>
		<path class="dropMedium" fill="#1E4066" d="M1035.4,53.7c1.2,1.6,2.5,3.2,3.7,5c0.8,1.3,1.7,2.8,1.9,4.3c0.4,2.7-1,4.7-3.3,5.7
			c-2.2,0.9-4.8,0.3-6.4-1.4c-1.7-1.8-2-4.4-0.6-6.7c0.8-1.3,1.8-2.5,2.7-3.7C1034,55.7,1034.7,54.7,1035.4,53.7z"/>
	</g>
	<g>
		<path class="dropSlow" fill="#1E4066" d="M872.3,37.3c1.2,1.6,2.5,3.2,3.7,5c0.8,1.3,1.7,2.8,1.9,4.3c0.4,2.7-1,4.7-3.3,5.7
			c-2.2,0.9-4.8,0.3-6.4-1.4c-1.7-1.8-2-4.4-0.6-6.7c0.8-1.3,1.8-2.5,2.7-3.7C870.9,39.4,871.7,38.3,872.3,37.3z"/>
	</g>
	<g>
		<path class="dropSlower" fill="#1E4066" d="M733,164.5c1.2,1.6,2.5,3.2,3.7,5c0.8,1.3,1.7,2.8,1.9,4.3c0.4,2.7-1,4.7-3.3,5.7
			c-2.2,0.9-4.8,0.3-6.4-1.4c-1.7-1.8-2-4.4-0.6-6.7c0.8-1.3,1.8-2.5,2.7-3.7C731.6,166.6,732.3,165.5,733,164.5z"/>
	</g>
	<g>
		<path class="dropFaster" fill="#1E4066" d="M500.8,93.4c1.2,1.6,2.5,3.2,3.7,5c0.8,1.3,1.7,2.8,1.9,4.3c0.4,2.7-1,4.7-3.3,5.7
			c-2.2,0.9-4.8,0.3-6.4-1.4c-1.7-1.8-2-4.4-0.6-6.7c0.8-1.3,1.8-2.5,2.7-3.7C499.4,95.4,500.2,94.3,500.8,93.4z"/>
	</g>
	<g>
		<path class="dropFast" fill="#1E4066" d="M710.9,10.7c1.2,1.6,2.5,3.2,3.7,5c0.8,1.3,1.7,2.8,1.9,4.3c0.4,2.7-1,4.7-3.3,5.7
			c-2.2,0.9-4.8,0.3-6.4-1.4c-1.7-1.8-2-4.4-0.6-6.7c0.8-1.3,1.8-2.5,2.7-3.7C709.6,12.7,710.3,11.7,710.9,10.7z"/>
	</g>
	<g>
		<path class="dropMedium" fill="#1E4066" d="M360.1-23.8c1.2,1.6,2.5,3.2,3.7,5c0.8,1.3,1.7,2.8,1.9,4.3c0.4,2.7-1,4.7-3.3,5.7
			c-2.2,0.9-4.8,0.3-6.4-1.4c-1.7-1.8-2-4.4-0.6-6.7c0.8-1.3,1.8-2.5,2.7-3.7C358.7-21.8,359.5-22.9,360.1-23.8z"/>
	</g>
	<g>
		<path class="dropSlow" fill="#1E4066" d="M920.2,189c1.2,1.6,2.5,3.2,3.7,5c0.8,1.3,1.7,2.8,1.9,4.3c0.4,2.7-1,4.7-3.3,5.7
			c-2.2,0.9-4.8,0.3-6.4-1.4c-1.7-1.8-2-4.4-0.6-6.7c0.8-1.3,1.8-2.5,2.7-3.7C918.9,191,919.6,189.9,920.2,189z"/>
	</g>
	<g>
		<path class="dropSlower" fill="#1E4066" d="M472.9-11.3c1.2,1.6,2.5,3.2,3.7,5c0.8,1.3,1.7,2.8,1.9,4.3c0.4,2.7-1,4.7-3.3,5.7
			c-2.2,0.9-4.8,0.3-6.4-1.4c-1.7-1.8-2-4.4-0.6-6.7c0.8-1.3,1.8-2.5,2.7-3.7C471.5-9.2,472.2-10.3,472.9-11.3z"/>
	</g>
	<g>
		<path class="dropFaster" fill="#1E4066" d="M554.2-9.4c1.2,1.6,2.5,3.2,3.7,5c0.8,1.3,1.7,2.8,1.9,4.3c0.4,2.7-1,4.7-3.3,5.7
			c-2.2,0.9-4.8,0.3-6.4-1.4c-1.7-1.8-2-4.4-0.6-6.7c0.8-1.3,1.8-2.5,2.7-3.7C552.9-7.3,553.6-8.4,554.2-9.4z"/>
	</g>
	<g>
		<path class="dropFast" fill="#1E4066" d="M394,6.4c1.2,1.6,2.5,3.2,3.7,5c0.8,1.3,1.7,2.8,1.9,4.3c0.4,2.7-1,4.7-3.3,5.7c-2.2,0.9-4.8,0.3-6.4-1.4
			c-1.7-1.8-2-4.4-0.6-6.7c0.8-1.3,1.8-2.5,2.7-3.7C392.6,8.4,393.3,7.3,394,6.4z"/>
	</g>
	<g>
		<path class="dropMedium" fill="#1E4066" d="M220.6,578.6c1.2,1.6,2.5,3.2,3.7,5c0.8,1.3,1.7,2.8,1.9,4.3c0.4,2.7-1,4.7-3.3,5.7
			c-2.2,0.9-4.8,0.3-6.4-1.4c-1.7-1.8-2-4.4-0.6-6.7c0.8-1.3,1.8-2.5,2.7-3.7C219.2,580.6,219.9,579.5,220.6,578.6z"/>
	</g>
	<g>
		<path class="dropSlow" fill="#1E4066" d="M97,751.4c1.2,1.6,2.5,3.2,3.7,5c0.8,1.3,1.7,2.8,1.9,4.3c0.4,2.7-1,4.7-3.3,5.7c-2.2,0.9-4.8,0.3-6.4-1.4
			c-1.7-1.8-2-4.4-0.6-6.7c0.8-1.3,1.8-2.5,2.7-3.7C95.6,753.4,96.4,752.3,97,751.4z"/>
	</g>
	<g>
		<path class="dropSlower" fill="#1E4066" d="M499.7,347.5c1.2,1.6,2.5,3.2,3.7,5c0.8,1.3,1.7,2.8,1.9,4.3c0.4,2.7-1,4.7-3.3,5.7
			c-2.2,0.9-4.8,0.3-6.4-1.4c-1.7-1.8-2-4.4-0.6-6.7c0.8-1.3,1.8-2.5,2.7-3.7C498.4,349.5,499.1,348.5,499.7,347.5z"/>
	</g>
	<g>
		<path class="dropFaster" fill="#1E4066" d="M293.1,444.8c1.2,1.6,2.5,3.2,3.7,5c0.8,1.3,1.7,2.8,1.9,4.3c0.4,2.7-1,4.7-3.3,5.7
			c-2.2,0.9-4.8,0.3-6.4-1.4c-1.7-1.8-2-4.4-0.6-6.7c0.8-1.3,1.8-2.5,2.7-3.7C291.7,446.9,292.5,445.8,293.1,444.8z"/>
	</g>
	<g>
		<path class="dropFast" fill="#1E4066" d="M1022.8,282.4c1.2,1.6,2.5,3.2,3.7,5c0.8,1.3,1.7,2.8,1.9,4.3c0.4,2.7-1,4.7-3.3,5.7
			c-2.2,0.9-4.8,0.3-6.4-1.4c-1.7-1.8-2-4.4-0.6-6.7c0.8-1.3,1.8-2.5,2.7-3.7C1021.4,284.5,1022.1,283.4,1022.8,282.4z"/>
	</g>
	<g>
		<path class="dropMedium" fill="#1E4066" d="M1135.7,357c1.2,1.6,2.5,3.2,3.7,5c0.8,1.3,1.7,2.8,1.9,4.3c0.4,2.7-1,4.7-3.3,5.7
			c-2.2,0.9-4.8,0.3-6.4-1.4c-1.7-1.8-2-4.4-0.6-6.7c0.8-1.3,1.8-2.5,2.7-3.7C1134.3,359.1,1135,358,1135.7,357z"/>
	</g>
	<g>
		<path class="dropSlow" fill="#1E4066" d="M913.6,340.2c1.2,1.6,2.5,3.2,3.7,5c0.8,1.3,1.7,2.8,1.9,4.3c0.4,2.7-1,4.7-3.3,5.7
			c-2.2,0.9-4.8,0.3-6.4-1.4c-1.7-1.8-2-4.4-0.6-6.7c0.8-1.3,1.8-2.5,2.7-3.7C912.2,342.2,913,341.2,913.6,340.2z"/>
	</g>
	<g>
		<path class="dropSlower" fill="#1E4066" d="M713.5,266.9c1.2,1.6,2.5,3.2,3.7,5c0.8,1.3,1.7,2.8,1.9,4.3c0.4,2.7-1,4.7-3.3,5.7
			c-2.2,0.9-4.8,0.3-6.4-1.4c-1.7-1.8-2-4.4-0.6-6.7c0.8-1.3,1.8-2.5,2.7-3.7C712.2,269,712.9,267.9,713.5,266.9z"/>
	</g>
	<g>
		<path class="dropMedium" fill="#1E4066" d="M477.8,565c1.2,1.6,2.5,3.2,3.7,5c0.8,1.3,1.7,2.8,1.9,4.3c0.4,2.7-1,4.7-3.3,5.7
			c-2.2,0.9-4.8,0.3-6.4-1.4c-1.7-1.8-2-4.4-0.6-6.7c0.8-1.3,1.8-2.5,2.7-3.7C476.5,567,477.2,566,477.8,565z"/>
	</g>
	<g>
		<path class="dropFast" fill="#1E4066" d="M538.2,711.3c1.2,1.6,2.5,3.2,3.7,5c0.8,1.3,1.7,2.8,1.9,4.3c0.4,2.7-1,4.7-3.3,5.7
			c-2.2,0.9-4.8,0.3-6.4-1.4c-1.7-1.8-2-4.4-0.6-6.7c0.8-1.3,1.8-2.5,2.7-3.7C536.8,713.4,537.5,712.3,538.2,711.3z"/>
	</g>
	<g>
		<path class="dropMedium" fill="#1E4066" d="M435.4,668.8c1.2,1.6,2.5,3.2,3.7,5c0.8,1.3,1.7,2.8,1.9,4.3c0.4,2.7-1,4.7-3.3,5.7
			c-2.2,0.9-4.8,0.3-6.4-1.4c-1.7-1.8-2-4.4-0.6-6.7c0.8-1.3,1.8-2.5,2.7-3.7C434,670.8,434.7,669.7,435.4,668.8z"/>
	</g>
	<g>
		<path class="dropSlow" fill="#1E4066" d="M688.8,700.9c1.2,1.6,2.5,3.2,3.7,5c0.8,1.3,1.7,2.8,1.9,4.3c0.4,2.7-1,4.7-3.3,5.7
			c-2.2,0.9-4.8,0.3-6.4-1.4c-1.7-1.8-2-4.4-0.6-6.7c0.8-1.3,1.8-2.5,2.7-3.7C687.4,702.9,688.2,701.8,688.8,700.9z"/>
	</g>
	<g>
		<path class="dropSlower" fill="#1E4066" d="M662.9,592.9c1.2,1.6,2.5,3.2,3.7,5c0.8,1.3,1.7,2.8,1.9,4.3c0.4,2.7-1,4.7-3.3,5.7
			c-2.2,0.9-4.8,0.3-6.4-1.4c-1.7-1.8-2-4.4-0.6-6.7c0.8-1.3,1.8-2.5,2.7-3.7C661.6,595,662.3,593.9,662.9,592.9z"/>
	</g>
	<g>
		<path class="dropFaster" fill="#1E4066" d="M938.9,718.9c1.2,1.6,2.5,3.2,3.7,5c0.8,1.3,1.7,2.8,1.9,4.3c0.4,2.7-1,4.7-3.3,5.7
			c-2.2,0.9-4.8,0.3-6.4-1.4c-1.7-1.8-2-4.4-0.6-6.7c0.8-1.3,1.8-2.5,2.7-3.7C937.6,720.9,938.3,719.9,938.9,718.9z"/>
	</g>
	<g>
		<path class="dropFast" fill="#1E4066" d="M852.6,657.4c1.2,1.6,2.5,3.2,3.7,5c0.8,1.3,1.7,2.8,1.9,4.3c0.4,2.7-1,4.7-3.3,5.7
			c-2.2,0.9-4.8,0.3-6.4-1.4c-1.7-1.8-2-4.4-0.6-6.7c0.8-1.3,1.8-2.5,2.7-3.7C851.2,659.5,852,658.4,852.6,657.4z"/>
	</g>
	<g>
		<path class="dropMedium" fill="#1E4066" d="M1005.1,571.7c1.2,1.6,2.5,3.2,3.7,5c0.8,1.3,1.7,2.8,1.9,4.3c0.4,2.7-1,4.7-3.3,5.7
			c-2.2,0.9-4.8,0.3-6.4-1.4c-1.7-1.8-2-4.4-0.6-6.7c0.8-1.3,1.8-2.5,2.7-3.7C1003.7,573.7,1004.5,572.6,1005.1,571.7z"/>
	</g>
	<g>
		<path class="dropSlow" fill="#1E4066" d="M635.1,455.5c1.2,1.6,2.5,3.2,3.7,5c0.8,1.3,1.7,2.8,1.9,4.3c0.4,2.7-1,4.7-3.3,5.7
			c-2.2,0.9-4.8,0.3-6.4-1.4c-1.7-1.8-2-4.4-0.6-6.7c0.8-1.3,1.8-2.5,2.7-3.7C633.8,457.5,634.5,456.4,635.1,455.5z"/>
	</g>
	<g>
		<path class="dropSlower" fill="#1E4066" d="M1131.2,547.9c1.2,1.6,2.5,3.2,3.7,5c0.8,1.3,1.7,2.8,1.9,4.3c0.4,2.7-1,4.7-3.3,5.7
			c-2.2,0.9-4.8,0.3-6.4-1.4c-1.7-1.8-2-4.4-0.6-6.7c0.8-1.3,1.8-2.5,2.7-3.7C1129.9,549.9,1130.6,548.8,1131.2,547.9z"/>
	</g>
	<g>
		<path class="dropFaster" fill="#1E4066" d="M1161,716.6c1.2,1.6,2.5,3.2,3.7,5c0.8,1.3,1.7,2.8,1.9,4.3c0.4,2.7-1,4.7-3.3,5.7
			c-2.2,0.9-4.8,0.3-6.4-1.4c-1.7-1.8-2-4.4-0.6-6.7c0.8-1.3,1.8-2.5,2.7-3.7C1159.6,718.6,1160.4,717.5,1161,716.6z"/>
	</g>
	<g>
		<path class="dropMedium" fill="#1E4066" d="M1058,735.5c1.2,1.6,2.5,3.2,3.7,5c0.8,1.3,1.7,2.8,1.9,4.3c0.4,2.7-1,4.7-3.3,5.7
			c-2.2,0.9-4.8,0.3-6.4-1.4c-1.7-1.8-2-4.4-0.6-6.7c0.8-1.3,1.8-2.5,2.7-3.7C1056.6,737.6,1057.4,736.5,1058,735.5z"/>
	</g>
</g>
</svg>
