<?xml version="1.0" encoding="utf-8"?>
<!-- Generator: Adobe Illustrator 19.1.1, SVG Export Plug-In . SVG Version: 6.00 Build 0)  -->
<svg version="1.1" id="Calque_2" xmlns="http://www.w3.org/2000/svg" xmlns:xlink="http://www.w3.org/1999/xlink" x="0px" y="0px"
	 viewBox="0 0 1366 768" style="enable-background:new 0 0 1366 768;" xml:space="preserve">
<style type="text/css">
	.st0{fill:#1E4066;}
	.dropFaster{
		
		
		
    animation :dropFasterArrival 3s linear infinite;
	}
	@keyframes dropFasterArrival {
   		0%{
    	    transfrom: translateY(0);
    	    
    	}
    	100%{
        	
        	
        	 transform: translateY(1000px);
    	}
	}	
</style>
<symbol  id="Nouveau_symbole" viewBox="-5.7 -7.7 11.3 15.4">
	<path class="st0" d="M0,7.7c1.2-1.6,2.5-3.2,3.7-5c0.8-1.3,1.7-2.8,1.9-4.3c0.4-2.7-1-4.7-3.3-5.7C0-8.2-2.6-7.6-4.2-5.8
		c-1.7,1.8-2,4.4-0.6,6.7C-4,2.2-3,3.3-2.1,4.6C-1.3,5.6-0.6,6.7,0,7.7z"/>
</symbol>
<use xlink:href="#Nouveau_symbole" class="dropFast" width="11.3" height="15.4" x="-5.7" y="-7.7" transform="matrix(1 0 0 -1 362.3706 107.8363)" style="overflow:visible;"/>
<g>
	
		<use xlink:href="#Nouveau_symbole" class="dropFast" width="11.3" height="15.4" x="-5.7" y="-7.7" transform="matrix(1 0 0 -1 486.5827 214.5877)" style="overflow:visible;"/>
	
		<use xlink:href="#Nouveau_symbole" class="dropFaster" width="11.3" height="15.4" x="-5.7" y="-7.7" transform="matrix(1 0 0 -1 843.452 235.8492)" style="overflow:visible;"/>
	
		<use xlink:href="#Nouveau_symbole" class="dropFast" width="11.3" height="15.4" x="-5.7" y="-7.7" transform="matrix(1 0 0 -1 483.6962 469.092)" style="overflow:visible;"/>
	
		<use xlink:href="#Nouveau_symbole" class="dropFast" width="11.3" height="15.4" x="-5.7" y="-7.7" transform="matrix(1 0 0 -1 205.923 389.4612)" style="overflow:visible;"/>
	
		<use xlink:href="#Nouveau_symbole" class="dropFast" width="11.3" height="15.4" x="-5.7" y="-7.7" transform="matrix(1 0 0 -1 212.1871 257.131)" style="overflow:visible;"/>
	
		<use xlink:href="#Nouveau_symbole" class="dropFast" width="11.3" height="15.4" x="-5.7" y="-7.7" transform="matrix(1 0 0 -1 1206.741 293.5233)" style="overflow:visible;"/>
	
		<use xlink:href="#Nouveau_symbole" class="dropFaster" width="11.3" height="15.4" x="-5.7" y="-7.7" transform="matrix(1 0 0 -1 1105.7083 189.8717)" style="overflow:visible;"/>
	
		<use xlink:href="#Nouveau_symbole" class="dropFast" width="11.3" height="15.4" x="-5.7" y="-7.7" transform="matrix(1 0 0 -1 971.0585 142.8848)" style="overflow:visible;"/>
	
		<use xlink:href="#Nouveau_symbole" class="dropFast" width="11.3" height="15.4" x="-5.7" y="-7.7" transform="matrix(1 0 0 -1 773.636 92.1479)" style="overflow:visible;"/>
	
		<use xlink:href="#Nouveau_symbole" class="dropFast" width="11.3" height="15.4" x="-5.7" y="-7.7" transform="matrix(1 0 0 -1 620.2252 92.5553)" style="overflow:visible;"/>
	
		<use xlink:href="#Nouveau_symbole" class="dropFaster" width="11.3" height="15.4" x="-5.7" y="-7.7" transform="matrix(1 0 0 -1 587.8148 249.1761)" style="overflow:visible;"/>
	
		<use xlink:href="#Nouveau_symbole" class="dropFast" width="11.3" height="15.4" x="-5.7" y="-7.7" transform="matrix(1 0 0 -1 636.6858 315.5745)" style="overflow:visible;"/>
	
		<use xlink:href="#Nouveau_symbole" class="dropFast" width="11.3" height="15.4" x="-5.7" y="-7.7" transform="matrix(1 0 0 -1 400.6993 361.2764)" style="overflow:visible;"/>
	
		<use xlink:href="#Nouveau_symbole" class="dropFaster" width="11.3" height="15.4" x="-5.7" y="-7.7" transform="matrix(1 0 0 -1 341.1962 328.0629)" style="overflow:visible;"/>
	
		<use xlink:href="#Nouveau_symbole" class="dropFast" width="11.3" height="15.4" x="-5.7" y="-7.7" transform="matrix(1 0 0 -1 317.7617 212.1309)" style="overflow:visible;"/>
	
		<use xlink:href="#Nouveau_symbole" class="dropFast" width="11.3" height="15.4" x="-5.7" y="-7.7" transform="matrix(1 0 0 -1 250.6005 150.6796)" style="overflow:visible;"/>
	
		<use xlink:href="#Nouveau_symbole" class="dropFaster" width="11.3" height="15.4" x="-5.7" y="-7.7" transform="matrix(1 0 0 -1 83.8677 87.5523)" style="overflow:visible;"/>
	
		<use xlink:href="#Nouveau_symbole" class="dropFast" width="11.3" height="15.4" x="-5.7" y="-7.7" transform="matrix(1 0 0 -1 168.0457 47.0673)" style="overflow:visible;"/>
	
		<use xlink:href="#Nouveau_symbole" class="dropFast" width="11.3" height="15.4" x="-5.7" y="-7.7" transform="matrix(1 0 0 -1 104.8801 149.5824)" style="overflow:visible;"/>
	
		<use xlink:href="#Nouveau_symbole" class="dropFast" width="11.3" height="15.4" x="-5.7" y="-7.7" transform="matrix(1 0 0 -1 32.6951 198.1579)" style="overflow:visible;"/>
	
		<use xlink:href="#Nouveau_symbole" class="dropFaster" width="11.3" height="15.4" x="-5.7" y="-7.7" transform="matrix(1 0 0 -1 4.1327 299.5562)" style="overflow:visible;"/>
	
		<use xlink:href="#Nouveau_symbole" class="dropFast" width="11.3" height="15.4" x="-5.7" y="-7.7" transform="matrix(1 0 0 -1 14.3661 362.041)" style="overflow:visible;"/>
	
		<use xlink:href="#Nouveau_symbole" class="dropFast" width="11.3" height="15.4" x="-5.7" y="-7.7" transform="matrix(1 0 0 -1 49.0926 555.3313)" style="overflow:visible;"/>
	
		<use xlink:href="#Nouveau_symbole" class="dropFaster" width="11.3" height="15.4" x="-5.7" y="-7.7" transform="matrix(1 0 0 -1 145.4606 662.9437)" style="overflow:visible;"/>
	
		<use xlink:href="#Nouveau_symbole" class="dropFaster" width="11.3" height="15.4" x="-5.7" y="-7.7" transform="matrix(1 0 0 -1 340.2444 676.0273)" style="overflow:visible;"/>
	
		<use xlink:href="#Nouveau_symbole" class="dropFast" width="11.3" height="15.4" x="-5.7" y="-7.7" transform="matrix(1 0 0 -1 350.1248 529.9818)" style="overflow:visible;"/>
	
		<use xlink:href="#Nouveau_symbole" class="dropFast" width="11.3" height="15.4" x="-5.7" y="-7.7" transform="matrix(1 0 0 -1 152.8812 508.9929)" style="overflow:visible;"/>
	
		<use xlink:href="#Nouveau_symbole" class="dropFaster" width="11.3" height="15.4" x="-5.7" y="-7.7" transform="matrix(1 0 0 -1 100.2632 379.8558)" style="overflow:visible;"/>
	
		<use xlink:href="#Nouveau_symbole"  width="11.3" height="15.4" x="-5.7" y="-7.7" transform="matrix(1 0 0 -1 118.6585 277.4752)" style="overflow:visible;"/>
	
		<use xlink:href="#Nouveau_symbole" class="dropFaster" width="11.3" height="15.4" x="-5.7" y="-7.7" transform="matrix(1 0 0 -1 59.3847 688.92)" style="overflow:visible;"/>
	
		<use xlink:href="#Nouveau_symbole"  width="11.3" height="15.4" x="-5.7" y="-7.7" transform="matrix(1 0 0 -1 238.0562 753.1295)" style="overflow:visible;"/>
	
		<use xlink:href="#Nouveau_symbole"  width="11.3" height="15.4" x="-5.7" y="-7.7" transform="matrix(1 0 0 -1 250.6398 753.3729)" style="overflow:visible;"/>
	
		<use xlink:href="#Nouveau_symbole"  width="11.3" height="15.4" x="-5.7" y="-7.7" transform="matrix(1 0 0 -1 1226.7625 740.8456)" style="overflow:visible;"/>
	
		<use xlink:href="#Nouveau_symbole" class="dropFaster" width="11.3" height="15.4" x="-5.7" y="-7.7" transform="matrix(1 0 0 -1 1322.4386 705.5022)" style="overflow:visible;"/>
	
		<use xlink:href="#Nouveau_symbole"  width="11.3" height="15.4" x="-5.7" y="-7.7" transform="matrix(1 0 0 -1 1318.8488 607.2266)" style="overflow:visible;"/>
	
		<use xlink:href="#Nouveau_symbole"  width="11.3" height="15.4" x="-5.7" y="-7.7" transform="matrix(1 0 0 -1 1310.7861 491.9679)" style="overflow:visible;"/>
	
		<use xlink:href="#Nouveau_symbole" class="dropFaster" width="11.3" height="15.4" x="-5.7" y="-7.7" transform="matrix(1 0 0 -1 1184.7363 490.1815)" style="overflow:visible;"/>
	
		<use xlink:href="#Nouveau_symbole"  width="11.3" height="15.4" x="-5.7" y="-7.7" transform="matrix(1 0 0 -1 1238.6533 638.0717)" style="overflow:visible;"/>
	
		<use xlink:href="#Nouveau_symbole" class="dropFaster" width="11.3" height="15.4" x="-5.7" y="-7.7" transform="matrix(1 0 0 -1 1052.1045 652.9474)" style="overflow:visible;"/>
	
		<use xlink:href="#Nouveau_symbole"  width="11.3" height="15.4" x="-5.7" y="-7.7" transform="matrix(1 0 0 -1 1078.2151 440.0383)" style="overflow:visible;"/>
	
		<use xlink:href="#Nouveau_symbole"  width="11.3" height="15.4" x="-5.7" y="-7.7" transform="matrix(1 0 0 -1 1213.9827 5.5747)" style="overflow:visible;"/>
	
		<use xlink:href="#Nouveau_symbole" class="dropFaster" width="11.3" height="15.4" x="-5.7" y="-7.7" transform="matrix(1 0 0 -1 1305.5612 82.488)" style="overflow:visible;"/>
	
		<use xlink:href="#Nouveau_symbole" class="dropFaster" width="11.3" height="15.4" x="-5.7" y="-7.7" transform="matrix(1 0 0 -1 1346.8658 160.3316)" style="overflow:visible;"/>
	
		<use xlink:href="#Nouveau_symbole" class="dropFast" width="11.3" height="15.4" x="-5.7" y="-7.7" transform="matrix(1 0 0 -1 1316.9189 267.7218)" style="overflow:visible;"/>
	
		<use xlink:href="#Nouveau_symbole" class="dropFast" width="11.3" height="15.4" x="-5.7" y="-7.7" transform="matrix(1 0 0 -1 1270.3477 367.1438)" style="overflow:visible;"/>
	
		<use xlink:href="#Nouveau_symbole" class="dropFaster" width="11.3" height="15.4" x="-5.7" y="-7.7" transform="matrix(1 0 0 -1 1226.6877 173.7223)" style="overflow:visible;"/>
	
		<use xlink:href="#Nouveau_symbole" class="dropFast" width="11.3" height="15.4" x="-5.7" y="-7.7" transform="matrix(1 0 0 -1 1035.3754 61.3832)" style="overflow:visible;"/>
	
		<use xlink:href="#Nouveau_symbole" class="dropFast" width="11.3" height="15.4" x="-5.7" y="-7.7" transform="matrix(1 0 0 -1 872.2899 44.9978)" style="overflow:visible;"/>
	
		<use xlink:href="#Nouveau_symbole" class="dropFast" width="11.3" height="15.4" x="-5.7" y="-7.7" transform="matrix(1 0 0 -1 732.9488 172.2084)" style="overflow:visible;"/>
	
		<use xlink:href="#Nouveau_symbole" class="dropFast" width="11.3" height="15.4" x="-5.7" y="-7.7" transform="matrix(1 0 0 -1 500.7922 101.0304)" style="overflow:visible;"/>
	
		<use xlink:href="#Nouveau_symbole" class="dropFast" width="11.3" height="15.4" x="-5.7" y="-7.7" transform="matrix(1 0 0 -1 710.9247 18.3821)" style="overflow:visible;"/>
	
		<use xlink:href="#Nouveau_symbole" class="dropFast" width="11.3" height="15.4" x="-5.7" y="-7.7" transform="matrix(1 0 0 -1 360.0809 -16.1325)" style="overflow:visible;"/>
	
		<use xlink:href="#Nouveau_symbole" class="dropFaster" width="11.3" height="15.4" x="-5.7" y="-7.7" transform="matrix(1 0 0 -1 920.2264 196.674)" style="overflow:visible;"/>
	
		<use xlink:href="#Nouveau_symbole"  width="11.3" height="15.4" x="-5.7" y="-7.7" transform="matrix(1 0 0 -1 472.8287 -3.5982)" style="overflow:visible;"/>
	
		<use xlink:href="#Nouveau_symbole"  width="11.3" height="15.4" x="-5.7" y="-7.7" transform="matrix(1 0 0 -1 554.2021 -1.7011)" style="overflow:visible;"/>
	
		<use xlink:href="#Nouveau_symbole" class="dropFaster" width="11.3" height="15.4" x="-5.7" y="-7.7" transform="matrix(1 0 0 -1 393.9386 14.0793)" style="overflow:visible;"/>
	
		<use xlink:href="#Nouveau_symbole"  width="11.3" height="15.4" x="-5.7" y="-7.7" transform="matrix(1 0 0 -1 220.5484 586.2795)" style="overflow:visible;"/>
	
		<use xlink:href="#Nouveau_symbole" class="dropFaster" width="11.3" height="15.4" x="-5.7" y="-7.7" transform="matrix(1 0 0 -1 96.9875 759.0739)" style="overflow:visible;"/>
	
		<use xlink:href="#Nouveau_symbole"  width="11.3" height="15.4" x="-5.7" y="-7.7" transform="matrix(1 0 0 -1 499.7054 355.1844)" style="overflow:visible;"/>
	
		<use xlink:href="#Nouveau_symbole" class="dropFaster" width="11.3" height="15.4" x="-5.7" y="-7.7" transform="matrix(1 0 0 -1 293.0806 452.4969)" style="overflow:visible;"/>
	
		<use xlink:href="#Nouveau_symbole"  width="11.3" height="15.4" x="-5.7" y="-7.7" transform="matrix(1 0 0 -1 1022.7697 290.1204)" style="overflow:visible;"/>
	
		<use xlink:href="#Nouveau_symbole"  width="11.3" height="15.4" x="-5.7" y="-7.7" transform="matrix(1 0 0 -1 1135.6749 364.7114)" style="overflow:visible;"/>
	
		<use xlink:href="#Nouveau_symbole"  width="11.3" height="15.4" x="-5.7" y="-7.7" transform="matrix(1 0 0 -1 913.5842 347.8859)" style="overflow:visible;"/>
	
		<use xlink:href="#Nouveau_symbole" class="dropFaster" width="11.3" height="15.4" x="-5.7" y="-7.7" transform="matrix(1 0 0 -1 713.5004 274.6054)" style="overflow:visible;"/>
	
		<use xlink:href="#Nouveau_symbole"  width="11.3" height="15.4" x="-5.7" y="-7.7" transform="matrix(1 0 0 -1 477.8133 572.6841)" style="overflow:visible;"/>
	
		<use xlink:href="#Nouveau_symbole" class="dropFaster" width="11.3" height="15.4" x="-5.7" y="-7.7" transform="matrix(1 0 0 -1 538.1354 718.9968)" style="overflow:visible;"/>
	
		<use xlink:href="#Nouveau_symbole"  width="11.3" height="15.4" x="-5.7" y="-7.7" transform="matrix(1 0 0 -1 435.3419 676.4583)" style="overflow:visible;"/>
	
		<use xlink:href="#Nouveau_symbole"  width="11.3" height="15.4" x="-5.7" y="-7.7" transform="matrix(1 0 0 -1 688.7895 708.5739)" style="overflow:visible;"/>
	
		<use xlink:href="#Nouveau_symbole" class="dropFaster" width="11.3" height="15.4" x="-5.7" y="-7.7" transform="matrix(1 0 0 -1 662.9153 600.613)" style="overflow:visible;"/>
	
		<use xlink:href="#Nouveau_symbole" class="dropFaster" width="11.3" height="15.4" x="-5.7" y="-7.7" transform="matrix(1 0 0 -1 938.9141 726.5837)" style="overflow:visible;"/>
	
		<use xlink:href="#Nouveau_symbole"  width="11.3" height="15.4" x="-5.7" y="-7.7" transform="matrix(1 0 0 -1 852.5838 665.1114)" style="overflow:visible;"/>
	
		<use xlink:href="#Nouveau_symbole" class="dropFast" width="11.3" height="15.4" x="-5.7" y="-7.7" transform="matrix(1 0 0 -1 1005.0946 579.3465)" style="overflow:visible;"/>
	
		<use xlink:href="#Nouveau_symbole" class="dropFaster" width="11.3" height="15.4" x="-5.7" y="-7.7" transform="matrix(1 0 0 -1 635.0997 463.1707)" style="overflow:visible;"/>
	
		<use xlink:href="#Nouveau_symbole" class="dropFast" width="11.3" height="15.4" x="-5.7" y="-7.7" transform="matrix(1 0 0 -1 1131.2145 555.5574)" style="overflow:visible;"/>
	
		<use xlink:href="#Nouveau_symbole" class="dropFaster" width="11.3" height="15.4" x="-5.7" y="-7.7" transform="matrix(1 0 0 -1 1160.9856 724.2664)" style="overflow:visible;"/>
	
		<use xlink:href="#Nouveau_symbole" class="dropFast" width="11.3" height="15.4" x="-5.7" y="-7.7" transform="matrix(1 0 0 -1 1057.9822 743.2012)" style="overflow:visible;"/>
</g>
</svg>
