<svg id="Layer_1" data-name="Layer 1" xmlns="http://www.w3.org/2000/svg" viewBox="0 0 206.31 206.3"><title>error</title><path d="M243.17,199.93c.53.49,1,.87,1.39,1.29q27.54,27.54,55.1,55.05a11,11,0,0,1,3.49,7.47,9.92,9.92,0,0,1-2.91,7.58C290.6,281,281,290.64,271.3,300.22c-3.29,3.24-7.21,3.61-11.42,2a10.06,10.06,0,0,1-3.17-2.4Q228.85,272,201,244.15c-.3-.3-.56-.66-.92-1.11-.45.43-.79.74-1.11,1.06Q171.14,272,143.28,299.86a10.55,10.55,0,0,1-7.32,3.29,9.85,9.85,0,0,1-7.33-2.93C119,290.6,109.38,281,99.83,271.36c-3.32-3.36-3.65-7.37-2-11.51a10.23,10.23,0,0,1,2.41-3.16Q128,228.87,155.8,201.1a10.82,10.82,0,0,1,1.12-.86l.17-.53a5.81,5.81,0,0,1-1.21-.73q-27.81-27.77-55.61-55.55A10.73,10.73,0,0,1,96.85,136a9.92,9.92,0,0,1,3-7.44c9.59-9.57,19.14-19.19,28.77-28.73,3.47-3.44,7.69-3.7,11.85-2a10,10,0,0,1,3.07,2.34q27.86,27.8,55.67,55.65a13,13,0,0,1,.91,1.17c.44-.53.69-.89,1-1.19Q228.9,128,256.72,100.14a10.58,10.58,0,0,1,7.43-3.29,10,10,0,0,1,7.45,3q14.28,14.3,28.57,28.59a10.49,10.49,0,0,1-.22,14.78q-25.11,25-50.17,50.15Z" transform="translate(-96.85 -96.85)"/></svg>