<?xml version="1.0" encoding="utf-8"?>
<!-- Generator: Adobe Illustrator 19.1.1, SVG Export Plug-In . SVG Version: 6.00 Build 0)  -->
<svg version="1.1" baseProfile="tiny" id="Calque_2"
	 xmlns="http://www.w3.org/2000/svg" xmlns:xlink="http://www.w3.org/1999/xlink" x="0px" y="0px" viewBox="0 0 1366 768"
	 xml:space="preserve">
	  <style type="text/css">
	
	.flakeFaster, .flakeFast, .flakeMedium, .flakeSlow, .flakeSlower{
		position:absolute;
		transform:translateY(-800px);
	}

	.flakeFaster{animation :flakeArrival 8s linear infinite;animation-delay:8s;}
	.flakeFast{animation :flakeArrival 15s linear infinite;animation-delay:5s;}
	.flakeMedium{animation :flakeArrival 20s linear infinite;animation-delay:5s;}
	.flakeSlow{animation :flakeArrival 30s linear infinite;animation-delay:9s;}
	.flakeSlower{animation :flakeArrival 40s linear infinite;animation-delay:6s;}

	@keyframes flakeArrival {
   		0%{transfrom: translateY(0);}
    	100%{transform: translateY(900px);}
	}	
</style>
<g id="Nouveau_symbole_1">
	<polygon class="flakeFaster" fill="#59222A" points="1159,464.1 1153.1,460.8 1157.4,457.9 1156.7,456.8 1151.8,460 1144.8,456 1151.8,452 
		1156.7,455.2 1157.4,454.1 1153.1,451.3 1158.9,447.9 1158.2,446.8 1152.3,450.2 1152.1,444.9 1150.8,445 1151,451 1144.1,454.9 
		1144.1,446.9 1149.4,444.2 1148.8,443.1 1144.1,445.4 1144.1,438.7 1142.8,438.7 1142.8,445.4 1138.2,443.1 1137.6,444.2 
		1142.8,446.8 1142.8,454.9 1135.9,450.9 1136.2,445 1134.8,444.9 1134.6,450.1 1128.8,446.8 1128.2,448 1133.9,451.3 1129.6,454.1 
		1130.3,455.2 1135.2,452 1142.2,456 1135.2,460.1 1130.3,456.8 1129.6,457.9 1133.9,460.8 1128.1,464.2 1128.8,465.3 1134.6,462 
		1134.8,467.1 1136.1,467.1 1135.9,461.2 1142.8,457.2 1142.8,465.3 1137.5,467.9 1138.1,469.1 1142.8,466.8 1142.8,473.3 
		1144.1,473.3 1144.1,466.7 1148.8,469.1 1149.4,467.9 1144.1,465.3 1144.1,457.1 1151.1,461.2 1150.8,467.1 1152.2,467.1 
		1152.4,461.9 1158.3,465.3 	"/>
</g>
<g>
	<g>
		<polygon class="flakeFast" fill="#59222A" points="204.4,147.8 199.7,145.1 203.2,142.9 202.6,142 198.7,144.6 193.1,141.3 198.7,138.1 202.6,140.7 
			203.2,139.8 199.7,137.5 204.3,134.9 203.8,133.9 199.1,136.7 198.9,132.5 197.9,132.5 198,137.3 192.5,140.5 192.5,134 
			196.8,131.9 196.3,131 192.5,132.8 192.5,127.5 191.5,127.5 191.5,132.8 187.8,131 187.3,131.9 191.5,134 191.5,140.4 186,137.2 
			186.2,132.5 185.1,132.5 184.9,136.6 180.3,134 179.8,134.9 184.4,137.5 180.9,139.8 181.5,140.7 185.4,138.1 191,141.3 
			185.4,144.6 181.5,142 180.9,142.9 184.4,145.2 179.7,147.9 180.3,148.8 184.9,146.1 185.1,150.2 186.2,150.2 186,145.5 
			191.5,142.3 191.5,148.7 187.3,150.8 187.8,151.8 191.5,149.9 191.5,155.2 192.5,155.2 192.5,149.9 196.3,151.8 196.8,150.8 
			192.5,148.7 192.5,142.2 198.1,145.5 197.9,150.2 199,150.2 199.2,146 203.9,148.8 		"/>
	</g>
	<g>
		<polygon class="flakeMedium" fill="#59222A" points="398.3,132.3 393.6,129.6 397.1,127.3 396.5,126.4 392.6,129 387,125.8 392.6,122.6 396.5,125.2 
			397,124.3 393.6,122 398.2,119.3 397.7,118.4 392.9,121.1 392.8,116.9 391.7,116.9 391.9,121.7 386.4,124.9 386.4,118.5 
			390.6,116.4 390.2,115.4 386.4,117.3 386.4,111.9 385.4,111.9 385.4,117.3 381.6,115.4 381.2,116.4 385.4,118.4 385.4,124.9 
			379.8,121.7 380,117 379,116.9 378.8,121.1 374.2,118.4 373.7,119.3 378.2,122 374.8,124.3 375.4,125.2 379.3,122.6 384.9,125.8 
			379.3,129 375.3,126.4 374.8,127.3 378.3,129.6 373.6,132.3 374.1,133.2 378.8,130.5 379,134.7 380,134.6 379.8,129.9 
			385.4,126.8 385.4,133.2 381.1,135.3 381.6,136.2 385.4,134.4 385.4,139.6 386.4,139.6 386.4,134.4 390.2,136.2 390.6,135.3 
			386.4,133.2 386.4,126.7 392,129.9 391.8,134.6 392.8,134.7 393,130.5 397.7,133.2 		"/>
	</g>
	<g>
		<polygon class="flakeSlow" fill="#59222A" points="298,243.4 293.3,240.7 296.8,238.4 296.2,237.5 292.3,240.1 286.7,236.9 292.3,233.7 296.2,236.3 
			296.8,235.4 293.3,233.1 297.9,230.4 297.4,229.5 292.7,232.2 292.5,228 291.5,228 291.6,232.8 286.2,236 286.2,229.6 
			290.4,227.5 289.9,226.5 286.2,228.4 286.2,223 285.1,223 285.1,228.4 281.4,226.5 280.9,227.5 285.1,229.5 285.1,236 
			279.6,232.8 279.8,228.1 278.7,228 278.5,232.2 273.9,229.5 273.4,230.4 278,233.1 274.5,235.4 275.1,236.3 279,233.7 
			284.6,236.9 279,240.1 275.1,237.5 274.5,238.4 278,240.7 273.4,243.4 273.9,244.3 278.6,241.6 278.7,245.8 279.8,245.7 
			279.6,241 285.1,237.8 285.1,244.3 280.9,246.4 281.4,247.3 285.1,245.5 285.1,250.7 286.2,250.7 286.2,245.5 289.9,247.3 
			290.4,246.4 286.2,244.3 286.2,237.8 291.7,241 291.5,245.7 292.6,245.8 292.8,241.6 297.5,244.3 		"/>
	</g>
	<g>
		<polygon class="flakeSlower" fill="#59222A" points="243.8,420.5 239.1,417.8 242.6,415.5 242,414.7 238.1,417.2 232.5,414 238.1,410.8 242,413.4 
			242.6,412.5 239.1,410.2 243.7,407.5 243.2,406.6 238.5,409.4 238.3,405.1 237.3,405.2 237.4,410 232,413.1 232,406.7 
			236.2,404.6 235.7,403.7 232,405.5 232,400.1 230.9,400.1 230.9,405.5 227.2,403.7 226.7,404.6 230.9,406.7 230.9,413.1 
			225.4,409.9 225.6,405.2 224.5,405.1 224.3,409.3 219.7,406.7 219.2,407.6 223.8,410.2 220.3,412.5 220.9,413.4 224.8,410.8 
			230.4,414 224.8,417.3 220.9,414.7 220.3,415.5 223.8,417.9 219.2,420.6 219.7,421.5 224.4,418.8 224.5,422.9 225.6,422.9 
			225.4,418.2 230.9,415 230.9,421.4 226.7,423.5 227.2,424.5 230.9,422.6 230.9,427.9 232,427.9 232,422.6 235.7,424.5 
			236.2,423.5 232,421.4 232,414.9 237.5,418.1 237.3,422.9 238.4,422.9 238.6,418.7 243.3,421.4 		"/>
	</g>
	<g>
		<polygon class="flakeFaster" fill="#59222A" points="230.8,560.1 226.1,557.4 229.6,555.1 229,554.3 225.1,556.8 219.5,553.6 225.1,550.4 229,553 
			229.6,552.1 226.1,549.8 230.7,547.1 230.2,546.2 225.5,549 225.3,544.7 224.3,544.8 224.4,549.6 219,552.7 219,546.3 
			223.2,544.2 222.7,543.3 219,545.1 219,539.8 217.9,539.8 217.9,545.1 214.2,543.3 213.7,544.2 217.9,546.3 217.9,552.7 
			212.4,549.5 212.6,544.8 211.5,544.7 211.3,548.9 206.7,546.3 206.2,547.2 210.8,549.8 207.3,552.1 207.9,553 211.8,550.4 
			217.4,553.6 211.8,556.9 207.9,554.3 207.3,555.1 210.8,557.5 206.2,560.2 206.7,561.1 211.4,558.4 211.5,562.5 212.6,562.5 
			212.4,557.8 217.9,554.6 217.9,561 213.7,563.1 214.2,564.1 217.9,562.2 217.9,567.5 219,567.5 219,562.2 222.7,564.1 
			223.2,563.1 219,561 219,554.5 224.5,557.7 224.3,562.5 225.4,562.5 225.6,558.3 230.3,561 		"/>
	</g>
	<g>
		<polygon class="flakeFast" fill="#59222A" points="395.8,635.3 391.1,632.6 394.6,630.3 394,629.4 390.1,632 384.5,628.8 390.1,625.6 394,628.2 
			394.6,627.3 391.1,625 395.7,622.3 395.2,621.4 390.5,624.1 390.3,619.9 389.2,619.9 389.4,624.7 383.9,627.9 383.9,621.5 
			388.2,619.4 387.7,618.4 383.9,620.3 383.9,614.9 382.9,614.9 382.9,620.3 379.2,618.4 378.7,619.4 382.9,621.4 382.9,627.8 
			377.4,624.7 377.6,619.9 376.5,619.9 376.3,624.1 371.7,621.4 371.2,622.3 375.8,625 372.3,627.3 372.9,628.2 376.8,625.6 
			382.4,628.8 376.8,632 372.9,629.4 372.3,630.3 375.8,632.6 371.1,635.3 371.7,636.2 376.3,633.5 376.5,637.7 377.5,637.6 
			377.4,632.9 382.9,629.7 382.9,636.2 378.7,638.3 379.1,639.2 382.9,637.4 382.9,642.6 383.9,642.6 383.9,637.4 387.7,639.2 
			388.2,638.3 383.9,636.2 383.9,629.7 389.5,632.9 389.3,637.6 390.4,637.7 390.6,633.5 395.3,636.2 		"/>
	</g>
	<g>
		<polygon class="flakeMedium" fill="#59222A" points="358.7,431.3 354,428.6 357.5,426.3 356.9,425.4 353,428 347.4,424.8 353,421.6 356.9,424.2 
			357.5,423.3 354,421 358.6,418.3 358.1,417.4 353.4,420.1 353.2,415.9 352.1,415.9 352.3,420.7 346.8,423.9 346.8,417.5 
			351.1,415.4 350.6,414.4 346.8,416.3 346.8,410.9 345.8,410.9 345.8,416.3 342.1,414.4 341.6,415.4 345.8,417.4 345.8,423.9 
			340.2,420.7 340.5,416 339.4,415.9 339.2,420.1 334.6,417.4 334.1,418.3 338.7,421 335.2,423.3 335.8,424.2 339.7,421.6 
			345.3,424.8 339.7,428 335.8,425.4 335.2,426.3 338.7,428.6 334,431.3 334.6,432.2 339.2,429.5 339.4,433.7 340.4,433.6 
			340.3,428.9 345.8,425.7 345.8,432.2 341.6,434.3 342,435.2 345.8,433.4 345.8,438.6 346.8,438.6 346.8,433.4 350.6,435.2 
			351.1,434.3 346.8,432.2 346.8,425.7 352.4,428.9 352.2,433.6 353.3,433.7 353.5,429.5 358.2,432.2 		"/>
	</g>
	<g>
		<polygon class="flakeSlow" fill="#59222A" points="519.3,160.3 514.6,157.6 518.1,155.3 517.5,154.4 513.6,157 508,153.8 513.6,150.5 517.5,153.1 
			518.1,152.3 514.6,150 519.2,147.3 518.7,146.4 513.9,149.1 513.8,144.9 512.7,144.9 512.9,149.7 507.4,152.9 507.4,146.4 
			511.6,144.3 511.2,143.4 507.4,145.2 507.4,139.9 506.4,139.9 506.4,145.2 502.6,143.4 502.2,144.3 506.4,146.4 506.4,152.8 
			500.8,149.6 501.1,144.9 500,144.9 499.8,149 495.2,146.4 494.7,147.3 499.2,150 495.8,152.3 496.4,153.1 500.3,150.5 
			505.9,153.8 500.3,157 496.4,154.4 495.8,155.3 499.3,157.6 494.6,160.3 495.1,161.2 499.8,158.5 500,162.6 501,162.6 
			500.9,157.9 506.4,154.7 506.4,161.2 502.1,163.2 502.6,164.2 506.4,162.3 506.4,167.6 507.4,167.6 507.4,162.3 511.2,164.2 
			511.6,163.2 507.4,161.2 507.4,154.7 513,157.9 512.8,162.6 513.8,162.7 514,158.5 518.8,161.2 		"/>
	</g>
	<g>
		<polygon class="flakeSlower" fill="#59222A" points="576.3,282.6 571.6,279.9 575.1,277.6 574.5,276.7 570.6,279.3 565,276.1 570.6,272.9 574.5,275.5 
			575.1,274.6 571.6,272.3 576.2,269.6 575.7,268.7 571,271.4 570.8,267.2 569.8,267.3 569.9,272 564.5,275.2 564.5,268.8 
			568.7,266.7 568.2,265.7 564.5,267.6 564.5,262.2 563.4,262.2 563.4,267.6 559.7,265.7 559.2,266.7 563.4,268.7 563.4,275.2 
			557.9,272 558.1,267.3 557,267.2 556.8,271.4 552.2,268.7 551.7,269.6 556.3,272.3 552.8,274.6 553.4,275.5 557.3,272.9 
			562.9,276.1 557.3,279.3 553.4,276.7 552.8,277.6 556.3,279.9 551.7,282.6 552.2,283.5 556.9,280.8 557,285 558.1,284.9 
			557.9,280.2 563.4,277.1 563.4,283.5 559.2,285.6 559.7,286.5 563.4,284.7 563.4,289.9 564.5,289.9 564.5,284.7 568.2,286.5 
			568.7,285.6 564.5,283.5 564.5,277 570.1,280.2 569.8,284.9 570.9,285 571.1,280.8 575.8,283.5 		"/>
	</g>
	<g>
		<polygon class="flakeFaster" fill="#59222A" points="455.6,340.5 450.9,337.8 454.4,335.5 453.8,334.6 449.9,337.2 444.3,334 449.9,330.8 453.8,333.4 
			454.4,332.5 450.9,330.2 455.5,327.5 455,326.6 450.2,329.3 450.1,325.1 449,325.1 449.2,329.9 443.7,333.1 443.7,326.6 
			447.9,324.6 447.5,323.6 443.7,325.5 443.7,320.1 442.7,320.1 442.7,325.4 438.9,323.6 438.5,324.6 442.7,326.6 442.7,333 
			437.1,329.9 437.4,325.1 436.3,325.1 436.1,329.3 431.5,326.6 431,327.5 435.5,330.2 432.1,332.5 432.7,333.4 436.6,330.8 
			442.2,334 436.6,337.2 432.7,334.6 432.1,335.5 435.6,337.8 430.9,340.5 431.4,341.4 436.1,338.7 436.3,342.9 437.3,342.8 
			437.2,338.1 442.7,334.9 442.7,341.4 438.4,343.5 438.9,344.4 442.7,342.6 442.7,347.8 443.7,347.8 443.7,342.6 447.5,344.4 
			447.9,343.5 443.7,341.4 443.7,334.9 449.3,338.1 449.1,342.8 450.1,342.9 450.3,338.7 455.1,341.4 		"/>
	</g>
	<g>
		<polygon class="flakeFast" fill="#59222A" points="520.3,468.3 515.6,465.6 519.1,463.3 518.5,462.4 514.6,465 509,461.8 514.6,458.6 518.5,461.2 
			519.1,460.3 515.6,458 520.2,455.3 519.7,454.4 515,457.2 514.8,452.9 513.7,453 513.9,457.8 508.4,460.9 508.4,454.5 
			512.7,452.4 512.2,451.4 508.4,453.3 508.4,447.9 507.4,447.9 507.4,453.3 503.7,451.4 503.2,452.4 507.4,454.5 507.4,460.9 
			501.8,457.7 502.1,453 501,452.9 500.8,457.1 496.2,454.5 495.7,455.4 500.3,458 496.8,460.3 497.4,461.2 501.3,458.6 
			506.9,461.8 501.3,465.1 497.4,462.4 496.8,463.3 500.3,465.7 495.6,468.4 496.2,469.3 500.8,466.6 501,470.7 502,470.7 
			501.9,466 507.4,462.8 507.4,469.2 503.2,471.3 503.6,472.2 507.4,470.4 507.4,475.7 508.4,475.7 508.4,470.4 512.2,472.2 
			512.7,471.3 508.4,469.2 508.4,462.7 514,465.9 513.8,470.7 514.9,470.7 515.1,466.5 519.8,469.2 		"/>
	</g>
	<g>
		<polygon class="flakeMedium" fill="#59222A" points="709,430.7 704.3,428 707.8,425.7 707.2,424.9 703.3,427.4 697.7,424.2 703.3,421 707.2,423.6 
			707.8,422.7 704.3,420.4 708.9,417.7 708.4,416.8 703.6,419.6 703.5,415.3 702.4,415.4 702.6,420.2 697.1,423.3 697.1,416.9 
			701.3,414.8 700.9,413.9 697.1,415.7 697.1,410.4 696.1,410.4 696.1,415.7 692.3,413.9 691.9,414.8 696.1,416.9 696.1,423.3 
			690.5,420.1 690.8,415.4 689.7,415.3 689.5,419.5 684.9,416.9 684.4,417.8 688.9,420.4 685.5,422.7 686.1,423.6 690,421 
			695.6,424.2 690,427.5 686.1,424.9 685.5,425.7 689,428.1 684.3,430.8 684.8,431.7 689.5,429 689.7,433.1 690.7,433.1 
			690.6,428.4 696.1,425.2 696.1,431.6 691.9,433.7 692.3,434.7 696.1,432.8 696.1,438.1 697.1,438.1 697.1,432.8 700.9,434.7 
			701.3,433.7 697.1,431.6 697.1,425.1 702.7,428.3 702.5,433.1 703.5,433.1 703.7,428.9 708.5,431.6 		"/>
	</g>
	<g>
		<polygon class="flakeSlow" fill="#59222A" points="783.7,206.2 779,203.5 782.5,201.2 781.9,200.3 778,202.9 772.4,199.7 778,196.5 781.9,199.1 
			782.5,198.2 779,195.9 783.6,193.2 783.1,192.3 778.4,195 778.2,190.8 777.2,190.9 777.3,195.6 771.9,198.8 771.9,192.4 
			776.1,190.3 775.6,189.3 771.9,191.2 771.9,185.8 770.8,185.8 770.8,191.2 767.1,189.3 766.6,190.3 770.8,192.4 770.8,198.8 
			765.3,195.6 765.5,190.9 764.4,190.8 764.2,195 759.6,192.3 759.1,193.3 763.7,195.9 760.2,198.2 760.8,199.1 764.7,196.5 
			770.3,199.7 764.7,202.9 760.8,200.3 760.2,201.2 763.7,203.5 759.1,206.2 759.6,207.2 764.3,204.4 764.4,208.6 765.5,208.6 
			765.3,203.8 770.8,200.7 770.8,207.1 766.6,209.2 767.1,210.1 770.8,208.3 770.8,213.5 771.9,213.5 771.9,208.3 775.6,210.1 
			776.1,209.2 771.9,207.1 771.9,200.6 777.5,203.8 777.2,208.5 778.3,208.6 778.5,204.4 783.2,207.1 		"/>
	</g>
	<g>
		<polygon class="flakeSlower" fill="#59222A" points="931.7,87.4 927,84.7 930.4,82.4 929.9,81.6 926,84.1 920.4,80.9 926,77.7 929.9,80.3 930.4,79.4 
			927,77.1 931.6,74.4 931.1,73.5 926.3,76.3 926.2,72 925.1,72.1 925.3,76.9 919.8,80 919.8,73.6 924,71.5 923.6,70.6 919.8,72.4 
			919.8,67.1 918.7,67.1 918.7,72.4 915,70.6 914.6,71.5 918.7,73.6 918.7,80 913.2,76.8 913.4,72.1 912.4,72 912.2,76.2 
			907.6,73.6 907,74.5 911.6,77.1 908.2,79.4 908.7,80.3 912.7,77.7 918.3,80.9 912.7,84.2 908.7,81.6 908.2,82.4 911.7,84.8 
			907,87.5 907.5,88.4 912.2,85.7 912.4,89.8 913.4,89.8 913.2,85.1 918.7,81.9 918.7,88.3 914.5,90.4 915,91.4 918.7,89.5 
			918.7,94.8 919.8,94.8 919.8,89.5 923.6,91.4 924,90.4 919.8,88.3 919.8,81.8 925.4,85 925.2,89.8 926.2,89.8 926.4,85.6 
			931.1,88.3 		"/>
	</g>
	<g>
		<polygon class="flakeFaster" fill="#59222A" points="1119.8,88.6 1115.1,86 1118.6,83.7 1118,82.8 1114.1,85.4 1108.5,82.2 1114.1,78.9 1118,81.5 
			1118.6,80.6 1115.1,78.3 1119.7,75.7 1119.2,74.8 1114.4,77.5 1114.3,73.3 1113.2,73.3 1113.4,78.1 1107.9,81.3 1107.9,74.8 
			1112.2,72.7 1111.7,71.8 1107.9,73.6 1107.9,68.3 1106.9,68.3 1106.9,73.6 1103.1,71.8 1102.7,72.7 1106.9,74.8 1106.9,81.2 
			1101.3,78 1101.6,73.3 1100.5,73.3 1100.3,77.4 1095.7,74.8 1095.2,75.7 1099.7,78.3 1096.3,80.6 1096.9,81.5 1100.8,78.9 
			1106.4,82.2 1100.8,85.4 1096.9,82.8 1096.3,83.7 1099.8,86 1095.1,88.7 1095.7,89.6 1100.3,86.9 1100.5,91 1101.5,91 
			1101.4,86.3 1106.9,83.1 1106.9,89.5 1102.7,91.6 1103.1,92.6 1106.9,90.7 1106.9,96 1107.9,96 1107.9,90.7 1111.7,92.6 
			1112.2,91.6 1107.9,89.5 1107.9,83 1113.5,86.3 1113.3,91 1114.3,91 1114.5,86.9 1119.3,89.6 		"/>
	</g>
	<g>
		<polygon class="flakeFast" fill="#59222A" points="1048.8,197 1044.1,194.3 1047.6,192.1 1047,191.2 1043.1,193.8 1037.5,190.5 1043.1,187.3 
			1047,189.9 1047.6,189 1044.1,186.7 1048.7,184.1 1048.2,183.1 1043.4,185.9 1043.3,181.7 1042.2,181.7 1042.4,186.5 
			1036.9,189.7 1036.9,183.2 1041.2,181.1 1040.7,180.2 1036.9,182 1036.9,176.7 1035.9,176.7 1035.9,182 1032.2,180.2 
			1031.7,181.1 1035.9,183.2 1035.9,189.6 1030.3,186.4 1030.6,181.7 1029.5,181.6 1029.3,185.8 1024.7,183.2 1024.2,184.1 
			1028.8,186.7 1025.3,189 1025.9,189.9 1029.8,187.3 1035.4,190.5 1029.8,193.8 1025.9,191.2 1025.3,192 1028.8,194.4 
			1024.1,197.1 1024.7,198 1029.3,195.3 1029.5,199.4 1030.5,199.4 1030.4,194.7 1035.9,191.5 1035.9,197.9 1031.7,200 1032.1,201 
			1035.9,199.1 1035.9,204.4 1036.9,204.4 1036.9,199.1 1040.7,201 1041.2,200 1036.9,197.9 1036.9,191.4 1042.5,194.6 
			1042.3,199.4 1043.4,199.4 1043.6,195.2 1048.3,198 		"/>
	</g>
	<g>
		<polygon class="flakeMedium" fill="#59222A" points="954,302.7 949.3,300 952.8,297.7 952.2,296.8 948.3,299.4 942.7,296.2 948.3,293 952.2,295.6 
			952.8,294.7 949.3,292.4 953.9,289.7 953.4,288.8 948.6,291.5 948.5,287.3 947.4,287.4 947.6,292.1 942.1,295.3 942.1,288.9 
			946.4,286.8 945.9,285.8 942.1,287.7 942.1,282.3 941.1,282.3 941.1,287.7 937.4,285.8 936.9,286.8 941.1,288.9 941.1,295.3 
			935.5,292.1 935.8,287.4 934.7,287.3 934.5,291.5 929.9,288.8 929.4,289.8 934,292.4 930.5,294.7 931.1,295.6 935,293 
			940.6,296.2 935,299.4 931.1,296.8 930.5,297.7 934,300 929.3,302.7 929.9,303.7 934.5,301 934.7,305.1 935.7,305.1 935.6,300.3 
			941.1,297.2 941.1,303.6 936.9,305.7 937.3,306.6 941.1,304.8 941.1,310 942.1,310 942.1,304.8 945.9,306.6 946.4,305.7 
			942.1,303.6 942.1,297.1 947.7,300.3 947.5,305 948.6,305.1 948.8,300.9 953.5,303.6 		"/>
	</g>
	<g>
		<polygon class="flakeSlow" fill="#59222A" points="692.9,113.8 688.3,111.1 691.7,108.8 691.1,107.9 687.2,110.5 681.7,107.3 687.2,104 691.1,106.6 
			691.7,105.8 688.3,103.5 692.9,100.8 692.3,99.9 687.6,102.6 687.5,98.4 686.4,98.4 686.6,103.2 681.1,106.4 681.1,99.9 
			685.3,97.8 684.8,96.9 681.1,98.8 681.1,93.4 680,93.4 680,98.7 676.3,96.9 675.8,97.8 680,99.9 680,106.3 674.5,103.1 
			674.7,98.4 673.7,98.4 673.5,102.6 668.9,99.9 668.3,100.8 672.9,103.5 669.4,105.8 670,106.6 673.9,104 679.5,107.3 674,110.5 
			670,107.9 669.4,108.8 672.9,111.1 668.3,113.8 668.8,114.7 673.5,112 673.6,116.2 674.7,116.1 674.5,111.4 680,108.2 680,114.7 
			675.8,116.7 676.3,117.7 680,115.8 680,121.1 681.1,121.1 681.1,115.8 684.8,117.7 685.3,116.7 681.1,114.7 681.1,108.2 
			686.7,111.4 686.4,116.1 687.5,116.2 687.7,112 692.4,114.7 		"/>
	</g>
	<g>
		<polygon class="flakeSlower" fill="#59222A" points="733.3,290.9 728.6,288.2 732.1,285.9 731.5,285 727.6,287.6 722,284.4 727.6,281.2 731.5,283.8 
			732.1,282.9 728.6,280.6 733.2,277.9 732.7,277 728,279.7 727.8,275.5 726.7,275.5 726.9,280.3 721.4,283.5 721.4,277 725.7,275 
			725.2,274 721.4,275.9 721.4,270.5 720.4,270.5 720.4,275.8 716.7,274 716.2,275 720.4,277 720.4,283.4 714.8,280.3 715.1,275.5 
			714,275.5 713.8,279.7 709.2,277 708.7,277.9 713.3,280.6 709.8,282.9 710.4,283.7 714.3,281.2 719.9,284.4 714.3,287.6 
			710.4,285 709.8,285.9 713.3,288.2 708.6,290.9 709.2,291.8 713.8,289.1 714,293.3 715,293.2 714.9,288.5 720.4,285.3 
			720.4,291.8 716.2,293.9 716.6,294.8 720.4,293 720.4,298.2 721.4,298.2 721.4,292.9 725.2,294.8 725.7,293.9 721.4,291.8 
			721.4,285.3 727,288.5 726.8,293.2 727.9,293.3 728.1,289.1 732.8,291.8 		"/>
	</g>
	<g>
		<polygon class="flakeFaster" fill="#59222A" points="773.6,564.1 768.9,561.4 772.4,559.1 771.8,558.2 767.9,560.8 762.3,557.6 767.9,554.4 771.8,557 
			772.4,556.1 768.9,553.8 773.5,551.1 773,550.2 768.2,552.9 768.1,548.7 767,548.8 767.2,553.5 761.7,556.7 761.7,550.3 
			765.9,548.2 765.5,547.2 761.7,549.1 761.7,543.7 760.7,543.7 760.7,549.1 756.9,547.2 756.5,548.2 760.7,550.2 760.7,556.7 
			755.1,553.5 755.4,548.8 754.3,548.7 754.1,552.9 749.5,550.2 749,551.2 753.5,553.8 750.1,556.1 750.7,557 754.6,554.4 
			760.2,557.6 754.6,560.8 750.7,558.2 750.1,559.1 753.6,561.4 748.9,564.1 749.4,565 754.1,562.3 754.3,566.5 755.3,566.4 
			755.2,561.7 760.7,558.6 760.7,565 756.5,567.1 756.9,568 760.7,566.2 760.7,571.4 761.7,571.4 761.7,566.2 765.5,568 
			765.9,567.1 761.7,565 761.7,558.5 767.3,561.7 767.1,566.4 768.1,566.5 768.3,562.3 773.1,565 		"/>
	</g>
	<g>
		<polygon class="flakeFast" fill="#59222A" points="597.5,609.6 592.8,606.9 596.2,604.6 595.7,603.7 591.8,606.3 586.2,603.1 591.8,599.8 
			595.7,602.4 596.2,601.5 592.8,599.2 597.4,596.6 596.9,595.7 592.1,598.4 592,594.2 590.9,594.2 591.1,599 585.6,602.2 
			585.6,595.7 589.8,593.6 589.4,592.7 585.6,594.5 585.6,589.2 584.5,589.2 584.5,594.5 580.8,592.7 580.4,593.6 584.5,595.7 
			584.5,602.1 579,598.9 579.2,594.2 578.2,594.2 578,598.3 573.4,595.7 572.9,596.6 577.4,599.2 574,601.5 574.5,602.4 
			578.5,599.8 584.1,603.1 578.5,606.3 574.5,603.7 574,604.6 577.5,606.9 572.8,609.6 573.3,610.5 578,607.8 578.2,611.9 
			579.2,611.9 579,607.2 584.5,604 584.5,610.5 580.3,612.5 580.8,613.5 584.5,611.6 584.5,616.9 585.6,616.9 585.6,611.6 
			589.4,613.5 589.8,612.5 585.6,610.4 585.6,604 591.2,607.2 591,611.9 592,611.9 592.2,607.8 596.9,610.5 		"/>
	</g>
	<g>
		<polygon class="flakeMedium" fill="#59222A" points="1151.1,674 1146.4,671.3 1149.8,669 1149.2,668.2 1145.3,670.7 1139.8,667.5 1145.3,664.3 
			1149.2,666.9 1149.8,666 1146.4,663.7 1151,661 1150.4,660.1 1145.7,662.9 1145.6,658.6 1144.5,658.7 1144.7,663.5 1139.2,666.6 
			1139.2,660.2 1143.4,658.1 1142.9,657.1 1139.2,659 1139.2,653.6 1138.1,653.6 1138.1,659 1134.4,657.1 1133.9,658.1 
			1138.1,660.2 1138.1,666.6 1132.6,663.4 1132.8,658.7 1131.8,658.6 1131.6,662.8 1127,660.2 1126.4,661.1 1131,663.7 1127.5,666 
			1128.1,666.9 1132,664.3 1137.7,667.5 1132.1,670.8 1128.1,668.1 1127.5,669 1131,671.4 1126.4,674.1 1126.9,675 1131.6,672.3 
			1131.7,676.4 1132.8,676.4 1132.6,671.7 1138.1,668.5 1138.1,674.9 1133.9,677 1134.4,677.9 1138.1,676.1 1138.1,681.4 
			1139.2,681.4 1139.2,676.1 1142.9,677.9 1143.4,677 1139.2,674.9 1139.2,668.4 1144.8,671.6 1144.6,676.4 1145.6,676.4 
			1145.8,672.2 1150.5,674.9 		"/>
	</g>
	<g>
		<polygon class="flakeSlow" fill="#59222A" points="1210.2,567.9 1205.5,565.2 1209,562.9 1208.4,562.1 1204.5,564.6 1198.9,561.4 1204.5,558.2 
			1208.4,560.8 1208.9,559.9 1205.5,557.6 1210.1,554.9 1209.6,554 1204.8,556.8 1204.7,552.5 1203.6,552.6 1203.8,557.4 
			1198.3,560.5 1198.3,554.1 1202.5,552 1202.1,551.1 1198.3,552.9 1198.3,547.6 1197.2,547.6 1197.2,552.9 1193.5,551.1 
			1193.1,552 1197.2,554.1 1197.2,560.5 1191.7,557.3 1191.9,552.6 1190.9,552.5 1190.7,556.7 1186.1,554.1 1185.6,555 
			1190.1,557.6 1186.7,559.9 1187.3,560.8 1191.2,558.2 1196.8,561.4 1191.2,564.7 1187.2,562.1 1186.7,562.9 1190.2,565.3 
			1185.5,568 1186,568.9 1190.7,566.2 1190.9,570.3 1191.9,570.3 1191.7,565.6 1197.2,562.4 1197.2,568.8 1193,570.9 1193.5,571.9 
			1197.2,570 1197.2,575.3 1198.3,575.3 1198.3,570 1202.1,571.9 1202.5,570.9 1198.3,568.8 1198.3,562.3 1203.9,565.5 
			1203.7,570.3 1204.7,570.3 1204.9,566.1 1209.6,568.8 		"/>
	</g>
	<g>
		<polygon class="flakeSlower" fill="#59222A" points="1207.7,399.5 1203,396.8 1206.5,394.5 1205.9,393.7 1202,396.2 1196.4,393 1202,389.8 
			1205.9,392.4 1206.5,391.5 1203,389.2 1207.6,386.5 1207.1,385.6 1202.3,388.4 1202.2,384.1 1201.1,384.2 1201.3,389 
			1195.8,392.1 1195.8,385.7 1200,383.6 1199.6,382.7 1195.8,384.5 1195.8,379.2 1194.8,379.2 1194.8,384.5 1191,382.7 
			1190.6,383.6 1194.8,385.7 1194.8,392.1 1189.2,388.9 1189.5,384.2 1188.4,384.1 1188.2,388.3 1183.6,385.7 1183.1,386.6 
			1187.6,389.2 1184.2,391.5 1184.8,392.4 1188.7,389.8 1194.3,393 1188.7,396.3 1184.8,393.7 1184.2,394.5 1187.7,396.9 
			1183,399.6 1183.5,400.5 1188.2,397.8 1188.4,401.9 1189.4,401.9 1189.3,397.2 1194.8,394 1194.8,400.4 1190.6,402.5 1191,403.5 
			1194.8,401.6 1194.8,406.9 1195.8,406.9 1195.8,401.6 1199.6,403.5 1200,402.5 1195.8,400.4 1195.8,393.9 1201.4,397.1 
			1201.2,401.9 1202.2,401.9 1202.4,397.7 1207.2,400.4 		"/>
	</g>
	<g>
		<polygon class="flakeFaster" fill="#59222A" points="1200,218.8 1195.3,216.1 1198.8,213.8 1198.2,212.9 1194.3,215.5 1188.7,212.3 1194.3,209.1 
			1198.2,211.7 1198.8,210.8 1195.3,208.5 1199.9,205.8 1199.4,204.9 1194.7,207.6 1194.5,203.4 1193.5,203.5 1193.6,208.3 
			1188.1,211.4 1188.1,205 1192.4,202.9 1191.9,201.9 1188.1,203.8 1188.1,198.4 1187.1,198.4 1187.1,203.8 1183.4,201.9 
			1182.9,202.9 1187.1,205 1187.1,211.4 1181.6,208.2 1181.8,203.5 1180.7,203.4 1180.5,207.6 1175.9,204.9 1175.4,205.9 
			1180,208.5 1176.5,210.8 1177.1,211.7 1181,209.1 1186.6,212.3 1181,215.6 1177.1,212.9 1176.5,213.8 1180,216.1 1175.3,218.8 
			1175.9,219.8 1180.5,217.1 1180.7,221.2 1181.8,221.2 1181.6,216.5 1187.1,213.3 1187.1,219.7 1182.9,221.8 1183.4,222.7 
			1187.1,220.9 1187.1,226.1 1188.1,226.1 1188.1,220.9 1191.9,222.7 1192.4,221.8 1188.1,219.7 1188.1,213.2 1193.7,216.4 
			1193.5,221.1 1194.6,221.2 1194.8,217 1199.5,219.7 		"/>
	</g>
	<g>
		<polygon class="flakeFast" fill="#59222A" points="1120,316.8 1115.3,314.1 1118.8,311.8 1118.2,311 1114.3,313.5 1108.7,310.3 1114.3,307.1 
			1118.2,309.7 1118.8,308.8 1115.3,306.5 1119.9,303.9 1119.4,302.9 1114.7,305.7 1114.5,301.4 1113.4,301.5 1113.6,306.3 
			1108.1,309.5 1108.1,303 1112.4,300.9 1111.9,300 1108.1,301.8 1108.1,296.5 1107.1,296.5 1107.1,301.8 1103.4,300 1102.9,300.9 
			1107.1,303 1107.1,309.4 1101.5,306.2 1101.8,301.5 1100.7,301.4 1100.5,305.6 1095.9,303 1095.4,303.9 1100,306.5 1096.5,308.8 
			1097.1,309.7 1101,307.1 1106.6,310.3 1101,313.6 1097.1,311 1096.5,311.8 1100,314.2 1095.3,316.9 1095.9,317.8 1100.5,315.1 
			1100.7,319.2 1101.7,319.2 1101.6,314.5 1107.1,311.3 1107.1,317.7 1102.9,319.8 1103.3,320.8 1107.1,318.9 1107.1,324.2 
			1108.1,324.2 1108.1,318.9 1111.9,320.8 1112.4,319.8 1108.1,317.7 1108.1,311.2 1113.7,314.4 1113.5,319.2 1114.6,319.2 
			1114.8,315 1119.5,317.7 		"/>
	</g>
	<g>
		<polygon class="flakeMedium" fill="#59222A" points="1219.2,107 1214.5,104.3 1217.9,102 1217.4,101.1 1213.5,103.7 1207.9,100.5 1213.4,97.3 
			1217.4,99.9 1217.9,99 1214.5,96.7 1219.1,94 1218.6,93.1 1213.8,95.8 1213.7,91.6 1212.6,91.6 1212.8,96.4 1207.3,99.6 
			1207.3,93.1 1211.5,91.1 1211.1,90.1 1207.3,92 1207.3,86.6 1206.2,86.6 1206.2,91.9 1202.5,90.1 1202.1,91.1 1206.2,93.1 
			1206.2,99.5 1200.7,96.4 1200.9,91.6 1199.9,91.6 1199.7,95.8 1195.1,93.1 1194.5,94 1199.1,96.7 1195.7,99 1196.2,99.9 
			1200.2,97.3 1205.8,100.5 1200.2,103.7 1196.2,101.1 1195.7,102 1199.2,104.3 1194.5,107 1195,107.9 1199.7,105.2 1199.8,109.4 
			1200.9,109.3 1200.7,104.6 1206.2,101.4 1206.2,107.9 1202,110 1202.5,110.9 1206.2,109.1 1206.2,114.3 1207.3,114.3 
			1207.3,109.1 1211.1,110.9 1211.5,110 1207.3,107.9 1207.3,101.4 1212.9,104.6 1212.7,109.3 1213.7,109.4 1213.9,105.2 
			1218.6,107.9 		"/>
	</g>
	<g>
		<polygon class="flakeSlow" fill="#59222A" points="915.5,169.1 910.8,166.4 914.3,164.2 913.7,163.3 909.8,165.9 904.2,162.6 909.8,159.4 913.7,162 
			914.3,161.1 910.8,158.8 915.4,156.2 914.9,155.2 910.2,158 910,153.8 909,153.8 909.1,158.6 903.7,161.8 903.7,155.3 
			907.9,153.2 907.4,152.3 903.7,154.1 903.7,148.8 902.6,148.8 902.6,154.1 898.9,152.3 898.4,153.2 902.6,155.3 902.6,161.7 
			897.1,158.5 897.3,153.8 896.2,153.8 896,157.9 891.4,155.3 890.9,156.2 895.5,158.8 892,161.1 892.6,162 896.5,159.4 
			902.1,162.7 896.5,165.9 892.6,163.3 892,164.2 895.5,166.5 890.9,169.2 891.4,170.1 896.1,167.4 896.2,171.5 897.3,171.5 
			897.1,166.8 902.6,163.6 902.6,170 898.4,172.1 898.9,173.1 902.6,171.2 902.6,176.5 903.7,176.5 903.7,171.2 907.4,173.1 
			907.9,172.1 903.7,170 903.7,163.5 909.2,166.8 909,171.5 910.1,171.5 910.3,167.3 915,170.1 		"/>
	</g>
	<g>
		<polygon class="flakeSlower" fill="#59222A" points="625,193.2 620.3,190.5 623.8,188.2 623.2,187.3 619.3,189.9 613.7,186.7 619.3,183.4 623.2,186 
			623.8,185.1 620.3,182.8 624.9,180.2 624.4,179.3 619.7,182 619.5,177.8 618.5,177.8 618.6,182.6 613.1,185.8 613.1,179.3 
			617.4,177.2 616.9,176.3 613.1,178.1 613.1,172.8 612.1,172.8 612.1,178.1 608.4,176.3 607.9,177.2 612.1,179.3 612.1,185.7 
			606.6,182.5 606.8,177.8 605.7,177.8 605.5,181.9 600.9,179.3 600.4,180.2 605,182.8 601.5,185.1 602.1,186 606,183.4 
			611.6,186.7 606,189.9 602.1,187.3 601.5,188.2 605,190.5 600.3,193.2 600.9,194.1 605.5,191.4 605.7,195.5 606.8,195.5 
			606.6,190.8 612.1,187.6 612.1,194.1 607.9,196.1 608.3,197.1 612.1,195.2 612.1,200.5 613.1,200.5 613.1,195.2 616.9,197.1 
			617.4,196.1 613.1,194 613.1,187.5 618.7,190.8 618.5,195.5 619.6,195.5 619.8,191.4 624.5,194.1 		"/>
	</g>
	<g>
		<polygon class="flakeFaster" fill="#59222A" points="324,340.1 319.3,337.4 322.8,335.1 322.2,334.2 318.3,336.8 312.7,333.6 318.3,330.3 322.2,332.9 
			322.8,332.1 319.3,329.7 323.9,327.1 323.4,326.2 318.6,328.9 318.5,324.7 317.4,324.7 317.6,329.5 312.1,332.7 312.1,326.2 
			316.3,324.1 315.9,323.2 312.1,325 312.1,319.7 311.1,319.7 311.1,325 307.3,323.2 306.9,324.1 311.1,326.2 311.1,332.6 
			305.5,329.4 305.7,324.7 304.7,324.7 304.5,328.8 299.9,326.2 299.4,327.1 303.9,329.8 300.5,332.1 301.1,332.9 305,330.3 
			310.6,333.6 305,336.8 301,334.2 300.5,335.1 304,337.4 299.3,340.1 299.8,341 304.5,338.3 304.7,342.4 305.7,342.4 305.5,337.7 
			311.1,334.5 311.1,341 306.8,343 307.3,344 311.1,342.1 311.1,347.4 312.1,347.4 312.1,342.1 315.9,344 316.3,343 312.1,340.9 
			312.1,334.5 317.7,337.7 317.5,342.4 318.5,342.5 318.7,338.3 323.4,341 		"/>
	</g>
	<g>
		<polygon class="flakeFast" fill="#59222A" points="171.8,680.1 167.1,677.4 170.6,675.1 170,674.2 166.1,676.8 160.5,673.6 166.1,670.4 170,673 
			170.6,672.1 167.1,669.8 171.7,667.1 171.2,666.2 166.5,668.9 166.3,664.7 165.3,664.7 165.4,669.5 160,672.7 160,666.2 
			164.2,664.2 163.7,663.2 160,665.1 160,659.7 158.9,659.7 158.9,665 155.2,663.2 154.7,664.2 158.9,666.2 158.9,672.6 
			153.4,669.5 153.6,664.7 152.5,664.7 152.3,668.9 147.7,666.2 147.2,667.1 151.8,669.8 148.3,672.1 148.9,673 152.8,670.4 
			158.4,673.6 152.8,676.8 148.9,674.2 148.3,675.1 151.8,677.4 147.1,680.1 147.7,681 152.3,678.3 152.5,682.5 153.6,682.4 
			153.4,677.7 158.9,674.5 158.9,681 154.7,683.1 155.2,684 158.9,682.2 158.9,687.4 160,687.4 160,682.2 163.7,684 164.2,683.1 
			160,681 160,674.5 165.5,677.7 165.3,682.4 166.4,682.5 166.6,678.3 171.3,681 		"/>
	</g>
	<g>
		<polygon class="flakeMedium" fill="#59222A" points="948.2,660.4 943.5,657.7 946.9,655.4 946.4,654.5 942.5,657.1 936.9,653.9 942.4,650.7 
			946.3,653.3 946.9,652.4 943.5,650.1 948.1,647.4 947.5,646.5 942.8,649.3 942.7,645 941.6,645.1 941.8,649.9 936.3,653 
			936.3,646.6 940.5,644.5 940.1,643.5 936.3,645.4 936.3,640 935.2,640 935.2,645.4 931.5,643.5 931.1,644.5 935.2,646.6 
			935.2,653 929.7,649.8 929.9,645.1 928.9,645 928.7,649.2 924.1,646.5 923.5,647.5 928.1,650.1 924.7,652.4 925.2,653.3 
			929.1,650.7 934.8,653.9 929.2,657.2 925.2,654.5 924.6,655.4 928.1,657.8 923.5,660.4 924,661.4 928.7,658.7 928.8,662.8 
			929.9,662.8 929.7,658.1 935.2,654.9 935.2,661.3 931,663.4 931.5,664.3 935.2,662.5 935.2,667.8 936.3,667.8 936.3,662.5 
			940.1,664.3 940.5,663.4 936.3,661.3 936.3,654.8 941.9,658 941.7,662.8 942.7,662.8 942.9,658.6 947.6,661.3 		"/>
	</g>
	<g>
		<polygon class="flakeSlow" fill="#59222A" points="920,349 915.3,346.3 918.7,344 918.1,343.1 914.2,345.7 908.7,342.5 914.2,339.3 918.1,341.8 
			918.7,341 915.3,338.7 919.9,336 919.3,335.1 914.6,337.8 914.5,333.6 913.4,333.6 913.6,338.4 908.1,341.6 908.1,335.1 
			912.3,333 911.8,332.1 908.1,334 908.1,328.6 907,328.6 907,333.9 903.3,332.1 902.8,333 907,335.1 907,341.5 901.5,338.4 
			901.7,333.6 900.7,333.6 900.5,337.8 895.9,335.1 895.3,336 899.9,338.7 896.4,341 897,341.8 900.9,339.3 906.5,342.5 901,345.7 
			897,343.1 896.4,344 899.9,346.3 895.3,349 895.8,349.9 900.5,347.2 900.6,351.4 901.7,351.3 901.5,346.6 907,343.4 907,349.9 
			902.8,352 903.3,352.9 907,351.1 907,356.3 908.1,356.3 908.1,351 911.8,352.9 912.3,352 908.1,349.9 908.1,343.4 913.7,346.6 
			913.5,351.3 914.5,351.4 914.7,347.2 919.4,349.9 		"/>
	</g>
	<g>
		<polygon class="flakeSlower" fill="#59222A" points="890.2,536.2 885.5,533.5 889,531.2 888.4,530.4 884.5,533 878.9,529.7 884.5,526.5 888.4,529.1 
			889,528.2 885.5,525.9 890.1,523.3 889.6,522.3 884.8,525.1 884.7,520.9 883.6,520.9 883.8,525.7 878.3,528.9 878.3,522.4 
			882.5,520.3 882.1,519.4 878.3,521.2 878.3,515.9 877.3,515.9 877.3,521.2 873.5,519.4 873.1,520.3 877.3,522.4 877.3,528.8 
			871.7,525.6 871.9,520.9 870.9,520.8 870.7,525 866.1,522.4 865.6,523.3 870.1,525.9 866.7,528.2 867.3,529.1 871.2,526.5 
			876.8,529.7 871.2,533 867.3,530.4 866.7,531.2 870.2,533.6 865.5,536.3 866,537.2 870.7,534.5 870.9,538.6 871.9,538.6 
			871.8,533.9 877.3,530.7 877.3,537.1 873,539.2 873.5,540.2 877.3,538.3 877.3,543.6 878.3,543.6 878.3,538.3 882.1,540.2 
			882.5,539.2 878.3,537.1 878.3,530.6 883.9,533.8 883.7,538.6 884.7,538.6 884.9,534.4 889.6,537.2 		"/>
	</g>
	<g>
		<polygon class="flakeFaster" fill="#59222A" points="717.3,680.1 712.6,677.4 716.1,675.1 715.5,674.2 711.6,676.8 706,673.6 711.6,670.3 715.5,672.9 
			716.1,672.1 712.6,669.8 717.2,667.1 716.7,666.2 712,668.9 711.8,664.7 710.8,664.7 710.9,669.5 705.5,672.7 705.5,666.2 
			709.7,664.1 709.2,663.2 705.5,665.1 705.5,659.7 704.4,659.7 704.4,665 700.7,663.2 700.2,664.1 704.4,666.2 704.4,672.6 
			698.9,669.4 699.1,664.7 698,664.7 697.8,668.9 693.2,666.2 692.7,667.1 697.3,669.8 693.8,672.1 694.4,672.9 698.3,670.3 
			703.9,673.6 698.3,676.8 694.4,674.2 693.8,675.1 697.3,677.4 692.7,680.1 693.2,681 697.9,678.3 698,682.5 699.1,682.4 
			698.9,677.7 704.4,674.5 704.4,681 700.2,683 700.7,684 704.4,682.1 704.4,687.4 705.5,687.4 705.5,682.1 709.2,684 709.7,683 
			705.5,681 705.5,674.5 711.1,677.7 710.8,682.4 711.9,682.5 712.1,678.3 716.8,681 		"/>
	</g>
	<g>
		<polygon class="flakeFast" fill="#59222A" points="67.7,570.2 63,567.5 66.5,565.2 65.9,564.3 62,566.9 56.4,563.7 62,560.5 65.9,563 66.5,562.2 
			63,559.9 67.6,557.2 67.1,556.3 62.3,559 62.2,554.8 61.1,554.8 61.3,559.6 55.8,562.8 55.8,556.3 60,554.2 59.6,553.3 
			55.8,555.2 55.8,549.8 54.8,549.8 54.8,555.1 51,553.3 50.6,554.2 54.8,556.3 54.8,562.7 49.2,559.5 49.4,554.8 48.4,554.8 
			48.2,559 43.6,556.3 43.1,557.2 47.6,559.9 44.2,562.2 44.8,563 48.7,560.5 54.3,563.7 48.7,566.9 44.8,564.3 44.2,565.2 
			47.7,567.5 43,570.2 43.5,571.1 48.2,568.4 48.4,572.6 49.4,572.5 49.2,567.8 54.8,564.6 54.8,571.1 50.5,573.1 51,574.1 
			54.8,572.3 54.8,577.5 55.8,577.5 55.8,572.2 59.6,574.1 60,573.1 55.8,571.1 55.8,564.6 61.4,567.8 61.2,572.5 62.2,572.6 
			62.4,568.4 67.1,571.1 		"/>
	</g>
	<g>
		<polygon class="flakeMedium" fill="#59222A" points="30.5,335.9 25.9,333.2 29.3,330.9 28.7,330 24.8,332.6 19.3,329.4 24.8,326.2 28.7,328.8 
			29.3,327.9 25.9,325.6 30.5,322.9 29.9,322 25.2,324.7 25,320.5 24,320.6 24.2,325.4 18.7,328.5 18.7,322.1 22.9,320 22.4,319 
			18.7,320.9 18.7,315.5 17.6,315.5 17.6,320.9 13.9,319 13.4,320 17.6,322.1 17.6,328.5 12.1,325.3 12.3,320.6 11.3,320.5 
			11.1,324.7 6.5,322 5.9,323 10.5,325.6 7,327.9 7.6,328.8 11.5,326.2 17.1,329.4 11.6,332.7 7.6,330 7,330.9 10.5,333.2 
			5.9,335.9 6.4,336.9 11.1,334.2 11.2,338.3 12.3,338.3 12.1,333.6 17.6,330.4 17.6,336.8 13.4,338.9 13.9,339.8 17.6,338 
			17.6,343.2 18.7,343.2 18.7,338 22.4,339.8 22.9,338.9 18.7,336.8 18.7,330.3 24.3,333.5 24,338.2 25.1,338.3 25.3,334.1 
			30,336.8 		"/>
	</g>
	<g>
		<polygon class="flakeSlow" fill="#59222A" points="19.5,85 14.8,82.3 18.3,80 17.7,79.1 13.8,81.7 8.2,78.5 13.8,75.3 17.7,77.9 18.3,77 14.8,74.7 
			19.4,72 18.9,71.1 14.2,73.9 14,69.6 13,69.7 13.1,74.5 7.7,77.6 7.7,71.2 11.9,69.1 11.4,68.1 7.7,70 7.7,64.6 6.6,64.6 6.6,70 
			2.9,68.1 2.4,69.1 6.6,71.2 6.6,77.6 1.1,74.4 1.3,69.7 0.2,69.6 0,73.8 -4.6,71.1 -5.1,72.1 -0.5,74.7 -4,77 -3.4,77.9 0.5,75.3 
			6.1,78.5 0.5,81.8 -3.4,79.1 -4,80 -0.5,82.4 -5.1,85 -4.6,86 0.1,83.3 0.2,87.4 1.3,87.4 1.1,82.7 6.6,79.5 6.6,85.9 2.4,88 
			2.9,88.9 6.6,87.1 6.6,92.4 7.7,92.4 7.7,87.1 11.4,88.9 11.9,88 7.7,85.9 7.7,79.4 13.2,82.6 13,87.4 14.1,87.4 14.3,83.2 
			19,85.9 		"/>
	</g>
	<g>
		<polygon class="flakeSlower" fill="#59222A" points="53.1,6.2 48.4,3.5 51.8,1.2 51.3,0.3 47.4,2.9 41.8,-0.3 47.4,-3.5 51.3,-1 51.8,-1.8 48.4,-4.1 
			53,-6.8 52.5,-7.7 47.7,-5 47.6,-9.2 46.5,-9.2 46.7,-4.4 41.2,-1.2 41.2,-7.7 45.4,-9.8 45,-10.7 41.2,-8.8 41.2,-14.2 
			40.1,-14.2 40.1,-8.9 36.4,-10.7 36,-9.8 40.1,-7.7 40.1,-1.3 34.6,-4.5 34.8,-9.2 33.8,-9.2 33.6,-5 29,-7.7 28.4,-6.8 33,-4.1 
			29.6,-1.8 30.1,-1 34.1,-3.6 39.7,-0.3 34.1,2.9 30.1,0.3 29.6,1.2 33.1,3.5 28.4,6.2 28.9,7.1 33.6,4.4 33.8,8.6 34.8,8.5 
			34.6,3.8 40.1,0.6 40.1,7.1 35.9,9.1 36.4,10.1 40.1,8.2 40.1,13.5 41.2,13.5 41.2,8.2 45,10.1 45.4,9.1 41.2,7.1 41.2,0.6 
			46.8,3.8 46.6,8.5 47.6,8.6 47.8,4.4 52.5,7.1 		"/>
	</g>
	<g>
		<polygon class="flakeFaster" fill="#59222A" points="120,282.5 115.3,279.8 118.8,277.5 118.2,276.6 114.3,279.2 108.7,276 114.3,272.8 118.2,275.4 
			118.8,274.5 115.3,272.2 119.9,269.5 119.4,268.6 114.7,271.4 114.5,267.1 113.5,267.2 113.6,272 108.1,275.1 108.1,268.7 
			112.4,266.6 111.9,265.6 108.1,267.5 108.1,262.1 107.1,262.1 107.1,267.5 103.4,265.6 102.9,266.6 107.1,268.7 107.1,275.1 
			101.6,271.9 101.8,267.2 100.7,267.1 100.5,271.3 95.9,268.6 95.4,269.6 100,272.2 96.5,274.5 97.1,275.4 101,272.8 106.6,276 
			101,279.3 97.1,276.6 96.5,277.5 100,279.8 95.3,282.5 95.9,283.5 100.5,280.8 100.7,284.9 101.8,284.9 101.6,280.2 107.1,277 
			107.1,283.4 102.9,285.5 103.4,286.4 107.1,284.6 107.1,289.8 108.1,289.8 108.1,284.6 111.9,286.4 112.4,285.5 108.1,283.4 
			108.1,276.9 113.7,280.1 113.5,284.9 114.6,284.9 114.8,280.7 119.5,283.4 		"/>
	</g>
	<g>
		<polygon class="flakeFast" fill="#59222A" points="258.6,15.4 253.9,12.7 257.4,10.4 256.8,9.5 252.9,12.1 247.3,8.9 252.9,5.6 256.8,8.2 257.4,7.3 
			253.9,5 258.5,2.4 258,1.5 253.3,4.2 253.1,0 252.1,0 252.2,4.8 246.8,8 246.8,1.5 251,-0.6 250.5,-1.5 246.8,0.3 246.8,-5 
			245.7,-5 245.7,0.3 242,-1.5 241.5,-0.6 245.7,1.5 245.7,7.9 240.2,4.7 240.4,0 239.3,0 239.1,4.1 234.5,1.5 234,2.4 238.6,5 
			235.1,7.3 235.7,8.2 239.6,5.6 245.2,8.9 239.6,12.1 235.7,9.5 235.1,10.4 238.6,12.7 234,15.4 234.5,16.3 239.2,13.6 239.3,17.7 
			240.4,17.7 240.2,13 245.7,9.8 245.7,16.3 241.5,18.3 242,19.3 245.7,17.4 245.7,22.7 246.8,22.7 246.8,17.4 250.5,19.3 251,18.3 
			246.8,16.2 246.8,9.7 252.4,13 252.1,17.7 253.2,17.7 253.4,13.6 258.1,16.3 		"/>
	</g>
	<g>
		<polygon class="flakeMedium" fill="#59222A" points="28.9,750.2 24.2,747.6 27.7,745.3 27.1,744.4 23.2,747 17.6,743.8 23.2,740.5 27.1,743.1 
			27.7,742.2 24.2,739.9 28.8,737.3 28.3,736.3 23.5,739.1 23.4,734.9 22.3,734.9 22.5,739.7 17,742.9 17,736.4 21.2,734.3 
			20.8,733.4 17,735.2 17,729.9 16,729.9 16,735.2 12.2,733.4 11.8,734.3 16,736.4 16,742.8 10.4,739.6 10.7,734.9 9.6,734.9 
			9.4,739 4.8,736.4 4.3,737.3 8.8,739.9 5.4,742.2 6,743.1 9.9,740.5 15.5,743.8 9.9,747 6,744.4 5.4,745.3 8.9,747.6 4.2,750.3 
			4.7,751.2 9.4,748.5 9.6,752.6 10.6,752.6 10.5,747.9 16,744.7 16,751.1 11.8,753.2 12.2,754.2 16,752.3 16,757.6 17,757.6 
			17,752.3 20.8,754.2 21.2,753.2 17,751.1 17,744.6 22.6,747.9 22.4,752.6 23.4,752.6 23.6,748.5 28.4,751.2 		"/>
	</g>
	<g>
		<polygon class="flakeSlow" fill="#59222A" points="488.8,760.5 484.1,757.8 487.6,755.5 487,754.7 483.1,757.2 477.5,754 483.1,750.8 487,753.4 
			487.6,752.5 484.1,750.2 488.7,747.6 488.2,746.6 483.5,749.4 483.3,745.2 482.2,745.2 482.4,750 476.9,753.2 476.9,746.7 
			481.2,744.6 480.7,743.7 476.9,745.5 476.9,740.2 475.9,740.2 475.9,745.5 472.2,743.7 471.7,744.6 475.9,746.7 475.9,753.1 
			470.3,749.9 470.6,745.2 469.5,745.1 469.3,749.3 464.7,746.7 464.2,747.6 468.8,750.2 465.3,752.5 465.9,753.4 469.8,750.8 
			475.4,754 469.8,757.3 465.9,754.7 465.3,755.5 468.8,757.9 464.1,760.6 464.7,761.5 469.3,758.8 469.5,762.9 470.5,762.9 
			470.4,758.2 475.9,755 475.9,761.4 471.7,763.5 472.1,764.5 475.9,762.6 475.9,767.9 476.9,767.9 476.9,762.6 480.7,764.5 
			481.2,763.5 476.9,761.4 476.9,754.9 482.5,758.1 482.3,762.9 483.4,762.9 483.6,758.7 488.3,761.5 		"/>
	</g>
	<g>
		<polygon class="flakeSlower" fill="#59222A" points="1297.6,746.6 1292.9,743.9 1296.4,741.6 1295.8,740.8 1291.9,743.3 1286.3,740.1 1291.9,736.9 
			1295.8,739.5 1296.3,738.6 1292.9,736.3 1297.5,733.7 1297,732.7 1292.2,735.5 1292.1,731.3 1291,731.3 1291.2,736.1 
			1285.7,739.3 1285.7,732.8 1289.9,730.7 1289.5,729.8 1285.7,731.6 1285.7,726.3 1284.6,726.3 1284.6,731.6 1280.9,729.8 
			1280.5,730.7 1284.6,732.8 1284.6,739.2 1279.1,736 1279.3,731.3 1278.3,731.2 1278.1,735.4 1273.5,732.8 1273,733.7 
			1277.5,736.3 1274.1,738.6 1274.7,739.5 1278.6,736.9 1284.2,740.1 1278.6,743.4 1274.6,740.8 1274.1,741.6 1277.6,744 
			1272.9,746.7 1273.4,747.6 1278.1,744.9 1278.3,749 1279.3,749 1279.1,744.3 1284.6,741.1 1284.6,747.5 1280.4,749.6 
			1280.9,750.6 1284.6,748.7 1284.6,754 1285.7,754 1285.7,748.7 1289.5,750.6 1289.9,749.6 1285.7,747.5 1285.7,741 1291.3,744.2 
			1291.1,749 1292.1,749 1292.3,744.8 1297,747.6 		"/>
	</g>
	<g>
		<polygon class="flakeFaster" fill="#59222A" points="1325.7,497.9 1321,495.2 1324.5,492.9 1323.9,492 1320,494.6 1314.4,491.4 1320,488.2 
			1323.9,490.8 1324.5,489.9 1321,487.6 1325.6,484.9 1325.1,484 1320.3,486.7 1320.2,482.5 1319.1,482.5 1319.3,487.3 
			1313.8,490.5 1313.8,484 1318,482 1317.6,481 1313.8,482.9 1313.8,477.5 1312.8,477.5 1312.8,482.8 1309,481 1308.6,482 
			1312.8,484 1312.8,490.4 1307.2,487.3 1307.5,482.5 1306.4,482.5 1306.2,486.7 1301.6,484 1301.1,484.9 1305.6,487.6 
			1302.2,489.9 1302.8,490.8 1306.7,488.2 1312.3,491.4 1306.7,494.6 1302.8,492 1302.2,492.9 1305.7,495.2 1301,497.9 
			1301.5,498.8 1306.2,496.1 1306.4,500.3 1307.4,500.2 1307.3,495.5 1312.8,492.3 1312.8,498.8 1308.6,500.9 1309,501.8 
			1312.8,500 1312.8,505.2 1313.8,505.2 1313.8,499.9 1317.6,501.8 1318,500.9 1313.8,498.8 1313.8,492.3 1319.4,495.5 
			1319.2,500.2 1320.2,500.3 1320.4,496.1 1325.2,498.8 		"/>
	</g>
	<g>
		<polygon class="flakeFast" fill="#59222A" points="1325.8,87.4 1321.1,84.8 1324.6,82.5 1324,81.6 1320.1,84.2 1314.5,81 1320.1,77.7 1324,80.3 
			1324.6,79.4 1321.1,77.1 1325.7,74.5 1325.2,73.5 1320.5,76.3 1320.3,72.1 1319.3,72.1 1319.4,76.9 1314,80.1 1314,73.6 
			1318.2,71.5 1317.7,70.6 1314,72.4 1314,67.1 1312.9,67.1 1312.9,72.4 1309.2,70.6 1308.7,71.5 1312.9,73.6 1312.9,80 
			1307.4,76.8 1307.6,72.1 1306.5,72.1 1306.3,76.2 1301.7,73.6 1301.2,74.5 1305.8,77.1 1302.3,79.4 1302.9,80.3 1306.8,77.7 
			1312.4,81 1306.8,84.2 1302.9,81.6 1302.3,82.5 1305.8,84.8 1301.1,87.5 1301.7,88.4 1306.4,85.7 1306.5,89.8 1307.6,89.8 
			1307.4,85.1 1312.9,81.9 1312.9,88.3 1308.7,90.4 1309.2,91.4 1312.9,89.5 1312.9,94.8 1314,94.8 1314,89.5 1317.7,91.4 
			1318.2,90.4 1314,88.3 1314,81.8 1319.5,85.1 1319.3,89.8 1320.4,89.8 1320.6,85.7 1325.3,88.4 		"/>
	</g>
	<g>
		<polygon class="flakeMedium" fill="#59222A" points="1342.2,293.1 1337.5,290.4 1341,288.1 1340.4,287.2 1336.5,289.8 1330.9,286.6 1336.5,283.4 
			1340.4,286 1341,285.1 1337.5,282.8 1342.1,280.1 1341.6,279.2 1336.9,282 1336.7,277.7 1335.7,277.8 1335.8,282.6 1330.3,285.7 
			1330.3,279.3 1334.6,277.2 1334.1,276.2 1330.3,278.1 1330.3,272.7 1329.3,272.7 1329.3,278.1 1325.6,276.2 1325.1,277.2 
			1329.3,279.3 1329.3,285.7 1323.8,282.5 1324,277.8 1322.9,277.7 1322.7,281.9 1318.1,279.3 1317.6,280.2 1322.2,282.8 
			1318.7,285.1 1319.3,286 1323.2,283.4 1328.8,286.6 1323.2,289.9 1319.3,287.2 1318.7,288.1 1322.2,290.5 1317.5,293.2 
			1318.1,294.1 1322.7,291.4 1322.9,295.5 1324,295.5 1323.8,290.8 1329.3,287.6 1329.3,294 1325.1,296.1 1325.6,297 1329.3,295.2 
			1329.3,300.5 1330.3,300.5 1330.3,295.2 1334.1,297 1334.6,296.1 1330.3,294 1330.3,287.5 1335.9,290.7 1335.7,295.5 
			1336.8,295.5 1337,291.3 1341.7,294 		"/>
	</g>
	<g>
		<polygon class="flakeSlow" fill="#59222A" points="1026.1,513 1021.4,510.3 1024.8,508 1024.3,507.2 1020.4,509.7 1014.8,506.5 1020.4,503.3 
			1024.3,505.9 1024.8,505 1021.4,502.7 1026,500 1025.5,499.1 1020.7,501.9 1020.6,497.6 1019.5,497.7 1019.7,502.5 1014.2,505.6 
			1014.2,499.2 1018.4,497.1 1018,496.2 1014.2,498 1014.2,492.7 1013.1,492.7 1013.1,498 1009.4,496.2 1009,497.1 1013.1,499.2 
			1013.1,505.6 1007.6,502.4 1007.8,497.7 1006.8,497.6 1006.6,501.8 1002,499.2 1001.4,500.1 1006,502.7 1002.6,505 1003.1,505.9 
			1007.1,503.3 1012.7,506.5 1007.1,509.8 1003.1,507.2 1002.6,508 1006.1,510.4 1001.4,513.1 1001.9,514 1006.6,511.3 
			1006.8,515.4 1007.8,515.4 1007.6,510.7 1013.1,507.5 1013.1,513.9 1008.9,516 1009.4,517 1013.1,515.1 1013.1,520.4 
			1014.2,520.4 1014.2,515.1 1018,517 1018.4,516 1014.2,513.9 1014.2,507.4 1019.8,510.6 1019.6,515.4 1020.6,515.4 1020.8,511.2 
			1025.5,513.9 		"/>
	</g>
	<g>
		<polygon class="flakeSlower" fill="#59222A" points="756.9,3.9 752.2,1.2 755.7,-1.1 755.1,-1.9 751.2,0.6 745.6,-2.6 751.2,-5.8 755.1,-3.2 
			755.7,-4.1 752.2,-6.4 756.8,-9.1 756.3,-10 751.6,-7.2 751.4,-11.5 750.4,-11.4 750.5,-6.6 745.1,-3.5 745.1,-9.9 749.3,-12 
			748.8,-12.9 745.1,-11.1 745.1,-16.4 744,-16.4 744,-11.1 740.3,-12.9 739.8,-12 744,-9.9 744,-3.5 738.5,-6.7 738.7,-11.4 
			737.6,-11.5 737.4,-7.3 732.8,-9.9 732.3,-9 736.9,-6.4 733.4,-4.1 734,-3.2 737.9,-5.8 743.5,-2.6 737.9,0.7 734,-1.9 
			733.4,-1.1 736.9,1.3 732.3,4 732.8,4.9 737.5,2.2 737.6,6.3 738.7,6.3 738.5,1.6 744,-1.6 744,4.8 739.8,6.9 740.3,7.9 744,6 
			744,11.3 745.1,11.3 745.1,6 748.8,7.9 749.3,6.9 745.1,4.8 745.1,-1.7 750.7,1.5 750.4,6.3 751.5,6.3 751.7,2.1 756.4,4.8 		"/>
	</g>
	<g>
		<polygon class="flakeFaster" fill="#59222A" points="530.5,42.2 525.8,39.6 529.3,37.3 528.7,36.4 524.8,39 519.2,35.8 524.8,32.5 528.7,35.1 
			529.3,34.2 525.8,31.9 530.4,29.3 529.9,28.4 525.2,31.1 525,26.9 524,26.9 524.1,31.7 518.7,34.9 518.7,28.4 522.9,26.3 
			522.4,25.4 518.7,27.2 518.7,21.9 517.6,21.9 517.6,27.2 513.9,25.4 513.4,26.3 517.6,28.4 517.6,34.8 512.1,31.6 512.3,26.9 
			511.2,26.9 511,31 506.4,28.4 505.9,29.3 510.5,31.9 507,34.2 507.6,35.1 511.5,32.5 517.1,35.8 511.5,39 507.6,36.4 507,37.3 
			510.5,39.6 505.9,42.3 506.4,43.2 511.1,40.5 511.2,44.6 512.3,44.6 512.1,39.9 517.6,36.7 517.6,43.1 513.4,45.2 513.9,46.2 
			517.6,44.3 517.6,49.6 518.7,49.6 518.7,44.3 522.4,46.2 522.9,45.2 518.7,43.1 518.7,36.6 524.2,39.9 524,44.6 525.1,44.6 
			525.3,40.5 530,43.2 		"/>
	</g>
	<g>
		<polygon class="flakeFast" fill="#59222A" points="1045.4,10.1 1040.8,7.4 1044.2,5.1 1043.6,4.3 1039.7,6.8 1034.2,3.6 1039.7,0.4 1043.6,3 
			1044.2,2.1 1040.8,-0.2 1045.4,-2.8 1044.8,-3.8 1040.1,-1 1040,-5.3 1038.9,-5.2 1039.1,-0.4 1033.6,2.8 1033.6,-3.7 
			1037.8,-5.8 1037.3,-6.7 1033.6,-4.9 1033.6,-10.2 1032.5,-10.2 1032.5,-4.9 1028.8,-6.7 1028.3,-5.8 1032.5,-3.7 1032.5,2.7 
			1027,-0.5 1027.2,-5.2 1026.2,-5.3 1026,-1.1 1021.4,-3.7 1020.8,-2.8 1025.4,-0.2 1021.9,2.1 1022.5,3 1026.4,0.4 1032,3.6 
			1026.5,6.9 1022.5,4.3 1021.9,5.1 1025.4,7.5 1020.8,10.2 1021.3,11.1 1026,8.4 1026.1,12.5 1027.2,12.5 1027,7.8 1032.5,4.6 
			1032.5,11 1028.3,13.1 1028.8,14.1 1032.5,12.2 1032.5,17.5 1033.6,17.5 1033.6,12.2 1037.3,14.1 1037.8,13.1 1033.6,11 
			1033.6,4.5 1039.2,7.7 1038.9,12.5 1040,12.5 1040.2,8.3 1044.9,11 		"/>
	</g>
</g>
<g>
	<g>
		<polygon class="flakeMedium" fill="#59222A" points="1321.9,194.1 1316,190.8 1320.3,187.9 1319.6,186.8 1314.7,190 1307.8,186 1314.7,182 
			1319.6,185.2 1320.3,184.1 1316,181.3 1321.8,177.9 1321.1,176.8 1315.2,180.2 1315,174.9 1313.7,175 1313.9,181 1307,184.9 
			1307,176.9 1312.3,174.2 1311.7,173.1 1307,175.4 1307,168.7 1305.7,168.7 1305.7,175.4 1301.1,173.1 1300.5,174.2 1305.7,176.8 
			1305.7,184.8 1298.8,180.9 1299.1,175 1297.7,174.9 1297.5,180.1 1291.7,176.8 1291.1,178 1296.8,181.3 1292.5,184.1 
			1293.2,185.2 1298.1,182 1305.1,186 1298.1,190.1 1293.2,186.8 1292.5,187.9 1296.8,190.8 1291,194.2 1291.7,195.3 1297.5,192 
			1297.7,197.1 1299,197.1 1298.8,191.2 1305.7,187.2 1305.7,195.3 1300.4,197.9 1301,199.1 1305.7,196.7 1305.7,203.3 1307,203.3 
			1307,196.7 1311.7,199.1 1312.3,197.9 1307,195.3 1307,187.1 1314,191.2 1313.7,197.1 1315.1,197.1 1315.3,191.9 1321.2,195.3 		
			"/>
	</g>
	<g>
		<polygon class="flakeSlow" fill="#59222A" points="1322.5,387.7 1316.6,384.3 1320.9,381.4 1320.2,380.3 1315.3,383.6 1308.4,379.6 1315.3,375.5 
			1320.2,378.8 1320.9,377.7 1316.6,374.8 1322.4,371.4 1321.7,370.3 1315.8,373.7 1315.6,368.4 1314.3,368.5 1314.5,374.5 
			1307.6,378.4 1307.6,370.4 1312.9,367.8 1312.3,366.6 1307.6,368.9 1307.6,362.2 1306.3,362.2 1306.3,368.9 1301.7,366.6 
			1301.1,367.8 1306.3,370.4 1306.3,378.4 1299.4,374.4 1299.7,368.5 1298.4,368.4 1298.1,373.7 1292.4,370.3 1291.7,371.5 
			1297.4,374.8 1293.1,377.7 1293.8,378.8 1298.7,375.5 1305.7,379.6 1298.7,383.6 1293.8,380.3 1293.1,381.4 1297.5,384.3 
			1291.6,387.7 1292.3,388.9 1298.1,385.5 1298.3,390.7 1299.6,390.6 1299.4,384.7 1306.3,380.7 1306.3,388.8 1301.1,391.4 
			1301.6,392.6 1306.3,390.3 1306.3,396.8 1307.6,396.8 1307.6,390.3 1312.3,392.6 1312.9,391.4 1307.6,388.8 1307.6,380.7 
			1314.6,384.7 1314.3,390.6 1315.7,390.7 1315.9,385.4 1321.8,388.8 		"/>
	</g>
	<g>
		<polygon class="flakeSlower" fill="#59222A" points="1087.7,728.4 1081.9,725 1086.2,722.1 1085.4,721 1080.6,724.2 1073.6,720.2 1080.6,716.2 
			1085.4,719.4 1086.2,718.3 1081.8,715.5 1087.6,712.1 1086.9,711 1081,714.4 1080.8,709.1 1079.5,709.2 1079.7,715.2 
			1072.9,719.1 1072.9,711.1 1078.2,708.5 1077.6,707.3 1072.9,709.6 1072.9,702.9 1071.5,702.9 1071.5,709.6 1066.9,707.3 
			1066.3,708.5 1071.5,711 1071.5,719.1 1064.6,715.1 1064.9,709.2 1063.6,709.1 1063.3,714.3 1057.6,711 1056.9,712.2 
			1062.7,715.5 1058.3,718.3 1059,719.4 1063.9,716.2 1070.9,720.2 1064,724.3 1059,721 1058.3,722.1 1062.7,725 1056.9,728.4 
			1057.5,729.5 1063.4,726.2 1063.6,731.3 1064.9,731.3 1064.7,725.4 1071.5,721.4 1071.5,729.5 1066.3,732.1 1066.9,733.3 
			1071.5,731 1071.5,737.5 1072.9,737.5 1072.9,730.9 1077.6,733.3 1078.2,732.1 1072.9,729.5 1072.9,721.3 1079.9,725.4 
			1079.6,731.3 1080.9,731.3 1081.1,726.1 1087,729.5 		"/>
	</g>
	<g>
		<polygon class="flakeFaster" fill="#59222A" points="838.9,701.4 833,698 837.3,695.2 836.6,694 831.7,697.3 824.7,693.3 831.7,689.2 836.6,692.5 
			837.3,691.4 833,688.5 838.8,685.2 838.1,684 832.2,687.4 832,682.2 830.7,682.2 830.9,688.2 824,692.2 824,684.1 829.3,681.5 
			828.7,680.3 824,682.6 824,675.9 822.7,675.9 822.7,682.6 818.1,680.3 817.5,681.5 822.7,684.1 822.7,692.1 815.8,688.1 
			816.1,682.2 814.7,682.1 814.5,687.4 808.7,684.1 808.1,685.2 813.8,688.5 809.5,691.4 810.2,692.5 815.1,689.2 822.1,693.3 
			815.1,697.3 810.2,694 809.5,695.1 813.8,698.1 808,701.4 808.7,702.6 814.5,699.2 814.7,704.4 816,704.3 815.8,698.4 
			822.7,694.5 822.7,702.5 817.4,705.1 818,706.3 822.7,704 822.7,710.6 824,710.6 824,704 828.7,706.3 829.3,705.1 824,702.5 
			824,694.4 831,698.4 830.7,704.3 832.1,704.4 832.3,699.1 838.2,702.5 		"/>
	</g>
	<g>
		<polygon class="flakeFast" fill="#59222A" points="280.6,725.1 274.7,721.8 279.1,718.9 278.3,717.8 273.4,721 266.5,717 273.4,713 278.3,716.2 
			279.1,715.1 274.7,712.2 280.5,708.9 279.8,707.7 273.9,711.2 273.7,705.9 272.4,705.9 272.6,711.9 265.8,715.9 265.8,707.8 
			271,705.2 270.4,704 265.8,706.4 265.8,699.7 264.4,699.7 264.4,706.3 259.8,704 259.2,705.2 264.4,707.8 264.4,715.8 
			257.5,711.8 257.8,705.9 256.5,705.9 256.2,711.1 250.5,707.8 249.8,708.9 255.5,712.2 251.2,715.1 251.9,716.2 256.8,713 
			263.8,717 256.8,721.1 251.9,717.8 251.2,718.9 255.6,721.8 249.7,725.2 250.4,726.3 256.2,722.9 256.4,728.1 257.8,728.1 
			257.5,722.2 264.4,718.2 264.4,726.2 259.2,728.8 259.8,730 264.4,727.7 264.4,734.3 265.8,734.3 265.8,727.7 270.4,730 
			271,728.8 265.8,726.2 265.8,718.1 272.7,722.1 272.5,728 273.8,728.1 274,722.9 279.9,726.3 		"/>
	</g>
	<g>
		<polygon class="flakeMedium" fill="#59222A" points="406.6,544.9 400.7,541.5 405,538.7 404.3,537.6 399.4,540.8 392.5,536.8 399.4,532.7 404.3,536 
			405,534.9 400.7,532 406.5,528.7 405.8,527.5 399.9,530.9 399.7,525.7 398.4,525.7 398.6,531.7 391.7,535.7 391.7,527.6 397,525 
			396.4,523.8 391.7,526.1 391.7,519.4 390.4,519.4 390.4,526.1 385.8,523.8 385.2,525 390.4,527.6 390.4,535.6 383.5,531.6 
			383.8,525.7 382.5,525.7 382.2,530.9 376.5,527.6 375.8,528.7 381.5,532 377.2,534.9 377.9,536 382.8,532.7 389.8,536.8 
			382.8,540.8 377.9,537.6 377.2,538.7 381.6,541.6 375.7,544.9 376.4,546.1 382.2,542.7 382.4,547.9 383.7,547.8 383.5,541.9 
			390.4,538 390.4,546 385.2,548.6 385.7,549.8 390.4,547.5 390.4,554.1 391.7,554.1 391.7,547.5 396.4,549.8 397,548.6 391.7,546 
			391.7,537.9 398.7,541.9 398.4,547.8 399.8,547.9 400,542.7 405.9,546 		"/>
	</g>
	<g>
		<polygon class="flakeSlow" fill="#59222A" points="137.5,446.9 131.7,443.5 136,440.6 135.3,439.5 130.4,442.8 123.4,438.8 130.4,434.7 135.3,438 
			136,436.9 131.7,434 137.4,430.6 136.8,429.5 130.8,432.9 130.7,427.6 129.3,427.7 129.5,433.7 122.7,437.6 122.7,429.6 128,427 
			127.4,425.8 122.7,428.1 122.7,421.4 121.4,421.4 121.4,428.1 116.7,425.8 116.1,427 121.4,429.6 121.4,437.6 114.5,433.6 
			114.7,427.7 113.4,427.6 113.2,432.9 107.4,429.5 106.7,430.7 112.5,434 108.1,436.9 108.9,438 113.8,434.7 120.8,438.8 
			113.8,442.8 108.9,439.5 108.1,440.6 112.5,443.5 106.7,446.9 107.4,448.1 113.2,444.7 113.4,449.9 114.7,449.8 114.5,443.9 
			121.4,439.9 121.4,448 116.1,450.6 116.7,451.8 121.4,449.5 121.4,456 122.7,456 122.7,449.5 127.4,451.8 128,450.6 122.7,448 
			122.7,439.9 129.7,443.9 129.4,449.8 130.7,449.9 131,444.6 136.9,448 		"/>
	</g>
	<g>
		<polygon class="flakeSlower" fill="#59222A" points="204.5,296.9 198.6,293.5 202.9,290.6 202.2,289.5 197.3,292.8 190.4,288.7 197.3,284.7 202.2,288 
			202.9,286.9 198.6,284 204.4,280.6 203.7,279.5 197.8,282.9 197.6,277.6 196.3,277.7 196.5,283.7 189.6,287.6 189.6,279.6 
			194.9,277 194.3,275.8 189.6,278.1 189.6,271.4 188.3,271.4 188.3,278.1 183.7,275.8 183.1,277 188.3,279.5 188.3,287.6 
			181.4,283.6 181.7,277.7 180.4,277.6 180.1,282.8 174.4,279.5 173.7,280.7 179.4,284 175.1,286.8 175.8,288 180.7,284.7 
			187.7,288.7 180.7,292.8 175.8,289.5 175.1,290.6 179.5,293.5 173.6,296.9 174.3,298 180.1,294.7 180.3,299.8 181.7,299.8 
			181.4,293.9 188.3,289.9 188.3,298 183.1,300.6 183.6,301.8 188.3,299.5 188.3,306 189.6,306 189.6,299.4 194.3,301.8 
			194.9,300.6 189.6,298 189.6,289.9 196.6,293.9 196.4,299.8 197.7,299.9 197.9,294.6 203.8,298 		"/>
	</g>
	<g>
		<polygon class="flakeFaster" fill="#59222A" points="156.2,87.9 150.4,84.5 154.7,81.6 154,80.5 149.1,83.8 142.1,79.8 149.1,75.7 154,79 154.7,77.9 
			150.4,75 156.1,71.6 155.5,70.5 149.5,73.9 149.3,68.6 148,68.7 148.2,74.7 141.4,78.6 141.4,70.6 146.7,68 146.1,66.8 
			141.4,69.1 141.4,62.4 140.1,62.4 140.1,69.1 135.4,66.8 134.8,68 140.1,70.6 140.1,78.6 133.2,74.6 133.4,68.7 132.1,68.6 
			131.9,73.9 126.1,70.5 125.4,71.7 131.2,75 126.8,77.9 127.6,79 132.5,75.7 139.5,79.8 132.5,83.8 127.6,80.5 126.8,81.6 
			131.2,84.5 125.4,87.9 126.1,89.1 131.9,85.7 132.1,90.9 133.4,90.8 133.2,84.9 140.1,80.9 140.1,89 134.8,91.6 135.4,92.8 
			140.1,90.5 140.1,97 141.4,97 141.4,90.5 146.1,92.8 146.7,91.6 141.4,89 141.4,80.9 148.4,84.9 148.1,90.8 149.4,90.9 
			149.7,85.6 155.6,89 		"/>
	</g>
	<g>
		<polygon class="flakeFast" fill="#59222A" points="69.7,186.1 63.9,182.8 68.2,179.9 67.5,178.8 62.6,182 55.6,178 62.6,174 67.5,177.2 68.2,176.1 
			63.9,173.3 69.6,169.9 69,168.8 63,172.2 62.8,166.9 61.5,167 61.7,172.9 54.9,176.9 54.9,168.9 60.2,166.2 59.6,165.1 
			54.9,167.4 54.9,160.7 53.6,160.7 53.6,167.3 48.9,165.1 48.3,166.2 53.6,168.8 53.6,176.8 46.7,172.9 46.9,167 45.6,166.9 
			45.4,172.1 39.6,168.8 38.9,170 44.7,173.3 40.3,176.1 41.1,177.2 46,174 53,178 46,182.1 41.1,178.8 40.3,179.9 44.7,182.8 
			38.9,186.2 39.5,187.3 45.4,183.9 45.6,189.1 46.9,189.1 46.7,183.2 53.6,179.2 53.6,187.3 48.3,189.9 48.9,191.1 53.6,188.7 
			53.6,195.3 54.9,195.3 54.9,188.7 59.6,191.1 60.2,189.9 54.9,187.3 54.9,179.1 61.9,183.2 61.6,189.1 62.9,189.1 63.2,183.9 
			69.1,187.3 		"/>
	</g>
	<g>
		<polygon class="flakeMedium" fill="#59222A" points="818.7,116 812.9,112.6 817.2,109.8 816.5,108.7 811.6,111.9 804.6,107.9 811.6,103.9 816.5,107.1 
			817.2,106 812.9,103.1 818.6,99.8 818,98.6 812,102.1 811.8,96.8 810.5,96.8 810.7,102.8 803.9,106.8 803.9,98.7 809.2,96.1 
			808.6,94.9 803.9,97.2 803.9,90.5 802.6,90.5 802.6,97.2 797.9,94.9 797.3,96.1 802.6,98.7 802.6,106.7 795.6,102.7 795.9,96.8 
			794.6,96.8 794.4,102 788.6,98.7 787.9,99.8 793.7,103.1 789.3,106 790.1,107.1 795,103.9 802,107.9 795,111.9 790.1,108.7 
			789.3,109.8 793.7,112.7 787.9,116.1 788.5,117.2 794.4,113.8 794.6,119 795.9,119 795.7,113.1 802.6,109.1 802.6,117.1 
			797.3,119.7 797.9,120.9 802.6,118.6 802.6,125.2 803.9,125.2 803.9,118.6 808.6,120.9 809.2,119.7 803.9,117.1 803.9,109 
			810.9,113 810.6,118.9 811.9,119 812.2,113.8 818.1,117.2 		"/>
	</g>
	<g>
		<polygon class="flakeSlow" fill="#59222A" points="601,364.3 595.2,361 599.5,358.1 598.8,357 593.9,360.2 586.9,356.2 593.9,352.2 598.8,355.4 
			599.5,354.3 595.2,351.4 600.9,348.1 600.3,347 594.4,350.4 594.2,345.1 592.8,345.1 593.1,351.1 586.2,355.1 586.2,347 
			591.5,344.4 590.9,343.2 586.2,345.6 586.2,338.9 584.9,338.9 584.9,345.5 580.2,343.2 579.6,344.4 584.9,347 584.9,355 
			578,351.1 578.2,345.2 576.9,345.1 576.7,350.3 570.9,347 570.3,348.1 576,351.4 571.6,354.3 572.4,355.4 577.3,352.2 
			584.3,356.2 577.3,360.3 572.4,357 571.6,358.1 576,361 570.2,364.4 570.9,365.5 576.7,362.1 576.9,367.3 578.2,367.3 578,361.4 
			584.9,357.4 584.9,365.5 579.6,368.1 580.2,369.2 584.9,366.9 584.9,373.5 586.2,373.5 586.2,366.9 590.9,369.2 591.5,368.1 
			586.2,365.4 586.2,357.3 593.2,361.3 592.9,367.3 594.2,367.3 594.5,362.1 600.4,365.5 		"/>
	</g>
	<g>
		<polygon class="flakeSlower" fill="#59222A" points="865.7,441.5 859.9,438.1 864.2,435.2 863.5,434.1 858.6,437.3 851.6,433.3 858.6,429.3 
			863.5,432.5 864.2,431.4 859.9,428.6 865.6,425.2 865,424.1 859,427.5 858.9,422.2 857.5,422.3 857.7,428.3 850.9,432.2 
			850.9,424.2 856.2,421.6 855.6,420.4 850.9,422.7 850.9,416 849.6,416 849.6,422.7 844.9,420.4 844.3,421.6 849.6,424.1 
			849.6,432.2 842.7,428.2 842.9,422.3 841.6,422.2 841.4,427.4 835.6,424.1 834.9,425.3 840.7,428.6 836.3,431.4 837.1,432.5 
			842,429.3 849,433.3 842,437.4 837.1,434.1 836.3,435.2 840.7,438.1 834.9,441.5 835.6,442.6 841.4,439.3 841.6,444.4 
			842.9,444.4 842.7,438.5 849.6,434.5 849.6,442.6 844.3,445.2 844.9,446.4 849.6,444.1 849.6,450.6 850.9,450.6 850.9,444 
			855.6,446.4 856.2,445.2 850.9,442.6 850.9,434.4 857.9,438.5 857.6,444.4 858.9,444.4 859.2,439.2 865.1,442.6 		"/>
	</g>
	<g>
		<polygon class="flakeFaster" fill="#59222A" points="1054.7,391 1048.8,387.7 1053.1,384.8 1052.4,383.7 1047.5,386.9 1040.5,382.9 1047.5,378.9 
			1052.4,382.1 1053.1,381 1048.8,378.2 1054.6,374.8 1053.9,373.7 1048,377.1 1047.8,371.8 1046.5,371.9 1046.7,377.8 
			1039.8,381.8 1039.8,373.8 1045.1,371.1 1044.5,370 1039.8,372.3 1039.8,365.6 1038.5,365.6 1038.5,372.2 1033.9,370 
			1033.3,371.1 1038.5,373.7 1038.5,381.7 1031.6,377.8 1031.9,371.9 1030.5,371.8 1030.3,377 1024.5,373.7 1023.9,374.9 
			1029.6,378.2 1025.3,381 1026,382.1 1030.9,378.9 1037.9,382.9 1030.9,387 1026,383.7 1025.3,384.8 1029.6,387.7 1023.8,391.1 
			1024.5,392.2 1030.3,388.8 1030.5,394 1031.8,394 1031.6,388.1 1038.5,384.1 1038.5,392.2 1033.2,394.8 1033.8,396 1038.5,393.6 
			1038.5,400.2 1039.8,400.2 1039.8,393.6 1044.5,396 1045.1,394.8 1039.8,392.2 1039.8,384 1046.8,388.1 1046.5,394 1047.9,394 
			1048.1,388.8 1054,392.2 		"/>
	</g>
	<g>
		<polygon class="flakeFast" fill="#59222A" points="638.2,511.6 632.3,508.2 636.6,505.4 635.9,504.3 631,507.5 624.1,503.5 631,499.5 635.9,502.7 
			636.6,501.6 632.3,498.7 638.1,495.4 637.4,494.2 631.5,497.7 631.3,492.4 630,492.4 630.2,498.4 623.3,502.4 623.3,494.3 
			628.6,491.7 628,490.5 623.3,492.8 623.3,486.1 622,486.1 622,492.8 617.4,490.5 616.8,491.7 622,494.3 622,502.3 615.1,498.3 
			615.4,492.4 614.1,492.4 613.8,497.6 608,494.3 607.4,495.4 613.1,498.7 608.8,501.6 609.5,502.7 614.4,499.5 621.4,503.5 
			614.4,507.5 609.5,504.3 608.8,505.4 613.1,508.3 607.3,511.6 608,512.8 613.8,509.4 614,514.6 615.3,514.5 615.1,508.7 
			622,504.7 622,512.7 616.7,515.3 617.3,516.5 622,514.2 622,520.8 623.3,520.8 623.3,514.2 628,516.5 628.6,515.3 623.3,512.7 
			623.3,504.6 630.3,508.6 630,514.5 631.4,514.6 631.6,509.4 637.5,512.8 		"/>
	</g>
	<g>
		<polygon class="flakeMedium" fill="#59222A" points="521.1,619.3 515.3,615.9 519.6,613 518.8,611.9 514,615.2 507,611.2 514,607.1 518.8,610.4 
			519.6,609.3 515.2,606.4 521,603 520.3,601.9 514.4,605.3 514.2,600 512.9,600.1 513.1,606.1 506.3,610 506.3,602 511.6,599.4 
			511,598.2 506.3,600.5 506.3,593.8 505,593.8 505,600.5 500.3,598.2 499.7,599.4 505,602 505,610 498,606 498.3,600.1 497,600 
			496.8,605.3 491,601.9 490.3,603.1 496.1,606.4 491.7,609.3 492.5,610.4 497.3,607.1 504.4,611.2 497.4,615.2 492.5,611.9 
			491.7,613 496.1,615.9 490.3,619.3 490.9,620.5 496.8,617.1 497,622.3 498.3,622.2 498.1,616.3 505,612.3 505,620.4 499.7,623 
			500.3,624.2 505,621.9 505,628.4 506.3,628.4 506.3,621.9 511,624.2 511.6,623 506.3,620.4 506.3,612.3 513.3,616.3 513,622.2 
			514.3,622.3 514.6,617 520.4,620.4 		"/>
	</g>
	<g>
		<polygon class="flakeSlow" fill="#59222A" points="608.4,722.7 602.6,719.3 606.9,716.4 606.2,715.3 601.3,718.6 594.3,714.6 601.3,710.5 
			606.2,713.8 606.9,712.7 602.6,709.8 608.3,706.4 607.7,705.3 601.7,708.7 601.6,703.4 600.2,703.5 600.5,709.5 593.6,713.4 
			593.6,705.4 598.9,702.8 598.3,701.6 593.6,703.9 593.6,697.2 592.3,697.2 592.3,703.9 587.6,701.6 587,702.8 592.3,705.4 
			592.3,713.4 585.4,709.4 585.6,703.5 584.3,703.4 584.1,708.7 578.3,705.3 577.7,706.5 583.4,709.8 579,712.7 579.8,713.8 
			584.7,710.5 591.7,714.6 584.7,718.6 579.8,715.3 579,716.4 583.4,719.3 577.6,722.7 578.3,723.9 584.1,720.5 584.3,725.7 
			585.6,725.6 585.4,719.7 592.3,715.7 592.3,723.8 587,726.4 587.6,727.6 592.3,725.3 592.3,731.8 593.6,731.8 593.6,725.3 
			598.3,727.6 598.9,726.4 593.6,723.8 593.6,715.7 600.6,719.7 600.3,725.6 601.6,725.7 601.9,720.4 607.8,723.8 		"/>
	</g>
	<g>
		<polygon class="flakeSlower" fill="#59222A" points="427.5,704.2 421.7,700.8 426,698 425.3,696.8 420.4,700.1 413.4,696.1 420.4,692 425.3,695.3 
			426,694.2 421.7,691.3 427.4,688 426.8,686.8 420.9,690.2 420.7,685 419.3,685 419.6,691 412.7,695 412.7,686.9 418,684.3 
			417.4,683.1 412.7,685.4 412.7,678.7 411.4,678.7 411.4,685.4 406.7,683.1 406.2,684.3 411.4,686.9 411.4,694.9 404.5,690.9 
			404.8,685 403.4,685 403.2,690.2 397.4,686.9 396.8,688 402.5,691.3 398.2,694.2 398.9,695.3 403.8,692 410.8,696.1 403.8,700.1 
			398.9,696.8 398.1,698 402.5,700.9 396.7,704.2 397.4,705.4 403.2,702 403.4,707.2 404.7,707.1 404.5,701.2 411.4,697.3 
			411.4,705.3 406.1,707.9 406.7,709.1 411.4,706.8 411.4,713.4 412.7,713.4 412.7,706.8 417.4,709.1 418,707.9 412.7,705.3 
			412.7,697.2 419.7,701.2 419.4,707.1 420.7,707.2 421,701.9 426.9,705.3 		"/>
	</g>
	<g>
		<polygon class="flakeFaster" fill="#59222A" points="1075.7,604.4 1069.8,601 1074.2,598.1 1073.4,597 1068.5,600.2 1061.6,596.2 1068.5,592.2 
			1073.4,595.4 1074.2,594.3 1069.8,591.5 1075.6,588.1 1074.9,587 1069,590.4 1068.8,585.1 1067.5,585.2 1067.7,591.2 
			1060.9,595.1 1060.9,587.1 1066.1,584.5 1065.6,583.3 1060.9,585.6 1060.9,578.9 1059.5,578.9 1059.5,585.6 1054.9,583.3 
			1054.3,584.5 1059.5,587 1059.5,595.1 1052.6,591.1 1052.9,585.2 1051.6,585.1 1051.3,590.3 1045.6,587 1044.9,588.2 
			1050.6,591.5 1046.3,594.3 1047,595.4 1051.9,592.2 1058.9,596.2 1051.9,600.3 1047,597 1046.3,598.1 1050.7,601 1044.8,604.4 
			1045.5,605.5 1051.4,602.2 1051.5,607.3 1052.9,607.3 1052.7,601.4 1059.5,597.4 1059.5,605.5 1054.3,608.1 1054.9,609.3 
			1059.5,607 1059.5,613.5 1060.9,613.5 1060.9,606.9 1065.6,609.3 1066.1,608.1 1060.9,605.5 1060.9,597.3 1067.8,601.4 
			1067.6,607.3 1068.9,607.3 1069.1,602.1 1075,605.5 		"/>
	</g>
	<g>
		<polygon class="flakeFast" fill="#59222A" points="1335.6,623.5 1329.8,620.1 1334.1,617.3 1333.4,616.2 1328.5,619.4 1321.5,615.4 1328.5,611.3 
			1333.4,614.6 1334.1,613.5 1329.8,610.6 1335.5,607.3 1334.9,606.1 1328.9,609.6 1328.7,604.3 1327.4,604.3 1327.6,610.3 
			1320.8,614.3 1320.8,606.2 1326.1,603.6 1325.5,602.4 1320.8,604.7 1320.8,598 1319.5,598 1319.5,604.7 1314.8,602.4 
			1314.2,603.6 1319.5,606.2 1319.5,614.2 1312.6,610.2 1312.8,604.3 1311.5,604.3 1311.3,609.5 1305.5,606.2 1304.8,607.3 
			1310.6,610.6 1306.2,613.5 1307,614.6 1311.9,611.3 1318.9,615.4 1311.9,619.4 1307,616.2 1306.2,617.3 1310.6,620.2 
			1304.8,623.5 1305.5,624.7 1311.3,621.3 1311.5,626.5 1312.8,626.4 1312.6,620.6 1319.5,616.6 1319.5,624.6 1314.2,627.2 
			1314.8,628.4 1319.5,626.1 1319.5,632.7 1320.8,632.7 1320.8,626.1 1325.5,628.4 1326.1,627.2 1320.8,624.6 1320.8,616.5 
			1327.8,620.5 1327.5,626.4 1328.8,626.5 1329.1,621.3 1335,624.6 		"/>
	</g>
	<g>
		<polygon class="flakeMedium" fill="#59222A" points="1256,637.3 1250.2,633.9 1254.5,631.1 1253.8,630 1248.9,633.2 1241.9,629.2 1248.9,625.2 
			1253.8,628.4 1254.5,627.3 1250.2,624.4 1255.9,621.1 1255.3,619.9 1249.3,623.4 1249.1,618.1 1247.8,618.1 1248,624.1 
			1241.2,628.1 1241.2,620 1246.5,617.4 1245.9,616.2 1241.2,618.5 1241.2,611.8 1239.9,611.8 1239.9,618.5 1235.2,616.2 
			1234.6,617.4 1239.9,620 1239.9,628 1233,624 1233.2,618.1 1231.9,618.1 1231.7,623.3 1225.9,620 1225.2,621.1 1231,624.4 
			1226.6,627.3 1227.4,628.4 1232.3,625.2 1239.3,629.2 1232.3,633.2 1227.4,630 1226.6,631.1 1231,634 1225.2,637.4 1225.8,638.5 
			1231.7,635.1 1231.9,640.3 1233.2,640.2 1233,634.4 1239.9,630.4 1239.9,638.4 1234.6,641 1235.2,642.2 1239.9,639.9 
			1239.9,646.5 1241.2,646.5 1241.2,639.9 1245.9,642.2 1246.5,641 1241.2,638.4 1241.2,630.3 1248.2,634.3 1247.9,640.2 
			1249.2,640.3 1249.5,635.1 1255.4,638.5 		"/>
	</g>
	<g>
		<polygon class="flakeSlow" fill="#59222A" points="1388.1,701.4 1382.3,698 1386.6,695.1 1385.9,694 1381,697.2 1374,693.2 1381,689.2 1385.9,692.5 
			1386.6,691.3 1382.3,688.5 1388,685.1 1387.4,684 1381.4,687.4 1381.2,682.1 1379.9,682.2 1380.1,688.2 1373.3,692.1 
			1373.3,684.1 1378.6,681.5 1378,680.3 1373.3,682.6 1373.3,675.9 1372,675.9 1372,682.6 1367.3,680.3 1366.7,681.5 1372,684 
			1372,692.1 1365,688.1 1365.3,682.2 1364,682.1 1363.8,687.3 1358,684 1357.3,685.2 1363.1,688.5 1358.7,691.3 1359.5,692.4 
			1364.4,689.2 1371.4,693.2 1364.4,697.3 1359.5,694 1358.7,695.1 1363.1,698 1357.3,701.4 1357.9,702.5 1363.8,699.2 1364,704.3 
			1365.3,704.3 1365.1,698.4 1372,694.4 1372,702.5 1366.7,705.1 1367.3,706.3 1372,704 1372,710.5 1373.3,710.5 1373.3,703.9 
			1378,706.3 1378.6,705.1 1373.3,702.5 1373.3,694.3 1380.3,698.4 1380,704.3 1381.3,704.3 1381.6,699.1 1387.5,702.5 		"/>
	</g>
	<g>
		<polygon class="flakeSlower" fill="#59222A" points="12.5,477.2 6.6,473.8 11,471 10.2,469.9 5.4,473.1 -1.6,469.1 5.3,465.1 10.2,468.3 11,467.2 
			6.6,464.3 12.4,461 11.7,459.8 5.8,463.3 5.6,458 4.3,458 4.5,464 -2.3,468 -2.3,459.9 2.9,457.3 2.4,456.1 -2.3,458.4 
			-2.3,451.7 -3.7,451.7 -3.7,458.4 -8.3,456.1 -8.9,457.3 -3.7,459.9 -3.7,467.9 -10.6,463.9 -10.3,458 -11.6,458 -11.9,463.2 
			-17.6,459.9 -18.3,461 -12.6,464.3 -16.9,467.2 -16.2,468.3 -11.3,465.1 -4.3,469.1 -11.2,473.1 -16.2,469.9 -16.9,471 
			-12.5,473.9 -18.3,477.3 -17.7,478.4 -11.8,475 -11.7,480.2 -10.3,480.1 -10.5,474.3 -3.7,470.3 -3.7,478.3 -8.9,480.9 
			-8.3,482.1 -3.7,479.8 -3.7,486.4 -2.3,486.4 -2.3,479.8 2.4,482.1 2.9,480.9 -2.3,478.3 -2.3,470.2 4.7,474.2 4.4,480.1 
			5.7,480.2 5.9,475 11.8,478.4 		"/>
	</g>
	<g>
		<polygon class="flakeFaster" fill="#59222A" points="63.6,643.9 57.8,640.5 62.1,637.6 61.4,636.5 56.5,639.8 49.5,635.8 56.5,631.7 61.4,635 
			62.1,633.9 57.8,631 63.5,627.6 62.9,626.5 57,629.9 56.8,624.6 55.4,624.7 55.7,630.7 48.8,634.6 48.8,626.6 54.1,624 
			53.5,622.8 48.8,625.1 48.8,618.4 47.5,618.4 47.5,625.1 42.8,622.8 42.2,624 47.5,626.6 47.5,634.6 40.6,630.6 40.8,624.7 
			39.5,624.6 39.3,629.9 33.5,626.5 32.9,627.7 38.6,631 34.2,633.9 35,635 39.9,631.7 46.9,635.8 39.9,639.8 35,636.5 34.2,637.6 
			38.6,640.5 32.8,643.9 33.5,645.1 39.3,641.7 39.5,646.9 40.8,646.8 40.6,640.9 47.5,636.9 47.5,645 42.2,647.6 42.8,648.8 
			47.5,646.5 47.5,653 48.8,653 48.8,646.5 53.5,648.8 54.1,647.6 48.8,645 48.8,636.9 55.8,640.9 55.5,646.8 56.8,646.9 
			57.1,641.6 63,645 		"/>
	</g>
	<g>
		<polygon class="flakeFast" fill="#59222A" points="180.7,776.5 174.8,773.2 179.1,770.3 178.4,769.2 173.5,772.4 166.6,768.4 173.5,764.4 
			178.4,767.6 179.1,766.5 174.8,763.6 180.6,760.3 179.9,759.1 174,762.6 173.8,757.3 172.5,757.3 172.7,763.3 165.8,767.3 
			165.8,759.2 171.1,756.6 170.5,755.4 165.8,757.8 165.8,751.1 164.5,751.1 164.5,757.7 159.9,755.4 159.3,756.6 164.5,759.2 
			164.5,767.2 157.6,763.2 157.9,757.3 156.6,757.3 156.3,762.5 150.6,759.2 149.9,760.3 155.6,763.6 151.3,766.5 152,767.6 
			156.9,764.4 163.9,768.4 156.9,772.5 152,769.2 151.3,770.3 155.7,773.2 149.8,776.6 150.5,777.7 156.3,774.3 156.5,779.5 
			157.8,779.5 157.6,773.6 164.5,769.6 164.5,777.6 159.3,780.2 159.8,781.4 164.5,779.1 164.5,785.7 165.8,785.7 165.8,779.1 
			170.5,781.4 171.1,780.2 165.8,777.6 165.8,769.5 172.8,773.5 172.5,779.4 173.9,779.5 174.1,774.3 180,777.7 		"/>
	</g>
	<g>
		<polygon class="flakeMedium" fill="#59222A" points="818.5,355.7 812.6,352.3 816.9,349.4 816.2,348.3 811.3,351.6 804.4,347.6 811.3,343.5 
			816.2,346.8 816.9,345.7 812.6,342.8 818.4,339.4 817.7,338.3 811.8,341.7 811.6,336.4 810.3,336.5 810.5,342.5 803.6,346.4 
			803.6,338.4 808.9,335.8 808.3,334.6 803.6,336.9 803.6,330.2 802.3,330.2 802.3,336.9 797.7,334.6 797.1,335.8 802.3,338.4 
			802.3,346.4 795.4,342.4 795.7,336.5 794.3,336.4 794.1,341.7 788.3,338.3 787.7,339.5 793.4,342.8 789.1,345.7 789.8,346.8 
			794.7,343.5 801.7,347.6 794.7,351.6 789.8,348.3 789.1,349.4 793.4,352.3 787.6,355.7 788.3,356.9 794.1,353.5 794.3,358.7 
			795.6,358.6 795.4,352.7 802.3,348.7 802.3,356.8 797,359.4 797.6,360.6 802.3,358.3 802.3,364.8 803.6,364.8 803.6,358.3 
			808.3,360.6 808.9,359.4 803.6,356.8 803.6,348.7 810.6,352.7 810.3,358.6 811.7,358.7 811.9,353.4 817.8,356.8 		"/>
	</g>
	<g>
		<polygon class="flakeSlow" fill="#59222A" points="454.3,223.5 448.5,220.1 452.8,217.2 452.1,216.1 447.2,219.4 440.2,215.3 447.2,211.3 
			452.1,214.6 452.8,213.5 448.4,210.6 454.2,207.2 453.6,206.1 447.6,209.5 447.4,204.2 446.1,204.3 446.3,210.3 439.5,214.2 
			439.5,206.2 444.8,203.6 444.2,202.4 439.5,204.7 439.5,198 438.2,198 438.2,204.7 433.5,202.4 432.9,203.6 438.2,206.1 
			438.2,214.2 431.2,210.2 431.5,204.3 430.2,204.2 430,209.4 424.2,206.1 423.5,207.3 429.3,210.6 424.9,213.5 425.7,214.6 
			430.6,211.3 437.6,215.4 430.6,219.4 425.7,216.1 424.9,217.2 429.3,220.1 423.5,223.5 424.1,224.7 430,221.3 430.2,226.4 
			431.5,226.4 431.3,220.5 438.2,216.5 438.2,224.6 432.9,227.2 433.5,228.4 438.2,226.1 438.2,232.6 439.5,232.6 439.5,226.1 
			444.2,228.4 444.8,227.2 439.5,224.6 439.5,216.5 446.5,220.5 446.2,226.4 447.5,226.5 447.8,221.2 453.7,224.6 		"/>
	</g>
	<g>
		<polygon class="flakeSlower" fill="#59222A" points="406.4,29.5 400.5,26.2 404.8,23.3 404.1,22.2 399.2,25.4 392.3,21.4 399.2,17.4 404.1,20.6 
			404.8,19.5 400.5,16.6 406.3,13.3 405.6,12.2 399.7,15.6 399.5,10.3 398.2,10.3 398.4,16.3 391.5,20.3 391.5,12.2 396.8,9.6 
			396.2,8.4 391.5,10.8 391.5,4.1 390.2,4.1 390.2,10.7 385.6,8.4 385,9.6 390.2,12.2 390.2,20.2 383.3,16.2 383.6,10.4 382.3,10.3 
			382,15.5 376.3,12.2 375.6,13.3 381.3,16.6 377,19.5 377.7,20.6 382.6,17.4 389.6,21.4 382.6,25.5 377.7,22.2 377,23.3 
			381.4,26.2 375.5,29.6 376.2,30.7 382,27.3 382.2,32.5 383.5,32.5 383.3,26.6 390.2,22.6 390.2,30.6 385,33.2 385.5,34.4 
			390.2,32.1 390.2,38.7 391.5,38.7 391.5,32.1 396.2,34.4 396.8,33.2 391.5,30.6 391.5,22.5 398.5,26.5 398.2,32.5 399.6,32.5 
			399.8,27.3 405.7,30.7 		"/>
	</g>
	<g>
		<polygon class="flakeFaster" fill="#59222A" points="1248.4,12.6 1242.5,9.3 1246.8,6.4 1246.1,5.3 1241.2,8.5 1234.3,4.5 1241.2,0.5 1246.1,3.7 
			1246.8,2.6 1242.5,-0.3 1248.3,-3.6 1247.6,-4.7 1241.7,-1.3 1241.5,-6.6 1240.2,-6.6 1240.4,-0.6 1233.5,3.4 1233.5,-4.7 
			1238.8,-7.3 1238.2,-8.5 1233.5,-6.1 1233.5,-12.8 1232.2,-12.8 1232.2,-6.2 1227.6,-8.5 1227,-7.3 1232.2,-4.7 1232.2,3.3 
			1225.3,-0.6 1225.6,-6.5 1224.2,-6.6 1224,-1.4 1218.2,-4.7 1217.6,-3.6 1223.3,-0.3 1219,2.6 1219.7,3.7 1224.6,0.5 1231.6,4.5 
			1224.6,8.6 1219.7,5.3 1219,6.4 1223.3,9.3 1217.5,12.7 1218.2,13.8 1224,10.4 1224.2,15.6 1225.5,15.6 1225.3,9.7 1232.2,5.7 
			1232.2,13.8 1226.9,16.4 1227.5,17.5 1232.2,15.2 1232.2,21.8 1233.5,21.8 1233.5,15.2 1238.2,17.5 1238.8,16.4 1233.5,13.7 
			1233.5,5.6 1240.5,9.6 1240.2,15.6 1241.6,15.6 1241.8,10.4 1247.7,13.8 		"/>
	</g>
</g>
</svg>
