<svg id="Layer_1" data-name="Layer 1" xmlns="http://www.w3.org/2000/svg" viewBox="0 0 1133.86 595.28">
    <defs><style>
        .color1{fill:#d93a45;}
        .sunElement{
            position:absolute;
            animation:sunArrival 4s linear;
        }
        .ray1{animation: ray1 1s linear infinite;}
        .ray2{animation: ray2 1s linear infinite;}
        .ray3{animation: ray3 1s linear infinite;}
        .ray4{animation: ray4 1s linear infinite;}
        .ray5{animation: ray5 1s linear infinite;}
        .ray6{animation: ray6 1s linear infinite;}
        .ray7{animation: ray7 1s linear infinite;}
        .ray8{animation: ray8 1s linear infinite;}
        .ray9{animation: ray9 1s linear infinite;}
        .ray10{animation: ray10 1s linear infinite;}
        .ray11{animation: ray11 1s linear infinite;}

        @keyframes sunArrival {
                0%{
                    opacity: 0;
                    transform: translateY(200%);
                }
                100%{
                    opacity: 1;
                	transform: translateY(0);
                }
            }
        @keyframes ray1{
            0%{transform: translate(0, 0);}
            50%{transform: translate(-4px, -15px);}
            100%{transform: translate(0, 0);}
        }
        @keyframes ray2{
            0%{transform: translate(0, 0);}
            50%{transform: translate(-15px, -2px);}
            100%{transform: translate(0, 0);}
        }
        @keyframes ray3{
            0%{transform: translate(0, 0);}
            50%{transform: translate(-14px, -6px);}
            100%{transform: translate(0, 0);}
        }
        @keyframes ray4{
            0%{transform: translate(0, 0);}
            50%{transform: translate(-11px, -10px);}
            100%{transform: translate(0, 0);}
        }
        @keyframes ray5{
            0%{transform: translate(0, 0);}
            50%{transform: translate(-8px, -13px);}
            100%{transform: translate(0, 0);}
        }
        @keyframes ray6{
            0%{transform: translate(0, 0);}
            50%{transform: translate(0, -15px);}
            100%{transform: translate(0, 0);}
        }
        @keyframes ray7{
            0%{transform: translate(0, 0);}
            50%{transform: translate(4px, -14px);}
            100%{transform: translate(0, 0);}
        }
        @keyframes ray8{
            0%{transform: translate(0, 0);}
            50%{transform: translate(8px, -12px);}
            100%{transform: translate(0, 0);}
        }
        @keyframes ray9{
            0%{transform: translate(0, 0);}
            50%{transform: translate(12px, -9px);}
            100%{transform: translate(0, 0);}
        }
        @keyframes ray10{
            0%{transform: translate(0, 0);}
            50%{transform: translate(14px, -6px);}
            100%{transform: translate(0, 0);}
        }
        @keyframes ray11{
            0%{transform: translate(0, 0);}
            50%{transform: translate(15px, -1px);}
            100%{transform: translate(0, 0);}
        }

    </style></defs>
    <title>sun-test4</title>
    <g class="sunElement">
    <path class="color1 ray ray1" d="M464.92,188.82c5.34,17.77,10.8,35.5,15.94,53.32,1.78,6.16,5.27,13.15-4.49,16.48-9.07,3.1-13.62-1.62-16-9.35Q443.67,194,427.31,138.53c-1.83-6.22-2-12.62,6-15.24,8.68-2.86,12.51,2.9,14.64,9.55,5.93,18.57,11.33,37.32,16.95,56Z"/>
    <path class="color1" d="M569.58,264.16c178.88-.13,324,144.77,324.12,323.65s-144.77,324-323.65,324.12l1,.06C392.14,912,247.13,767,247.13,588.1S392.14,264.22,571,264.22"/>
    <path class="color1 ray ray2" d="M161.31,526.72c18.51,1.26,37,2.4,55.52,3.86,6.39.51,14.16-.3,13.84,10-.29,9.58-6.32,12.17-14.37,11.64q-57.67-3.81-115.31-8c-6.47-.48-12.5-2.61-12.16-11,.38-9.13,7.12-10.69,14.09-10.34,19.47,1,38.92,2.54,58.37,3.87Z"/>
    <path class="color1 ray ray3" d="M193,419.41c17.49,6.19,35,12.27,52.44,18.65,6,2.21,13.72,3.52,10.64,13.36-2.86,9.15-9.36,10-17,7.35Q184.56,439.6,130.17,420c-6.1-2.2-11.34-5.88-8.76-13.82,2.82-8.69,9.73-8.38,16.35-6.17,18.49,6.19,36.8,12.91,55.18,19.42Z"/>
    <path class="color1 ray ray4" d="M262.86,312.89c13.9,12.29,27.88,24.48,41.64,36.92,4.76,4.3,11.4,8.4,4.87,16.37-6.08,7.41-12.43,5.79-18.49.46Q247.5,328.46,204.4,290c-4.83-4.32-8.32-9.69-3-16.1,5.87-7,12.16-4.13,17.47.4,14.83,12.66,29.29,25.75,43.9,38.67Z"/>
    <path class="color1 ray ray5" d="M351.39,237.73C362,252.91,372.82,268,383.31,283.32c3.63,5.29,9.14,10.82.93,17.05-7.63,5.8-13.44,2.75-18.09-3.85q-33.32-47.22-66.31-94.68c-3.7-5.33-5.84-11.36.87-16.34,7.34-5.45,12.79-1.19,16.9,4.45,11.48,15.76,22.51,31.85,33.72,47.81Z"/>
    <path class="color1 ray ray6" d="M588,175.32c-.3,18.55-.47,37.1-1,55.65-.17,6.41,1,14.12-9.27,14.34-9.59.2-12.49-5.68-12.37-13.75q.81-57.79,2-115.57c.14-6.48,2-12.62,10.31-12.71,9.14-.1,11,6.56,11.05,13.54,0,19.5-.52,39-.83,58.5Z"/>
    <path class="color1 ray ray7" d="M704.3,196.81c-4.89,17.9-9.65,35.83-14.73,53.67-1.76,6.17-2.5,13.94-12.54,11.6-9.34-2.18-10.69-8.59-8.58-16.38q15.1-55.79,30.6-111.46c1.74-6.24,5-11.74,13.14-9.76,8.88,2.17,9.08,9.09,7.35,15.86-4.81,18.9-10.16,37.65-15.3,56.47Z"/>
    <path class="color1 ray ray8" d="M814.7,255c-10.45,15.33-20.8,30.73-31.42,45.93-3.67,5.26-6.91,12.36-15.63,6.88-8.12-5.1-7.3-11.61-2.77-18.29q32.46-47.82,65.26-95.4c3.68-5.34,8.58-9.46,15.6-4.94,7.68,4.95,5.62,11.55,1.78,17.39-10.71,16.3-21.88,32.28-32.87,48.39Z"/>
    <path class="color1 ray ray9" d="M900.06,338.95c-14.11,12-28.14,24.18-42.38,36.07-4.92,4.11-9.91,10.12-16.89,2.53-6.49-7.06-4-13.12,2.13-18.37q43.88-37.61,88-74.91c5-4.18,10.76-6.88,16.35-.67,6.12,6.79,2.39,12.62-2.84,17.25-14.61,12.91-29.59,25.4-44.43,38.06Z"/>
    <path class="color1 ray ray10" d="M960,454.23c-17.87,5-35.7,10.1-53.62,14.89-6.19,1.66-13.25,5-16.39-4.81-2.92-9.13,1.89-13.58,9.66-15.77q55.63-15.66,111.37-30.93c6.25-1.71,12.66-1.71,15.12,6.27,2.69,8.73-3.14,12.46-9.84,14.45-18.69,5.57-37.53,10.6-56.32,15.84Z"/>
    <path class="color1 ray ray11" d="M982.26,571.61c-18.55.22-37.1.58-55.65.6-6.41,0-14.09,1.43-14.6-8.86-.47-9.58,5.32-12.64,13.39-12.76q57.79-.83,115.58-1.25c6.48,0,12.67,1.6,13,9.95.35,9.13-6.24,11.23-13.22,11.43-19.49.57-39,.59-58.5.83Z"/>
    </g>
</svg>
