<svg id="sun" data-name="Layer 1" xmlns="http://www.w3.org/2000/svg" viewBox="0 0 841.89 595.28">
    <defs><style>.col{fill:none;stroke:#d93a45;stroke-miterlimit:10;stroke-width:21px;}.round{fill:#d93a45;}#sun{
        width: 44%;
    }

    .ray{
        stroke-dashoffset: 1000;
        animation: rayAnim 2s 0s linear infinite;
    }

    @keyframes rayAnim {
        to {
            stroke-dasharray: 300;
            stroke-dashoffset: 170;
        }
    }</style></defs>
    <title>sun-traits</title>
    <path class="col ray" d="M491,457.68c-5.93-6.61-12.79-10.6-21-11A39.39,39.39,0,0,0,453,450c-7.34,3-14.42,8-21.42,13.54a111,111,0,0,1-10.07,7.12c-6.32,3.91-12.65,7-19.08,8a21.54,21.54,0,0,1-16.36-3.8c-4.78-3.4-8.53-8.6-11.88-14.47-3.58-6.27-6.33-13.53-9.31-20.52a74.67,74.67,0,0,0-11.62-19.61,29.82,29.82,0,0,0-13.9-9.54,11.72,11.72,0,0,1-1.59-.21,23.61,23.61,0,0,0-9.93-.14,48.24,48.24,0,0,0-15.79,6.07,114.08,114.08,0,0,0-13.18,9.06"/>
    <path class="col ray" d="M466,580c-7.8-4.24-15.6-5.71-23.46-3.34a39.39,39.39,0,0,0-14.86,8.84c-5.9,5.31-10.9,12.39-15.66,19.93a111,111,0,0,1-7.11,10.08c-4.65,5.8-9.57,10.85-15.3,13.93a21.54,21.54,0,0,1-16.69,1.9c-5.65-1.61-10.92-5.24-16-9.66-5.47-4.71-10.5-10.63-15.64-16.22a74.67,74.67,0,0,0-17.51-14.59,29.82,29.82,0,0,0-16.29-4.34,11.72,11.72,0,0,1-1.57.33,23.61,23.61,0,0,0-9.4,3.19,48.24,48.24,0,0,0-12.84,11A114.08,114.08,0,0,0,274.27,614"/>
    <path class="col ray" d="M645,273.47c-.95-8.83-4.18-16.08-10.61-21.19a39.39,39.39,0,0,0-15.72-7.18c-7.73-1.83-16.39-1.91-25.3-1.53a111,111,0,0,1-12.34-.11c-7.41-.52-14.37-1.69-20.16-4.66a21.54,21.54,0,0,1-11.06-12.64c-1.89-5.56-1.9-12-1.19-18.69.76-7.18,2.76-14.68,4.44-22.09a74.67,74.67,0,0,0,2-22.7,29.82,29.82,0,0,0-5.7-15.86,11.72,11.72,0,0,1-1.17-1.1,23.61,23.61,0,0,0-8-5.91,48.24,48.24,0,0,0-16.36-4.3,114.08,114.08,0,0,0-16-.35"/>
    <path class="col ray" d="M554.08,352.65c-3.79-8-9.36-14.44-17.1-17.16a39.39,39.39,0,0,0-17.21-1.63c-7.9.81-16.11,3.58-24.4,6.86a111,111,0,0,1-11.69,4c-7.17,1.94-14.12,3.12-20.57,2.22a21.54,21.54,0,0,1-14.6-8.31c-3.61-4.63-5.72-10.68-7.26-17.26-1.64-7-2.21-14.77-3.06-22.32a74.67,74.67,0,0,0-5.53-22.11,29.82,29.82,0,0,0-10.59-13.11,11.72,11.72,0,0,1-1.46-.66,23.61,23.61,0,0,0-9.48-3,48.24,48.24,0,0,0-16.86,1.31,114.08,114.08,0,0,0-15.22,4.92"/>
    <path class="col ray" d="M752.5,227.78c1.76-8.7.86-16.59-3.72-23.4A39.39,39.39,0,0,0,736,192.78c-6.82-4.07-15.05-6.76-23.66-9.09a111,111,0,0,1-11.73-3.82c-6.91-2.73-13.19-5.94-17.82-10.52A21.54,21.54,0,0,1,676,154c-.13-5.87,1.79-12,4.5-18.17,2.89-6.62,7.06-13.16,10.9-19.72a74.67,74.67,0,0,0,8.78-21,29.82,29.82,0,0,0-.65-16.84,11.72,11.72,0,0,1-.78-1.4,23.61,23.61,0,0,0-5.82-8,48.24,48.24,0,0,0-14.3-9,114.08,114.08,0,0,0-15.14-5.16"/>
    <path class="round" d="M841.11,241.54c194.84-.14,352.9,157.69,353,352.52s-157.69,352.9-352.52,353l1,.06c-194.84,0-352.78-157.95-352.78-352.78S647.84,241.61,842.67,241.61"/>
    <path class="col ray" d="M863,216.51c4-7.94,5.17-15.79,2.53-23.56a39.39,39.39,0,0,0-9.35-14.54c-5.51-5.71-12.76-10.46-20.45-15a111,111,0,0,1-10.32-6.76c-6-4.44-11.17-9.19-14.44-14.81a21.54,21.54,0,0,1-2.47-16.61c1.41-5.7,4.87-11.09,9.1-16.36,4.52-5.63,10.26-10.86,15.68-16.19a74.67,74.67,0,0,0,14-18A29.82,29.82,0,0,0,851,58.28a11.72,11.72,0,0,1-.39-1.56,23.61,23.61,0,0,0-3.52-9.28A48.24,48.24,0,0,0,835.63,35,114.08,114.08,0,0,0,822.37,26"/>
</svg>
