<svg xmlns="http://www.w3.org/2000/svg" viewBox="0 0 29.96 180.05"><defs><style>.cls-1{fill:#505050;}</style></defs><title>Asset 1</title><g id="Layer_2" data-name="Layer 2"><g id="Layer_1-2" data-name="Layer 1"><path class="cls-1" d="M22.5,79q0,35.75,0,71.5a2.46,2.46,0,0,0,1.21,2.35c7.41,5,8.42,16.12,2.15,22.49A14.56,14.56,0,0,1,13.68,180,14.76,14.76,0,0,1,.28,167.81c-1.14-6.34,1.17-11.41,6.34-15.17a1.9,1.9,0,0,0,.89-1.75c0-7,0-14.08,0-21.12q0-61,0-122A7.47,7.47,0,0,1,14.07.07a7.59,7.59,0,0,1,8.37,6.21,7.65,7.65,0,0,1,.06,1.49Q22.5,43.39,22.5,79Z"/></g></g></svg>