<?xml version="1.0" encoding="utf-8"?>
<!-- Generator: Adobe Illustrator 19.1.1, SVG Export Plug-In . SVG Version: 6.00 Build 0)  -->
<svg version="1.1" id="Layer_1" xmlns="http://www.w3.org/2000/svg" xmlns:xlink="http://www.w3.org/1999/xlink" x="0px" y="0px"
	 viewBox="0 0 55 185" style="enable-background:new 0 0 55 185;" xml:space="preserve">
<style type="text/css">
	.st0{fill:#505050;}
	.st1{fill:#A6A6A6;}

</style>
<path class="st0" d="M33.4,80.7c0,23.8,0,47.7,0,71.5c0,1.1,0.3,1.7,1.2,2.3c7.4,5,8.4,16.1,2.2,22.5c-3.4,3.4-7.4,5.1-12.2,4.6
	c-6.8-0.6-12.2-5.5-13.4-12.2c-1.1-6.3,1.2-11.4,6.3-15.2c0.7-0.5,0.9-1,0.9-1.8c0-7,0-14.1,0-21.1c0-40.7,0-81.3,0-122
	c0-4.4,3-7.2,6.6-7.7c4-0.5,7.6,2.2,8.4,6.2c0.1,0.5,0.1,1,0.1,1.5C33.4,33.2,33.4,56.9,33.4,80.7z"/>
<path class="st1" d="M30.2,117.6c0,13.7,0,27.4,0,41.1c0,0.6,0.2,1,0.7,1.4c4.3,2.9,4.8,9.3,1.2,12.9c-1.9,2-4.3,2.9-7,2.7
	c-3.9-0.4-7-3.2-7.7-7c-0.7-3.7,0.7-6.6,3.6-8.7c0.4-0.3,0.5-0.6,0.5-1c0-4.1,0-8.1,0-12.2c0-23.4,0-7,0-30.4c0-2.5,1.7-4.1,3.8-4.4
	c2.3-0.3,4.4,1.3,4.8,3.6c0.1,0.3,0,0.6,0,0.9C30.2,130,30.2,103.9,30.2,117.6z"/>
</svg>
