<svg id="Layer_1" data-name="Layer 1" xmlns="http://www.w3.org/2000/svg" viewBox="0 0 143.79 125.06"><defs><style>.cls-1{fill:#1e4066;}</style></defs><title>umbrella</title><path class="cls-1" d="M102.27,201.74c0-21.62,0-43.88,0-65.5a2.46,2.46,0,0,1,1.15-2.25A25.77,25.77,0,0,1,135.33,135l1.2,1c-.63-24.71-17.78-47.82-35.76-54.28V83q0,6.91,0,13.82,0,19.17,0,38.34a8.7,8.7,0,0,1-.42,1.87h-.63a9.55,9.55,0,0,1-.42-2q0-26,0-51.91V81.79C80.42,89.18,64,112.41,63.51,136L64.8,135a25.76,25.76,0,0,1,31.94-.87,2.25,2.25,0,0,1,1,2.05q0,32.31,0,64.61c0,.33,0,.66,0,1" transform="translate(-28.1 -76.68)"/><path class="cls-1" d="M171.9,134.15c-11.79-7.55-22.93-6.91-33.68,1.78-.29-2.49-.43-5-.88-7.46C133.73,109,124.18,93.4,107,83c-1.38-.84-2.88-1.47-4.33-2.18a5.8,5.8,0,0,0-5.37.06c-13.15,6.37-22.48,16.52-28.87,29.48a63.19,63.19,0,0,0-6.49,25.11c0,.16,0,.32-.07.54-10.78-8.73-22-9.41-33.76-1.81A74.93,74.93,0,0,1,97.64,80.22c.3-2.62.86-3.46,2.26-3.54s2.06.78,2.5,3.51c19.84.95,36.95,8.26,51,22.4A73.56,73.56,0,0,1,171.9,134.15Z" transform="translate(-28.1 -76.68)"/></svg>